<svg width="212" height="228" fill="none" xmlns="http://www.w3.org/2000/svg"><g filter="url(#filter0_d)"><path d="M182.468 132.247c3.629 2.054 5.976 5.115 7.041 9.183 1.065 4.068.572 7.919-1.479 11.553l-7.573 13.034c-2.051 3.634-5.108 5.984-9.171 7.05-4.062 1.066-7.908.573-11.537-1.481H136.94l-8.666 18.247c0 4.108-1.499 7.663-4.497 10.664-2.997 3.002-6.547 4.503-10.649 4.503H97.982c-4.102 0-7.652-1.501-10.65-4.503-2.997-3.001-4.496-6.556-4.496-10.664l-6.253-20.044-25.223 1.797c-3.629 2.054-7.474 2.547-11.537 1.481-4.062-1.066-7.12-3.416-9.17-7.05l-7.573-13.034c-2.051-3.634-2.544-7.485-1.48-11.553 1.066-4.068 3.412-7.129 7.041-9.183L39.823 114 28.641 95.753c-3.629-2.054-5.975-5.115-7.04-9.183-1.065-4.069-.572-7.92 1.479-11.553l7.573-13.034c2.05-3.634 5.108-5.984 9.17-7.05 4.063-1.066 7.908-.573 11.537 1.481l23.292 5.57 8.184-23.817c0-4.108 1.499-7.663 4.496-10.664C90.33 24.5 93.88 23 97.982 23h15.146c4.102 0 7.652 1.5 10.649 4.503 2.998 3.001 4.497 6.556 4.497 10.664l8.666 23.816 22.809-5.569c3.629-2.054 7.475-2.547 11.537-1.481 4.063 1.066 7.12 3.416 9.171 7.05l7.573 13.034c2.051 3.634 2.544 7.484 1.479 11.553-1.065 4.068-3.412 7.129-7.041 9.183L168.809 114l13.659 18.247z" fill="#fff"/><path d="M193.65 156.249l.02-.036.02-.035c2.889-5.117 3.596-10.706 2.107-16.394-1.38-5.272-4.395-9.507-8.873-12.43L176.928 114l9.996-13.354c4.478-2.923 7.493-7.158 8.873-12.43 1.489-5.688.782-11.277-2.107-16.394l-.02-.035-.02-.036-7.554-13c-2.922-5.155-7.424-8.6-13.16-10.105-5.371-1.41-10.655-.855-15.534 1.65l-16.345 3.991-6.316-17.357c-.291-5.383-2.489-10.14-6.364-14.02-4.171-4.177-9.357-6.41-15.249-6.41H97.982c-5.893 0-11.079 2.233-15.25 6.41-3.89 3.896-6.09 8.675-6.367 14.084L70.423 54.29l-16.73-4c-4.876-2.5-10.154-3.052-15.52-1.643-5.736 1.505-10.237 4.95-13.16 10.104L17.46 71.75l-.02.035-.02.036c-2.89 5.117-3.596 10.706-2.108 16.394 1.351 5.16 4.268 9.326 8.59 12.242L32.2 114 23.9 127.542c-4.321 2.916-7.238 7.082-8.588 12.242-1.49 5.688-.782 11.277 2.106 16.394l.02.035.02.036 7.555 13.001c2.922 5.155 7.424 8.599 13.159 10.104 5.173 1.358 10.264.894 14.991-1.38l18.747-1.336 4.45 14.265c.253 5.451 2.456 10.266 6.372 14.187 4.17 4.177 9.356 6.41 15.249 6.41h15.146c5.892 0 11.078-2.233 15.249-6.41 3.793-3.798 5.979-8.435 6.342-13.677l6.33-13.327h17.133c4.66 2.177 9.668 2.603 14.754 1.268 5.736-1.505 10.238-4.95 13.16-10.104l7.554-13.001z" stroke="#484848" stroke-width="13"/></g><circle cx="105.55" cy="114.46" r="38.548" fill="#C41230"/><path fill-rule="evenodd" clip-rule="evenodd" d="M138.21 93.419c-.432.8-3.387 3.01-6.891 3.01-1.572 0-3.021-.137-4.434-.271-2.727-.26-5.325-.506-8.435.272-3.916.979-6.823 2.794-10.661 8.338-.337.487-.704 1.098-1.117 1.784-1.628 2.707-3.957 6.58-7.87 8.573-3.044 1.294-4.11 1.599-11.84 2.132-4.03.278-8.993 2.346-11.46 6.854 2.068-2.183 7.889-6.344 14.62-5.521-.005.011-.087.046-.226.106-.81.349-3.566 1.537-4.8 3.777a.289.289 0 00.04-.034c.52-.472 6.154-5.601 18.694-2.402-.038.076-3.998 4.797-10.433 6.168-2.38.507-6.863-.356-9.714-.905-.803-.155-1.477-.285-1.937-.352-3.23-.47-8.156-.061-12.299 3.199 2.653-1.396 9.87-3.435 17.515-.419 2.821 1.113 9.023 1.409 13.287-.952 2.583-1.43 4.594-2.775 6.49-4.043 1.574-1.052 3.068-2.051 4.743-3.001.064 0 .195-.075.399-.192 1.112-.641 4.389-2.527 10.795-.113 1.797.678 3.305 1.271 4.613 1.787 4.21 1.657 6.358 2.503 9.437 2.706 3.229.214 5.914-.571 6.853-.99l1.143-4.531-.571-6.282c-.838 1.193-3.458 3.663-7.235 3.998-2.157.191-4.131-.412-6.365-1.095-2.657-.812-5.681-1.736-9.817-1.57.008 0 .06-.057.155-.158.857-.918 5.167-5.531 10.62-5.325 4.813.181 7.845 1.301 10.57 2.308.702.259 1.385.511 2.072.738v-4.074l-2.666-8.263-3.275-5.257zm-37.39 23.571c2.577-1.713 7.098-4.841 10.166-9.214 3.069-4.373 10.928-5.94 14.089-5.75.009.039-.163.138-.463.31-.89.513-2.912 1.676-4.678 3.841-.505.619-.992 1.233-1.465 1.828-1.737 2.187-3.274 4.122-4.741 5.14-.24.166-.5.368-.789.592-1.958 1.52-5.217 4.049-12.119 3.253z" fill="#fff"/><defs><filter id="filter0_d" x="5.187" y="10" width="200.734" height="214.69" filterUnits="userSpaceOnUse" color-interpolation-filters="sRGB"><feFlood flood-opacity="0" result="BackgroundImageFix"/><feColorMatrix in="SourceAlpha" values="0 0 0 0 0 0 0 0 0 0 0 0 0 0 0 0 0 0 127 0"/><feOffset dy="3.823"/><feGaussianBlur stdDeviation="1.434"/><feColorMatrix values="0 0 0 0 0 0 0 0 0 0 0 0 0 0 0 0 0 0 0.18 0"/><feBlend in2="BackgroundImageFix" result="effect1_dropShadow"/><feBlend in="SourceGraphic" in2="effect1_dropShadow" result="shape"/></filter></defs></svg>