<svg width="211" height="228" fill="none" xmlns="http://www.w3.org/2000/svg"><g filter="url(#filter0_d)"><path d="M182.413 132.247c3.629 2.054 5.976 5.115 7.041 9.183 1.065 4.068.572 7.919-1.479 11.553l-7.573 13.034c-2.051 3.634-5.108 5.984-9.171 7.05-4.062 1.066-7.908.573-11.537-1.481h-22.808l-8.667 18.247c0 4.108-1.499 7.663-4.496 10.664-2.998 3.002-6.548 4.503-10.65 4.503H97.927c-4.102 0-7.652-1.501-10.65-4.503-2.997-3.001-4.496-6.556-4.496-10.664l-6.252-20.044-25.223 1.797c-3.63 2.054-7.475 2.547-11.537 1.481-4.063-1.066-7.12-3.416-9.17-7.05l-7.574-13.034c-2.051-3.634-2.544-7.485-1.479-11.553 1.065-4.068 3.412-7.129 7.04-9.183L39.77 114 28.587 95.753c-3.63-2.054-5.976-5.115-7.041-9.183-1.065-4.069-.572-7.92 1.48-11.553l7.572-13.034c2.051-3.634 5.108-5.984 9.17-7.05 4.063-1.066 7.909-.573 11.538 1.481l23.291 5.57 8.184-23.817c0-4.108 1.499-7.663 4.496-10.664C90.275 24.5 93.825 23 97.927 23h15.146c4.102 0 7.652 1.5 10.65 4.503 2.997 3.001 4.496 6.556 4.496 10.664l8.667 23.816 22.808-5.569c3.629-2.054 7.475-2.547 11.537-1.481 4.063 1.066 7.12 3.416 9.171 7.05l7.573 13.034c2.051 3.634 2.544 7.484 1.479 11.553-1.065 4.068-3.412 7.129-7.041 9.183L168.754 114l13.659 18.247z" fill="#fff"/><path d="M193.595 156.249l.021-.036.019-.035c2.889-5.117 3.596-10.706 2.107-16.394-1.38-5.272-4.395-9.507-8.872-12.43L176.874 114l9.996-13.354c4.477-2.923 7.492-7.158 8.872-12.43 1.489-5.688.782-11.277-2.107-16.394l-.019-.035-.021-.036-7.554-13c-2.922-5.155-7.424-8.6-13.159-10.105-5.372-1.41-10.655-.855-15.535 1.65l-16.345 3.991-6.316-17.357c-.291-5.383-2.488-10.14-6.364-14.02-4.17-4.177-9.357-6.41-15.249-6.41H97.927c-5.892 0-11.079 2.233-15.249 6.41-3.891 3.896-6.09 8.675-6.367 14.084L70.368 54.29l-16.73-4c-4.876-2.5-10.154-3.052-15.52-1.643-5.735 1.505-10.237 4.95-13.159 10.104L17.405 71.75l-.02.035-.02.036c-2.889 5.117-3.596 10.706-2.107 16.394 1.35 5.16 4.267 9.326 8.589 12.242L32.145 114l-8.298 13.542c-4.322 2.916-7.238 7.082-8.59 12.242-1.488 5.688-.781 11.277 2.107 16.394l.02.035.02.036 7.555 13.001c2.922 5.155 7.424 8.599 13.16 10.104 5.172 1.358 10.263.894 14.99-1.38l18.747-1.336 4.45 14.265c.254 5.451 2.456 10.266 6.372 14.187 4.17 4.177 9.357 6.41 15.249 6.41h15.146c5.892 0 11.079-2.233 15.249-6.41 3.793-3.798 5.979-8.435 6.343-13.677l6.329-13.327h17.133c4.66 2.177 9.668 2.603 14.755 1.268 5.735-1.505 10.237-4.95 13.159-10.104l7.554-13.001z" stroke="#484848" stroke-width="13"/></g><path fill-rule="evenodd" clip-rule="evenodd" d="M104 95c5.523 0 10-4.477 10-10s-4.477-10-10-10-10 4.477-10 10 4.477 10 10 10zm-11 7a3 3 0 013-3h16a3 3 0 013 3v47a6 6 0 01-6 6H99a6 6 0 01-6-6v-47zm-18.5-.5h-13v7.5c0 2 1.3 6 6.5 6 2 0 6.5 0 6.5 6v16c0 2.5 1.2 7.5 6 7.5H88V115c0-9.2-8-13.5-13.5-13.5zm59 0h13v7.5c0 2-1.3 6-6.5 6-2 0-6.5 0-6.5 6v16c0 2.5-1.2 7.5-6 7.5H120V115c0-9.2 8-13.5 13.5-13.5zM89 89.5a8.5 8.5 0 11-17 0 8.5 8.5 0 0117 0zm38.5 8.5a8.5 8.5 0 100-17 8.5 8.5 0 000 17z" fill="#1A97DB"/><defs><filter id="filter0_d" x="5.133" y="10" width="200.734" height="214.69" filterUnits="userSpaceOnUse" color-interpolation-filters="sRGB"><feFlood flood-opacity="0" result="BackgroundImageFix"/><feColorMatrix in="SourceAlpha" values="0 0 0 0 0 0 0 0 0 0 0 0 0 0 0 0 0 0 127 0"/><feOffset dy="3.823"/><feGaussianBlur stdDeviation="1.434"/><feColorMatrix values="0 0 0 0 0 0 0 0 0 0 0 0 0 0 0 0 0 0 0.18 0"/><feBlend in2="BackgroundImageFix" result="effect1_dropShadow"/><feBlend in="SourceGraphic" in2="effect1_dropShadow" result="shape"/></filter></defs></svg>