<svg width="212" height="228" fill="none" xmlns="http://www.w3.org/2000/svg"><g filter="url(#filter0_d)"><path d="M182.732 132.247c3.629 2.054 5.975 5.115 7.04 9.183 1.065 4.068.572 7.919-1.479 11.553l-7.573 13.034c-2.051 3.634-5.108 5.984-9.17 7.05-4.063 1.066-7.908.573-11.537-1.481h-22.809l-8.667 18.247c0 4.108-1.498 7.663-4.496 10.664-2.998 3.002-6.548 4.503-10.65 4.503H98.245c-4.102 0-7.652-1.501-10.65-4.503-2.997-3.001-4.496-6.556-4.496-10.664l-6.252-20.044-25.223 1.797c-3.629 2.054-7.474 2.547-11.537 1.481-4.063-1.066-7.12-3.416-9.17-7.05l-7.574-13.034c-2.05-3.634-2.544-7.485-1.479-11.553 1.065-4.068 3.412-7.129 7.04-9.183L40.088 114 28.905 95.753c-3.629-2.054-5.976-5.115-7.04-9.183-1.066-4.069-.573-7.92 1.478-11.553l7.573-13.034c2.052-3.634 5.108-5.984 9.17-7.05 4.064-1.066 7.91-.573 11.538 1.481l23.291 5.57L83.1 38.166c0-4.108 1.5-7.663 4.497-10.664C90.593 24.5 94.143 23 98.246 23h15.145c4.102 0 7.652 1.5 10.65 4.503 2.998 3.001 4.496 6.556 4.496 10.664l8.667 23.816 22.809-5.569c3.629-2.054 7.474-2.547 11.537-1.481 4.062 1.066 7.119 3.416 9.17 7.05l7.573 13.034c2.051 3.634 2.544 7.484 1.479 11.553-1.065 4.068-3.411 7.129-7.04 9.183L169.073 114l13.659 18.247z" fill="#fff"/><path d="M193.913 156.249l.021-.036.02-.035c2.888-5.117 3.595-10.706 2.107-16.394-1.381-5.272-4.395-9.507-8.873-12.43L177.192 114l9.996-13.354c4.478-2.923 7.492-7.158 8.873-12.43 1.488-5.688.781-11.277-2.107-16.394l-.02-.035-.021-.036-7.554-13c-2.922-5.155-7.423-8.6-13.159-10.105-5.372-1.41-10.655-.855-15.534 1.65l-16.345 3.991-6.317-17.357c-.291-5.383-2.488-10.14-6.364-14.02-4.17-4.177-9.356-6.41-15.249-6.41H98.245c-5.892 0-11.078 2.233-15.249 6.41-3.89 3.896-6.09 8.675-6.367 14.084L70.686 54.29l-16.73-4c-4.875-2.5-10.153-3.052-15.52-1.643-5.735 1.505-10.237 4.95-13.159 10.104L17.724 71.75l-.02.035-.02.036c-2.889 5.117-3.596 10.706-2.107 16.394 1.351 5.16 4.267 9.326 8.589 12.242L32.464 114l-8.3 13.542c-4.32 2.916-7.237 7.082-8.588 12.242-1.489 5.688-.782 11.277 2.107 16.394l.02.035.02.036 7.555 13.001c2.922 5.155 7.423 8.599 13.159 10.104 5.173 1.358 10.264.894 14.99-1.38l18.747-1.336 4.45 14.265c.254 5.451 2.457 10.266 6.373 14.187 4.17 4.177 9.356 6.41 15.248 6.41h15.146c5.893 0 11.079-2.233 15.249-6.41 3.794-3.798 5.979-8.435 6.343-13.677l6.33-13.327h17.132c4.661 2.177 9.668 2.603 14.755 1.268 5.736-1.505 10.237-4.95 13.159-10.104l7.554-13.001z" stroke="#484848" stroke-width="13"/></g><g clip-path="url(#clip0)"><path d="M68.496 87.613l30.65-4.157.014 29.447-30.636.173-.028-25.462zm30.636 28.682l.023 29.472-30.635-4.195-.002-25.475 30.614.198zm3.715-33.383l40.64-5.908v35.524l-40.64.321V82.912zm40.649 33.66l-.01 35.363-40.639-5.712-.057-29.717 40.706.066z" fill="#00ADEF"/></g><defs><clipPath id="clip0"><path fill="#fff" d="M68.496 77h75v75h-75z"/></clipPath><filter id="filter0_d" x="5.451" y="10" width="200.734" height="214.69" filterUnits="userSpaceOnUse" color-interpolation-filters="sRGB"><feFlood flood-opacity="0" result="BackgroundImageFix"/><feColorMatrix in="SourceAlpha" values="0 0 0 0 0 0 0 0 0 0 0 0 0 0 0 0 0 0 127 0"/><feOffset dy="3.823"/><feGaussianBlur stdDeviation="1.434"/><feColorMatrix values="0 0 0 0 0 0 0 0 0 0 0 0 0 0 0 0 0 0 0.18 0"/><feBlend in2="BackgroundImageFix" result="effect1_dropShadow"/><feBlend in="SourceGraphic" in2="effect1_dropShadow" result="shape"/></filter></defs></svg>