<svg width="109" height="109" fill="none" xmlns="http://www.w3.org/2000/svg"><circle cx="54.5" cy="54.5" r="54" fill="#fff" stroke="#9F9F9F"/><circle cx="54.5" cy="54.5" r="41" stroke="#F30075" stroke-width="7"/><path d="M50.633 56.688h-8.702V68h-5.599V40.273h15.349v4.666h-9.75v7.103h8.702v4.646zM73.675 58.764c-.14 3.161-1.028 5.554-2.666 7.18-1.637 1.624-3.948 2.437-6.931 2.437-3.136 0-5.542-1.028-7.218-3.085-1.663-2.07-2.494-5.015-2.494-8.836v-4.666c0-3.808.863-6.74 2.59-8.797 1.726-2.07 4.125-3.104 7.198-3.104 3.021 0 5.313.844 6.874 2.532 1.575 1.689 2.47 4.114 2.685 7.275h-5.617c-.051-1.955-.356-3.301-.914-4.037-.546-.75-1.556-1.124-3.028-1.124-1.498 0-2.558.527-3.18 1.58-.622 1.042-.952 2.762-.99 5.161v5.237c0 2.755.304 4.647.913 5.675.623 1.028 1.683 1.542 3.18 1.542 1.473 0 2.489-.355 3.047-1.066.56-.724.877-2.025.953-3.904h5.598z" fill="#393535"/></svg>