<svg width="213" height="191" fill="none" xmlns="http://www.w3.org/2000/svg"><g filter="url(#filter0_d)"><rect x="12.492" y="11" width="188" height="148" rx="21" fill="#fff"/><rect x="18.992" y="17.5" width="175" height="135" rx="14.5" stroke="#0065EB" stroke-width="13"/></g><g filter="url(#filter1_d)"><rect x="47.492" y="168" width="118" height="12" rx="6" fill="#0065EB"/><rect x="50.492" y="171" width="112" height="6" rx="3" stroke="#0065EB" stroke-width="6"/></g><g clip-path="url(#clip0)"><path d="M49.705 63v3.284h22.58V63h-22.58zm25.778 0v3.284h32.177S104.373 63 100.02 63H75.483zm38.489 0v3.284h19.466L132.283 63h-18.311zm33.422 0l-1.155 3.284h19.289V63h-18.134zm-97.689 6.387v3.284h22.58v-3.284h-22.58zm25.778.004v3.28h35.91s-.419-2.528-1.151-3.28H75.483zm38.489 0v3.28h21.6l-1.069-3.28h-20.531zm31.111 0l-1.069 3.28h21.514v-3.28h-20.445zm-88.89 6.382v3.289h9.78v-3.289h-9.78zm25.78 0v3.289h9.778v-3.289h-9.779zm19.289 0v3.289h9.778s.621-1.737.621-3.289h-10.399zm19.199 0v3.289h17.336l-1.155-3.289h-16.181zm22.493 0l-1.16 3.289h17.422v-3.289h-16.262zm-86.76 6.392v3.284h9.778v-3.284h-9.778zm25.778 0v3.284h24.976s2.09-1.685 2.755-3.284h-27.73zm38.489 0v3.284h9.778V83.62l.621 1.828h17.912l.666-1.828v1.828h9.778v-3.284H140.86l-.974 2.781-.979-2.781h-18.446zM56.194 88.55v3.284h9.778v-3.284h-9.778zm25.778 0v3.284h27.731c-.665-1.593-2.755-3.284-2.755-3.284H81.972zm38.489 0v3.284h9.778v-3.284h-9.778zm11.554 0l1.183 3.284h13.43l1.124-3.284h-15.737zm17.423 0v3.284h9.778v-3.284h-9.778zm-93.244 6.387v3.284h9.778v-3.284h-9.778zm25.778 0v3.284h9.779v-3.284h-9.779zm19.29 0v3.284h10.399c0-1.55-.621-3.284-.621-3.284h-9.778zm19.199 0v3.284h9.778v-3.284h-9.778zm13.775 0l1.146 3.284h9.004l1.155-3.284h-11.305zm15.202 0v3.284h9.778v-3.284h-9.778zm-99.556 6.387v3.288H72.46v-3.288H49.88zm25.601 0v3.288h34.759c.732-.753 1.151-3.288 1.151-3.288h-35.91zm38.666 0v3.288h16.09v-3.288h-16.09zm22.311 0l1.178 3.288h4.581l1.106-3.288h-6.865zm12.978 0v3.288h16.267v-3.288h-16.267zm-99.556 6.391V111H72.46v-3.284H49.88zm25.601 0v3.279h24.537c4.353 0 7.64-3.279 7.64-3.279H75.483zm38.666 0V111h16.09v-3.284h-16.09zm24.545 0l1.133 3.275.195.004 1.151-3.279h-2.479zm10.744 0V111h16.267v-3.284h-16.267z" fill="#1F70C1"/></g><defs><filter id="filter0_d" x="9.625" y="11" width="193.734" height="154.69" filterUnits="userSpaceOnUse" color-interpolation-filters="sRGB"><feFlood flood-opacity="0" result="BackgroundImageFix"/><feColorMatrix in="SourceAlpha" values="0 0 0 0 0 0 0 0 0 0 0 0 0 0 0 0 0 0 127 0"/><feOffset dy="3.823"/><feGaussianBlur stdDeviation="1.434"/><feColorMatrix values="0 0 0 0 0 0 0 0 0 0 0 0 0 0 0 0 0 0 0.18 0"/><feBlend in2="BackgroundImageFix" result="effect1_dropShadow"/><feBlend in="SourceGraphic" in2="effect1_dropShadow" result="shape"/></filter><filter id="filter1_d" x="44.625" y="168" width="123.734" height="18.69" filterUnits="userSpaceOnUse" color-interpolation-filters="sRGB"><feFlood flood-opacity="0" result="BackgroundImageFix"/><feColorMatrix in="SourceAlpha" values="0 0 0 0 0 0 0 0 0 0 0 0 0 0 0 0 0 0 127 0"/><feOffset dy="3.823"/><feGaussianBlur stdDeviation="1.434"/><feColorMatrix values="0 0 0 0 0 0 0 0 0 0 0 0 0 0 0 0 0 0 0.18 0"/><feBlend in2="BackgroundImageFix" result="effect1_dropShadow"/><feBlend in="SourceGraphic" in2="effect1_dropShadow" result="shape"/></filter><clipPath id="clip0"><path fill="#fff" d="M49.705 63h116v48h-116z"/></clipPath></defs></svg>