<svg width="212" height="191" fill="none" xmlns="http://www.w3.org/2000/svg"><g filter="url(#filter0_d)"><rect x="12" y="11" width="188" height="148" rx="21" fill="#fff"/><rect x="18.5" y="17.5" width="175" height="135" rx="14.5" stroke="#0065EB" stroke-width="13"/></g><g filter="url(#filter1_d)"><rect x="47" y="168" width="118" height="12" rx="6" fill="#0065EB"/><rect x="50" y="171" width="112" height="6" rx="3" stroke="#0065EB" stroke-width="6"/></g><path d="M68 58.613l30.65-4.157.014 29.447-30.636.173L68 58.614zm30.636 28.682l.023 29.472-30.635-4.195-.002-25.475 30.613.198zm3.715-33.383l40.64-5.907v35.523l-40.64.32V53.913zM143 87.572l-.01 35.363-40.639-5.712-.057-29.717 40.706.066z" fill="#00ADEF"/><defs><filter id="filter0_d" x="9.133" y="11" width="193.734" height="154.69" filterUnits="userSpaceOnUse" color-interpolation-filters="sRGB"><feFlood flood-opacity="0" result="BackgroundImageFix"/><feColorMatrix in="SourceAlpha" values="0 0 0 0 0 0 0 0 0 0 0 0 0 0 0 0 0 0 127 0"/><feOffset dy="3.823"/><feGaussianBlur stdDeviation="1.434"/><feColorMatrix values="0 0 0 0 0 0 0 0 0 0 0 0 0 0 0 0 0 0 0.18 0"/><feBlend in2="BackgroundImageFix" result="effect1_dropShadow"/><feBlend in="SourceGraphic" in2="effect1_dropShadow" result="shape"/></filter><filter id="filter1_d" x="44.133" y="168" width="123.734" height="18.69" filterUnits="userSpaceOnUse" color-interpolation-filters="sRGB"><feFlood flood-opacity="0" result="BackgroundImageFix"/><feColorMatrix in="SourceAlpha" values="0 0 0 0 0 0 0 0 0 0 0 0 0 0 0 0 0 0 127 0"/><feOffset dy="3.823"/><feGaussianBlur stdDeviation="1.434"/><feColorMatrix values="0 0 0 0 0 0 0 0 0 0 0 0 0 0 0 0 0 0 0.18 0"/><feBlend in2="BackgroundImageFix" result="effect1_dropShadow"/><feBlend in="SourceGraphic" in2="effect1_dropShadow" result="shape"/></filter></defs></svg>