<svg width="213" height="191" fill="none" xmlns="http://www.w3.org/2000/svg"><g filter="url(#filter0_d)"><rect x="12.746" y="11" width="188" height="148" rx="21" fill="#fff"/><rect x="19.246" y="17.5" width="175" height="135" rx="14.5" stroke="#0065EB" stroke-width="13"/></g><g filter="url(#filter1_d)"><rect x="47.746" y="168" width="118" height="12" rx="6" fill="#0065EB"/><rect x="50.746" y="171" width="112" height="6" rx="3" stroke="#0065EB" stroke-width="6"/></g><g clip-path="url(#clip0)"><path d="M97.169 91.987h8.454l-4.47-7.302-8.205 13.203h-3.733l9.979-15.86A2.348 2.348 0 01101.153 81c.776 0 1.499.374 1.92 1.001l10.018 15.887h-3.734l-1.761-2.95h-8.56l-1.867-2.95zm38.787 2.95V81.16h-3.169v15.126a1.606 1.606 0 001.617 1.602h14.45l1.867-2.95h-14.766.001zm-52.422-2.47c3.077 0 5.575-2.522 5.575-5.646 0-3.125-2.498-5.661-5.575-5.661H69.672v16.728h3.168V84.111h10.484c1.473 0 2.656 1.215 2.656 2.71 0 1.495-1.183 2.71-2.656 2.71l-8.932-.013 9.458 8.37h4.602l-6.364-5.42h1.447zm-33.36 5.421c-4.548 0-8.239-3.738-8.239-8.357 0-4.62 3.691-8.37 8.24-8.37h9.575c4.549 0 8.237 3.75 8.237 8.37 0 4.62-3.688 8.357-8.237 8.357h-9.576zm9.363-2.95c2.947 0 5.333-2.417 5.333-5.407s-2.387-5.42-5.333-5.42h-9.15c-2.946 0-5.334 2.43-5.334 5.42 0 2.99 2.388 5.407 5.333 5.407h9.151zm60.168 2.95c-4.549 0-8.244-3.738-8.244-8.357 0-4.62 3.695-8.37 8.244-8.37h11.373l-1.854 2.95h-9.309c-2.945 0-5.338 2.43-5.338 5.42 0 2.99 2.393 5.407 5.338 5.407h11.426l-1.867 2.95h-9.769zm38.747-2.95c-2.432 0-4.497-1.656-5.128-3.939h13.543l1.867-2.95h-15.41c.631-2.27 2.696-3.938 5.128-3.938h9.296l1.88-2.951h-11.387c-4.549 0-8.243 3.751-8.243 8.37 0 4.62 3.694 8.358 8.243 8.358h9.77l1.866-2.95h-11.425z" fill="#EA1B22"/></g><defs><filter id="filter0_d" x="9.879" y="11" width="193.734" height="154.69" filterUnits="userSpaceOnUse" color-interpolation-filters="sRGB"><feFlood flood-opacity="0" result="BackgroundImageFix"/><feColorMatrix in="SourceAlpha" values="0 0 0 0 0 0 0 0 0 0 0 0 0 0 0 0 0 0 127 0"/><feOffset dy="3.823"/><feGaussianBlur stdDeviation="1.434"/><feColorMatrix values="0 0 0 0 0 0 0 0 0 0 0 0 0 0 0 0 0 0 0.18 0"/><feBlend in2="BackgroundImageFix" result="effect1_dropShadow"/><feBlend in="SourceGraphic" in2="effect1_dropShadow" result="shape"/></filter><filter id="filter1_d" x="44.879" y="168" width="123.734" height="18.69" filterUnits="userSpaceOnUse" color-interpolation-filters="sRGB"><feFlood flood-opacity="0" result="BackgroundImageFix"/><feColorMatrix in="SourceAlpha" values="0 0 0 0 0 0 0 0 0 0 0 0 0 0 0 0 0 0 127 0"/><feOffset dy="3.823"/><feGaussianBlur stdDeviation="1.434"/><feColorMatrix values="0 0 0 0 0 0 0 0 0 0 0 0 0 0 0 0 0 0 0.18 0"/><feBlend in2="BackgroundImageFix" result="effect1_dropShadow"/><feBlend in="SourceGraphic" in2="effect1_dropShadow" result="shape"/></filter><clipPath id="clip0"><path fill="#fff" d="M41.906 81h128v17h-128z"/></clipPath></defs></svg>