<svg width="213" height="191" fill="none" xmlns="http://www.w3.org/2000/svg"><g filter="url(#filter0_d)"><rect x="12.119" y="11" width="188" height="148" rx="21" fill="#fff"/><rect x="18.619" y="17.5" width="175" height="135" rx="14.5" stroke="#0065EB" stroke-width="13"/></g><g filter="url(#filter1_d)"><rect x="47.119" y="168" width="118" height="12" rx="6" fill="#0065EB"/><rect x="50.119" y="171" width="112" height="6" rx="3" stroke="#0065EB" stroke-width="6"/></g><path d="M88.27 117.923c-16.676.001-30.21-13.706-30.21-30.643 0-16.938 13.534-30.692 30.21-30.692h35.11c16.679 0 30.202 13.754 30.202 30.692 0 16.937-13.523 30.643-30.203 30.643h-35.11zm34.329-10.818c10.804 0 19.554-8.86 19.554-19.826 0-10.964-8.75-19.873-19.554-19.873H89.046c-10.8 0-19.554 8.91-19.554 19.874 0 10.964 8.754 19.825 19.553 19.825H122.6z" fill="#EB292F"/><defs><filter id="filter0_d" x="9.252" y="11" width="193.734" height="154.69" filterUnits="userSpaceOnUse" color-interpolation-filters="sRGB"><feFlood flood-opacity="0" result="BackgroundImageFix"/><feColorMatrix in="SourceAlpha" values="0 0 0 0 0 0 0 0 0 0 0 0 0 0 0 0 0 0 127 0"/><feOffset dy="3.823"/><feGaussianBlur stdDeviation="1.434"/><feColorMatrix values="0 0 0 0 0 0 0 0 0 0 0 0 0 0 0 0 0 0 0.18 0"/><feBlend in2="BackgroundImageFix" result="effect1_dropShadow"/><feBlend in="SourceGraphic" in2="effect1_dropShadow" result="shape"/></filter><filter id="filter1_d" x="44.252" y="168" width="123.734" height="18.69" filterUnits="userSpaceOnUse" color-interpolation-filters="sRGB"><feFlood flood-opacity="0" result="BackgroundImageFix"/><feColorMatrix in="SourceAlpha" values="0 0 0 0 0 0 0 0 0 0 0 0 0 0 0 0 0 0 127 0"/><feOffset dy="3.823"/><feGaussianBlur stdDeviation="1.434"/><feColorMatrix values="0 0 0 0 0 0 0 0 0 0 0 0 0 0 0 0 0 0 0.18 0"/><feBlend in2="BackgroundImageFix" result="effect1_dropShadow"/><feBlend in="SourceGraphic" in2="effect1_dropShadow" result="shape"/></filter></defs></svg>