<svg width="244" height="176" fill="none" xmlns="http://www.w3.org/2000/svg"><g filter="url(#filter0_d)"><mask id="a" maskUnits="userSpaceOnUse" x="12.5" y="9" width="219" height="158" fill="#000"><path fill="#fff" d="M12.5 9h219v158h-219z"/><path fill-rule="evenodd" clip-rule="evenodd" d="M182.559 22H34.5a9 9 0 00-9 9v114a9 9 0 009 9h175a9 9 0 009-9V59.953L182.559 22z"/></mask><path fill-rule="evenodd" clip-rule="evenodd" d="M182.559 22H34.5a9 9 0 00-9 9v114a9 9 0 009 9h175a9 9 0 009-9V59.953L182.559 22z" fill="#fff"/><path d="M182.559 22l9.439-8.939L188.152 9h-5.593v13zM218.5 59.953h13v-5.178l-3.561-3.76-9.439 8.938zM34.5 35h148.059V9H34.5v26zm4-4a4 4 0 01-4 4V9c-12.15 0-22 9.85-22 22h26zm0 114V31h-26v114h26zm-4-4a4 4 0 014 4h-26c0 12.15 9.85 22 22 22v-26zm175 0h-175v26h175v-26zm-4 4a4 4 0 014-4v26c12.15 0 22-9.85 22-22h-26zm0-85.047V145h26V59.953h-26zm22.439-8.938L191.998 13.06 173.12 30.94l35.941 37.953 18.878-17.877z" fill="#14B611" mask="url(#a)"/></g><g clip-path="url(#clip0)"><path d="M157.499 90.66c0-20.787-16.854-37.64-37.64-37.64-20.787 0-37.64 16.853-37.64 37.64 0 18.785 13.762 34.358 31.759 37.184v-26.302h-9.56V90.66h9.56v-8.295c0-9.432 5.621-14.646 14.218-14.646 4.118 0 8.426.736 8.426.736v9.263h-4.748c-4.674 0-6.135 2.9-6.135 5.88v7.062h10.439l-1.668 10.882h-8.771v26.302c17.997-2.821 31.76-18.393 31.76-37.184z" fill="#1977F3"/><path d="M134.51 101.543l1.667-10.883h-10.438v-7.061c0-2.975 1.456-5.881 6.135-5.881h4.748v-9.263s-4.309-.736-8.427-.736c-8.596 0-14.217 5.209-14.217 14.647v8.294h-9.56v10.883h9.56v26.302c1.916.301 3.879.455 5.88.455s3.965-.159 5.881-.455v-26.302h8.771z" fill="#FEFEFE"/></g><defs><clipPath id="clip0"><path fill="#fff" d="M82.219 53.02h75.28v75.28h-75.28z"/></clipPath><filter id="filter0_d" x="9.633" y="9" width="224.734" height="164.69" filterUnits="userSpaceOnUse" color-interpolation-filters="sRGB"><feFlood flood-opacity="0" result="BackgroundImageFix"/><feColorMatrix in="SourceAlpha" values="0 0 0 0 0 0 0 0 0 0 0 0 0 0 0 0 0 0 127 0"/><feOffset dy="3.823"/><feGaussianBlur stdDeviation="1.434"/><feColorMatrix values="0 0 0 0 0 0 0 0 0 0 0 0 0 0 0 0 0 0 0.18 0"/><feBlend in2="BackgroundImageFix" result="effect1_dropShadow"/><feBlend in="SourceGraphic" in2="effect1_dropShadow" result="shape"/></filter></defs></svg>