<svg width="244" height="176" fill="none" xmlns="http://www.w3.org/2000/svg"><g filter="url(#filter0_d)"><mask id="a" maskUnits="userSpaceOnUse" x="12.5" y="9" width="219" height="158" fill="#000"><path fill="#fff" d="M12.5 9h219v158h-219z"/><path fill-rule="evenodd" clip-rule="evenodd" d="M182.559 22H34.5a9 9 0 00-9 9v114a9 9 0 009 9h175a9 9 0 009-9V59.953L182.559 22z"/></mask><path fill-rule="evenodd" clip-rule="evenodd" d="M182.559 22H34.5a9 9 0 00-9 9v114a9 9 0 009 9h175a9 9 0 009-9V59.953L182.559 22z" fill="#fff"/><path d="M182.559 22l9.439-8.939L188.152 9h-5.593v13zM218.5 59.953h13v-5.178l-3.561-3.76-9.439 8.938zM34.5 35h148.059V9H34.5v26zm4-4a4 4 0 01-4 4V9c-12.15 0-22 9.85-22 22h26zm0 114V31h-26v114h26zm-4-4a4 4 0 014 4h-26c0 12.15 9.85 22 22 22v-26zm175 0h-175v26h175v-26zm-4 4a4 4 0 014-4v26c12.15 0 22-9.85 22-22h-26zm0-85.047V145h26V59.953h-26zm22.439-8.938L191.998 13.06 173.12 30.94l35.941 37.953 18.878-17.877z" fill="#14B611" mask="url(#a)"/></g><path d="M85.595 92.631c0 3.72-.883 6.608-2.647 8.665-1.752 2.057-4.19 3.085-7.313 3.085-3.11 0-5.554-1.016-7.331-3.047-1.778-2.044-2.679-4.9-2.704-8.57v-4.741c0-3.809.882-6.78 2.647-8.912 1.764-2.146 4.214-3.218 7.35-3.218 3.085 0 5.516 1.053 7.294 3.16 1.777 2.095 2.678 5.04 2.704 8.837v4.741zm-5.618-4.646c0-2.501-.355-4.361-1.066-5.58-.711-1.219-1.816-1.828-3.314-1.828-1.485 0-2.583.59-3.294 1.771-.711 1.168-1.08 2.952-1.105 5.351v4.932c0 2.425.362 4.215 1.086 5.37.723 1.143 1.84 1.714 3.351 1.714 1.46 0 2.546-.558 3.257-1.675.71-1.13 1.072-2.876 1.085-5.237v-4.818zM105.399 94.345c0 3.237-.558 5.719-1.675 7.446-1.105 1.727-2.755 2.59-4.952 2.59-1.675 0-3.021-.679-4.037-2.038v9.579h-5.389V83.396h4.99l.19 1.885c1.028-1.511 2.431-2.266 4.208-2.266 2.197 0 3.847.8 4.952 2.4 1.117 1.599 1.688 4.049 1.713 7.35v1.58zm-5.37-1.352c0-1.993-.222-3.402-.666-4.227-.432-.826-1.168-1.238-2.21-1.238-1.104 0-1.91.463-2.418 1.39v9.655c.483.888 1.302 1.333 2.457 1.333 1.066 0 1.803-.45 2.209-1.352.419-.902.628-2.305.628-4.209v-1.352zM116.978 104.381c-2.768 0-4.926-.825-6.475-2.476-1.549-1.65-2.323-4.011-2.323-7.084v-1.637c0-3.25.711-5.758 2.132-7.522 1.422-1.765 3.46-2.647 6.113-2.647 2.59 0 4.539.831 5.846 2.494 1.308 1.65 1.975 4.1 2 7.35v2.648H113.55c.076 1.523.412 2.64 1.009 3.351.597.699 1.517 1.048 2.761 1.048 1.803 0 3.307-.616 4.513-1.847l2.114 3.256c-.66.914-1.618 1.657-2.875 2.228-1.257.559-2.622.838-4.094.838zm-3.39-12.645h5.389v-.495c-.025-1.231-.228-2.164-.609-2.8-.381-.634-1.041-.951-1.981-.951-.939 0-1.625.336-2.056 1.009-.419.673-.667 1.752-.743 3.237zM132.25 83.395l.152 2.038c1.219-1.612 2.812-2.418 4.78-2.418 3.542 0 5.364 2.482 5.465 7.445V104h-5.408V90.86c0-1.168-.177-2.012-.533-2.532-.343-.534-.952-.8-1.828-.8-.978 0-1.739.501-2.285 1.504V104h-5.408V83.395h5.065zM152.626 104h-5.599V76.273h5.599V104zM157.33 104V76.273h7.331c3.237 0 5.815 1.029 7.732 3.085 1.929 2.057 2.913 4.875 2.951 8.456v4.494c0 3.643-.965 6.506-2.894 8.588-1.917 2.069-4.564 3.104-7.941 3.104h-7.179zm5.598-23.061v18.415h1.676c1.866 0 3.18-.49 3.942-1.467.762-.99 1.162-2.691 1.2-5.103v-4.818c0-2.59-.362-4.393-1.086-5.408-.723-1.029-1.955-1.568-3.694-1.619h-2.038z" fill="#3F3F39"/><defs><filter id="filter0_d" x="9.633" y="9" width="224.734" height="164.69" filterUnits="userSpaceOnUse" color-interpolation-filters="sRGB"><feFlood flood-opacity="0" result="BackgroundImageFix"/><feColorMatrix in="SourceAlpha" values="0 0 0 0 0 0 0 0 0 0 0 0 0 0 0 0 0 0 127 0"/><feOffset dy="3.823"/><feGaussianBlur stdDeviation="1.434"/><feColorMatrix values="0 0 0 0 0 0 0 0 0 0 0 0 0 0 0 0 0 0 0.18 0"/><feBlend in2="BackgroundImageFix" result="effect1_dropShadow"/><feBlend in="SourceGraphic" in2="effect1_dropShadow" result="shape"/></filter></defs></svg>