<svg width="243" height="176" fill="none" xmlns="http://www.w3.org/2000/svg"><g filter="url(#filter0_d)"><mask id="a" maskUnits="userSpaceOnUse" x="12" y="9" width="219" height="158" fill="#000"><path fill="#fff" d="M12 9h219v158H12z"/><path fill-rule="evenodd" clip-rule="evenodd" d="M182.059 22H34a9 9 0 00-9 9v114a9 9 0 009 9h175a9 9 0 009-9V59.953L182.059 22z"/></mask><path fill-rule="evenodd" clip-rule="evenodd" d="M182.059 22H34a9 9 0 00-9 9v114a9 9 0 009 9h175a9 9 0 009-9V59.953L182.059 22z" fill="#fff"/><path d="M182.059 22l9.439-8.939L187.652 9h-5.593v13zM218 59.953h13v-5.178l-3.561-3.76L218 59.953zM34 35h148.059V9H34v26zm4-4a4 4 0 01-4 4V9c-12.15 0-22 9.85-22 22h26zm0 114V31H12v114h26zm-4-4a4 4 0 014 4H12c0 12.15 9.85 22 22 22v-26zm175 0H34v26h175v-26zm-4 4a4 4 0 014-4v26c12.15 0 22-9.85 22-22h-26zm0-85.047V145h26V59.953h-26zm22.439-8.938L191.498 13.06 172.62 30.94l35.941 37.953 18.878-17.877z" fill="#14B611" mask="url(#a)"/></g><path d="M88.128 96.726c0-1.13-.292-1.98-.876-2.552-.571-.584-1.619-1.187-3.142-1.81-2.78-1.053-4.78-2.284-5.999-3.694-1.218-1.421-1.828-3.097-1.828-5.027 0-2.336.825-4.208 2.476-5.618 1.663-1.422 3.77-2.132 6.322-2.132 1.701 0 3.218.361 4.551 1.085a7.344 7.344 0 013.066 3.028c.724 1.308 1.086 2.793 1.086 4.456h-5.58c0-1.295-.28-2.279-.838-2.952-.546-.685-1.34-1.028-2.38-1.028-.978 0-1.74.292-2.285.876-.546.571-.82 1.346-.82 2.323 0 .762.305 1.454.915 2.076.61.61 1.688 1.244 3.237 1.904 2.704.978 4.666 2.177 5.885 3.6 1.23 1.421 1.847 3.23 1.847 5.427 0 2.412-.768 4.297-2.305 5.655-1.536 1.359-3.624 2.038-6.265 2.038-1.79 0-3.421-.368-4.894-1.105-1.472-.736-2.628-1.79-3.466-3.161-.825-1.37-1.237-2.99-1.237-4.856h5.617c0 1.6.311 2.761.933 3.485.623.724 1.638 1.086 3.047 1.086 1.955 0 2.933-1.035 2.933-3.104zM110.713 98.325h-7.636L101.591 104h-5.922l8.664-27.727h5.123L118.178 104h-5.98l-1.485-5.675zm-6.418-4.665h5.18l-2.59-9.884-2.59 9.884zM128.099 76.273l5.237 20.053 5.218-20.053h7.312V104h-5.617v-7.503l.514-11.559L135.221 104h-3.808l-5.542-19.062.514 11.56V104h-5.598V76.273h7.312zM155.978 99.353h9.826V104h-15.425V76.273h5.599v23.08z" fill="#3F3F39"/><defs><filter id="filter0_d" x="9.133" y="9" width="224.734" height="164.69" filterUnits="userSpaceOnUse" color-interpolation-filters="sRGB"><feFlood flood-opacity="0" result="BackgroundImageFix"/><feColorMatrix in="SourceAlpha" values="0 0 0 0 0 0 0 0 0 0 0 0 0 0 0 0 0 0 127 0"/><feOffset dy="3.823"/><feGaussianBlur stdDeviation="1.434"/><feColorMatrix values="0 0 0 0 0 0 0 0 0 0 0 0 0 0 0 0 0 0 0.18 0"/><feBlend in2="BackgroundImageFix" result="effect1_dropShadow"/><feBlend in="SourceGraphic" in2="effect1_dropShadow" result="shape"/></filter></defs></svg>