<svg width="244" height="176" fill="none" xmlns="http://www.w3.org/2000/svg"><g filter="url(#filter0_d)"><mask id="a" maskUnits="userSpaceOnUse" x="12.5" y="9" width="219" height="158" fill="#000"><path fill="#fff" d="M12.5 9h219v158h-219z"/><path fill-rule="evenodd" clip-rule="evenodd" d="M182.559 22H34.5a9 9 0 00-9 9v114a9 9 0 009 9h175a9 9 0 009-9V59.953L182.559 22z"/></mask><path fill-rule="evenodd" clip-rule="evenodd" d="M182.559 22H34.5a9 9 0 00-9 9v114a9 9 0 009 9h175a9 9 0 009-9V59.953L182.559 22z" fill="#52BE50"/><path d="M182.559 22l9.439-8.939L188.152 9h-5.593v13zM218.5 59.953h13v-5.178l-3.561-3.76-9.439 8.938zM34.5 35h148.059V9H34.5v26zm4-4a4 4 0 01-4 4V9c-12.15 0-22 9.85-22 22h26zm0 114V31h-26v114h26zm-4-4a4 4 0 014 4h-26c0 12.15 9.85 22 22 22v-26zm175 0h-175v26h175v-26zm-4 4a4 4 0 014-4v26c12.15 0 22-9.85 22-22h-26zm0-85.047V145h26V59.953h-26zm22.439-8.938L191.998 13.06 173.12 30.94l35.941 37.953 18.878-17.877z" fill="#0DA00A" mask="url(#a)"/></g><path d="M78.192 85.273h5.599v19.196c0 2.691-.749 4.849-2.247 6.474-1.498 1.625-3.428 2.438-5.79 2.438-2.538 0-4.512-.756-5.922-2.266-1.409-1.511-2.113-3.612-2.113-6.303h5.617c0 2.615.807 3.922 2.419 3.922 1.625 0 2.437-1.51 2.437-4.532V85.273zM107.709 101.631c0 3.72-.882 6.608-2.647 8.665-1.752 2.057-4.189 3.085-7.313 3.085-3.11 0-5.554-1.016-7.331-3.047-1.777-2.044-2.679-4.9-2.704-8.569v-4.742c0-3.809.882-6.78 2.647-8.912 1.764-2.146 4.215-3.218 7.35-3.218 3.085 0 5.517 1.053 7.294 3.16 1.777 2.095 2.679 5.04 2.704 8.837v4.741zm-5.618-4.646c0-2.501-.355-4.361-1.066-5.58-.711-1.219-1.816-1.828-3.314-1.828-1.485 0-2.583.59-3.294 1.771-.71 1.168-1.08 2.952-1.105 5.351v4.932c0 2.425.362 4.215 1.086 5.37.724 1.143 1.84 1.714 3.352 1.714 1.46 0 2.545-.558 3.256-1.675.711-1.13 1.073-2.876 1.085-5.237v-4.818zM123.438 105.726c0-1.13-.292-1.981-.876-2.552-.571-.584-1.618-1.187-3.142-1.809-2.78-1.054-4.779-2.285-5.998-3.695-1.219-1.421-1.828-3.097-1.828-5.027 0-2.336.825-4.208 2.475-5.618 1.663-1.422 3.771-2.132 6.323-2.132 1.701 0 3.218.361 4.551 1.085a7.345 7.345 0 013.066 3.028c.723 1.308 1.085 2.793 1.085 4.456h-5.579c0-1.295-.28-2.279-.838-2.952-.546-.685-1.34-1.028-2.381-1.028-.977 0-1.739.292-2.285.876-.546.571-.819 1.346-.819 2.323 0 .762.305 1.454.914 2.076.61.61 1.689 1.244 3.238 1.904 2.704.978 4.665 2.177 5.884 3.599 1.231 1.422 1.847 3.231 1.847 5.428 0 2.412-.768 4.297-2.304 5.655-1.536 1.359-3.625 2.038-6.265 2.038-1.79 0-3.422-.368-4.894-1.105-1.473-.736-2.628-1.79-3.466-3.161-.825-1.371-1.238-2.99-1.238-4.856h5.618c0 1.6.311 2.762.933 3.485.622.724 1.638 1.086 3.047 1.086 1.955 0 2.932-1.035 2.932-3.104zM144.5 105.726c0-1.13-.292-1.981-.876-2.552-.571-.584-1.619-1.187-3.142-1.809-2.78-1.054-4.78-2.285-5.999-3.695-1.218-1.421-1.828-3.097-1.828-5.027 0-2.336.825-4.208 2.476-5.618 1.663-1.422 3.77-2.132 6.322-2.132 1.701 0 3.218.361 4.551 1.085a7.345 7.345 0 013.066 3.028c.724 1.308 1.086 2.793 1.086 4.456h-5.58c0-1.295-.279-2.279-.838-2.952-.546-.685-1.339-1.028-2.38-1.028-.978 0-1.739.292-2.285.876-.546.571-.819 1.346-.819 2.323 0 .762.305 1.454.914 2.076.609.61 1.688 1.244 3.237 1.904 2.704.978 4.666 2.177 5.885 3.599 1.231 1.422 1.847 3.231 1.847 5.428 0 2.412-.768 4.297-2.304 5.655-1.537 1.359-3.625 2.038-6.266 2.038-1.79 0-3.421-.368-4.894-1.105-1.472-.736-2.628-1.79-3.465-3.161-.826-1.371-1.238-2.99-1.238-4.856h5.617c0 1.6.311 2.762.934 3.485.622.724 1.637 1.086 3.046 1.086 1.955 0 2.933-1.035 2.933-3.104zM173.369 101.631c0 3.72-.882 6.608-2.647 8.665-1.752 2.057-4.189 3.085-7.312 3.085-3.111 0-5.555-1.016-7.332-3.047-1.777-2.044-2.679-4.9-2.704-8.569v-4.742c0-3.809.882-6.78 2.647-8.912 1.765-2.146 4.215-3.218 7.351-3.218 3.085 0 5.516 1.053 7.293 3.16 1.777 2.095 2.679 5.04 2.704 8.837v4.741zm-5.618-4.646c0-2.501-.355-4.361-1.066-5.58-.711-1.219-1.815-1.828-3.313-1.828-1.486 0-2.584.59-3.295 1.771-.711 1.168-1.079 2.952-1.104 5.351v4.932c0 2.425.361 4.215 1.085 5.37.724 1.143 1.841 1.714 3.352 1.714 1.46 0 2.545-.558 3.256-1.675.711-1.13 1.073-2.876 1.085-5.237v-4.818zM91.5 68.49v3.258c6.168-2.353 16.26-7.06 22.427-8.145 0 0 6.729-1.086 10.654 0 3.364 0 20.184 7.06 22.427 8.145 2.243 1.086 3.364-1.629 1.682-2.715-1.682-1.086-12.896-9.232-18.503-11.404-5.606-2.172-14.577-2.172-21.866 0-5.832 1.738-13.644 8.146-16.821 10.861z" fill="#fff"/><defs><filter id="filter0_d" x="9.633" y="9" width="224.734" height="164.69" filterUnits="userSpaceOnUse" color-interpolation-filters="sRGB"><feFlood flood-opacity="0" result="BackgroundImageFix"/><feColorMatrix in="SourceAlpha" values="0 0 0 0 0 0 0 0 0 0 0 0 0 0 0 0 0 0 127 0"/><feOffset dy="3.823"/><feGaussianBlur stdDeviation="1.434"/><feColorMatrix values="0 0 0 0 0 0 0 0 0 0 0 0 0 0 0 0 0 0 0.18 0"/><feBlend in2="BackgroundImageFix" result="effect1_dropShadow"/><feBlend in="SourceGraphic" in2="effect1_dropShadow" result="shape"/></filter></defs></svg>