<svg width="210" height="213" fill="none" xmlns="http://www.w3.org/2000/svg"><g filter="url(#filter0_d)"><rect x="8.762" y="10" width="193" height="193" rx="96.5" fill="#fff"/><rect x="15.262" y="16.5" width="180" height="180" rx="90" stroke="#830EF8" stroke-width="13"/></g><g clip-path="url(#clip0)"><path d="M137.362 65c4.345 0 7.9 3.557 7.9 7.905v63.238c0 4.347-3.555 7.905-7.9 7.905h-3.95V148h-15.8v-3.952h-23.7V148h-15.8v-3.952h-3.95c-4.345 0-7.9-3.558-7.9-7.905V72.905c0-4.348 3.555-7.905 7.9-7.905h63.2zm-11.85 39.524c0-3.953-1.185-7.905-3.16-11.067l5.925-5.928-5.53-5.534-5.925 5.929c-3.16-1.976-7.11-3.162-11.06-3.162s-7.9 1.186-11.06 3.162l-5.53-5.929-5.925 5.929 5.925 5.928c-1.975 2.767-3.16 6.719-3.16 10.672 0 3.952 1.185 7.905 3.16 11.066l-5.925 5.929 5.925 5.533 5.925-5.928c2.765 1.976 6.715 3.162 10.665 3.162 3.95 0 7.9-1.186 11.06-3.162l5.925 5.928 5.53-5.533-5.925-5.929c1.975-3.161 3.16-7.114 3.16-11.066zm-19.75-11.857c6.715 0 11.85 5.138 11.85 11.857 0 6.719-5.135 11.857-11.85 11.857s-11.85-5.138-11.85-11.857c0-6.72 5.135-11.857 11.85-11.857zm0 19.762c4.345 0 7.9-3.558 7.9-7.905 0-4.348-3.555-7.905-7.9-7.905-4.345 0-7.9 3.557-7.9 7.905 0 4.347 3.555 7.905 7.9 7.905z" fill="#393535"/></g><defs><clipPath id="clip0"><path fill="#fff" d="M66.262 65h79v83h-79z"/></clipPath><filter id="filter0_d" x="5.894" y="10" width="198.734" height="199.69" filterUnits="userSpaceOnUse" color-interpolation-filters="sRGB"><feFlood flood-opacity="0" result="BackgroundImageFix"/><feColorMatrix in="SourceAlpha" values="0 0 0 0 0 0 0 0 0 0 0 0 0 0 0 0 0 0 127 0"/><feOffset dy="3.823"/><feGaussianBlur stdDeviation="1.434"/><feColorMatrix values="0 0 0 0 0 0 0 0 0 0 0 0 0 0 0 0 0 0 0.18 0"/><feBlend in2="BackgroundImageFix" result="effect1_dropShadow"/><feBlend in="SourceGraphic" in2="effect1_dropShadow" result="shape"/></filter></defs></svg>