<svg width="229" height="191" fill="none" xmlns="http://www.w3.org/2000/svg"><g filter="url(#filter0_d)"><mask id="a" fill="#fff"><path fill-rule="evenodd" clip-rule="evenodd" d="M27 10c-8.284 0-15 6.716-15 15v141c0 8.284 6.716 15 15 15h175c8.284 0 15-6.716 15-15V44.028c0-8.285-6.716-15-15-15h-97.874L96.996 10H27z"/></mask><path fill-rule="evenodd" clip-rule="evenodd" d="M27 10c-8.284 0-15 6.716-15 15v141c0 8.284 6.716 15 15 15h175c8.284 0 15-6.716 15-15V44.028c0-8.285-6.716-15-15-15h-97.874L96.996 10H27z" fill="#fff"/><path d="M104.126 29.028l-12.174 4.561 3.162 8.439h9.012v-13zM96.996 10l12.173-4.562L106.007-3h-9.012v13zM25 25a2 2 0 012-2V-3C11.536-3-1 9.536-1 25h26zm0 19.028V25H-1v19.028h26zM25 82V44.028H-1V82h26zm0 84V82H-1v84h26zm2 2a2 2 0 01-2-2H-1c0 15.464 12.536 28 28 28v-26zm175 0H27v26h175v-26zm2-2a2 2 0 01-2 2v26c15.464 0 28-12.536 28-28h-26zm0-121.972V166h26V44.028h-26zm-2-2a2 2 0 012 2h26c0-15.464-12.536-28-28-28v26zm-97.874 0H202v-26h-97.874v26zM84.822 14.562l7.13 19.027 24.347-9.123-7.13-19.028-24.347 9.124zM27 23h69.995V-3H27v26z" fill="#FFC700" mask="url(#a)"/></g><g clip-path="url(#clip0)"><path d="M82 128.93V81.503L124.217 66l22.943 7.293v63.844l-22.943 6.875L82 128.93l42.217 5.049v-55.21l-27.533 6.385v37.394L82 128.93z" fill="#EB3C00"/></g><defs><clipPath id="clip0"><path fill="#fff" d="M82 66h65.16v78.008H82z"/></clipPath><filter id="filter0_d" x="9.133" y="10" width="210.734" height="177.69" filterUnits="userSpaceOnUse" color-interpolation-filters="sRGB"><feFlood flood-opacity="0" result="BackgroundImageFix"/><feColorMatrix in="SourceAlpha" values="0 0 0 0 0 0 0 0 0 0 0 0 0 0 0 0 0 0 127 0"/><feOffset dy="3.823"/><feGaussianBlur stdDeviation="1.434"/><feColorMatrix values="0 0 0 0 0 0 0 0 0 0 0 0 0 0 0 0 0 0 0.18 0"/><feBlend in2="BackgroundImageFix" result="effect1_dropShadow"/><feBlend in="SourceGraphic" in2="effect1_dropShadow" result="shape"/></filter></defs></svg>