<svg width="230" height="191" fill="none" xmlns="http://www.w3.org/2000/svg"><g filter="url(#filter0_d)"><mask id="a" fill="#fff"><path fill-rule="evenodd" clip-rule="evenodd" d="M27.334 10c-8.284 0-15 6.716-15 15v141c0 8.284 6.716 15 15 15h175c8.284 0 15-6.716 15-15V44.028c0-8.285-6.716-15-15-15H104.46L97.33 10H27.333z"/></mask><path fill-rule="evenodd" clip-rule="evenodd" d="M27.334 10c-8.284 0-15 6.716-15 15v141c0 8.284 6.716 15 15 15h175c8.284 0 15-6.716 15-15V44.028c0-8.285-6.716-15-15-15H104.46L97.33 10H27.333z" fill="#fff"/><path d="M104.46 29.028l-12.174 4.561 3.162 8.439h9.012v-13zM97.33 10l12.173-4.562L106.341-3h-9.012v13zM25.333 25a2 2 0 012-2V-3c-15.464 0-28 12.536-28 28h26zm0 19.028V25h-26v19.028h26zm0 37.972V44.028h-26V82h26zm0 84V82h-26v84h26zm2 2a2 2 0 01-2-2h-26c0 15.464 12.536 28 28 28v-26zm175 0h-175v26h175v-26zm2-2a2 2 0 01-2 2v26c15.464 0 28-12.536 28-28h-26zm0-121.972V166h26V44.028h-26zm-2-2a2 2 0 012 2h26c0-15.464-12.536-28-28-28v26zm-97.874 0h97.874v-26H104.46v26zM85.156 14.562l7.13 19.027 24.347-9.123-7.13-19.028-24.347 9.124zM27.334 23h69.995V-3H27.334v26z" fill="#FFC700" mask="url(#a)"/></g><g clip-path="url(#clip0)"><path fill-rule="evenodd" clip-rule="evenodd" d="M170.61 119.498h-.369v-2.211h.853c.271 0 .476.05.613.15.138.1.207.262.207.486 0 .199-.056.345-.169.438a.772.772 0 01-.418.165l.63.972h-.418l-.581-.945h-.348v.945zm.413-1.255c.069 0 .135-.002.198-.008a.419.419 0 00.166-.045.308.308 0 00.114-.104.349.349 0 00.044-.19.25.25 0 00-.047-.16.298.298 0 00-.116-.091.49.49 0 00-.158-.04 1.963 1.963 0 00-.168-.008h-.446v.646h.413zm1.977.112c0 .299-.053.572-.16.817a1.922 1.922 0 01-1.07 1.036 2.008 2.008 0 01-.758.145 2.07 2.07 0 01-.806-.153 1.874 1.874 0 01-1.043-1.052 2.085 2.085 0 01-.149-.793c0-.299.053-.571.16-.817.107-.245.252-.455.434-.63.183-.174.396-.31.639-.406.242-.096.497-.144.765-.144a2.027 2.027 0 011.393.55c.183.175.328.385.435.63.107.246.16.518.16.817zm-.434 0c0-.242-.04-.464-.12-.667a1.51 1.51 0 00-1.434-.983c-.221 0-.426.04-.616.12a1.502 1.502 0 00-.828.863c-.08.203-.12.425-.12.667 0 .228.036.442.109.641a1.507 1.507 0 00.804.879c.191.087.409.131.651.131.218 0 .42-.041.609-.121.188-.08.353-.193.494-.339.141-.146.251-.319.331-.52.08-.202.12-.425.12-.671zM79.144 104.7c0 1.867-.23 3.583-.688 5.148-.459 1.566-1.125 2.923-2 4.072a8.96 8.96 0 01-3.267 2.672c-1.305.631-2.802.947-4.494.947-1.29 0-2.443-.323-3.46-.969a7.03 7.03 0 01-2.387-2.478v10.255h-1.806a4.166 4.166 0 01-1.505-.28 3.974 3.974 0 01-1.29-.797 3.99 3.99 0 01-.903-1.25c-.23-.488-.344-1.048-.344-1.68v-14.046c0-1.925.222-3.691.666-5.3.445-1.608 1.14-2.987 2.086-4.136.946-1.15 2.15-2.04 3.612-2.672 1.462-.632 3.21-.947 5.245-.947 1.548 0 2.967.323 4.257.969 1.29.646 2.4 1.5 3.332 2.564a11.746 11.746 0 012.172 3.662c.516 1.379.774 2.801.774 4.266zm-5.934 1.508c0-2.758-.451-4.754-1.354-5.989-.903-1.236-2.286-1.853-4.15-1.853-1.605 0-2.83.625-3.676 1.874-.846 1.25-1.268 2.88-1.268 4.89 0 2.327.523 4.122 1.57 5.386 1.045 1.264 2.428 1.896 4.148 1.896 1.405 0 2.544-.567 3.419-1.702.874-1.134 1.311-2.635 1.311-4.502zm26.435 10.814c-1.204 0-2.157-.33-2.86-.991-.702-.66-1.053-1.623-1.053-2.886v-9.479c0-.948-.122-1.76-.366-2.435-.243-.675-.573-1.221-.989-1.637a3.908 3.908 0 00-1.462-.926 5.23 5.23 0 00-1.784-.302c-.459 0-.931.093-1.419.28-.487.187-.939.495-1.354.926-.416.431-.753.991-1.01 1.681-.259.689-.388 1.551-.388 2.585v13.184h-1.892c-1.376 0-2.379-.344-3.01-1.034-.63-.689-.945-1.637-.945-2.843V86h1.805c1.376 0 2.401.345 3.075 1.034.674.69 1.01 1.58 1.01 2.671v6.636c.201-.345.48-.697.839-1.056.358-.359.752-.69 1.182-.99.43-.302.903-.554 1.42-.755a4.344 4.344 0 011.59-.301c3.01 0 5.346.868 7.009 2.606 1.662 1.738 2.494 4.259 2.494 7.562v13.615h-1.892zm26.864-12.322c0 1.867-.229 3.583-.688 5.148-.458 1.566-1.125 2.923-1.999 4.072a8.96 8.96 0 01-3.268 2.672c-1.304.631-2.802.947-4.493.947-1.29 0-2.444-.323-3.462-.969a7.032 7.032 0 01-2.386-2.478v10.255h-1.806a4.165 4.165 0 01-2.795-1.077 4.01 4.01 0 01-.903-1.25c-.229-.488-.344-1.048-.344-1.68v-14.046c0-1.925.222-3.691.667-5.3.444-1.608 1.139-2.987 2.085-4.136.946-1.15 2.15-2.04 3.612-2.672 1.462-.632 3.21-.947 5.246-.947 1.548 0 2.967.323 4.257.969 1.289.646 2.4 1.5 3.332 2.564a11.757 11.757 0 012.171 3.662c.516 1.379.774 2.801.774 4.266zm-5.934 1.508c0-2.758-.451-4.754-1.354-5.989-.903-1.236-2.286-1.853-4.149-1.853-1.605 0-2.831.625-3.677 1.874-.845 1.25-1.268 2.88-1.268 4.89 0 2.327.523 4.122 1.569 5.386 1.047 1.264 2.43 1.896 4.15 1.896 1.404 0 2.544-.567 3.418-1.702.874-1.134 1.311-2.635 1.311-4.502zm29.144 1.68c0 1.494-.272 2.815-.817 3.964a8.586 8.586 0 01-2.214 2.908 9.57 9.57 0 01-3.225 1.788 12.178 12.178 0 01-3.849.604h-3.181c-5.476 0-8.213-2.341-8.213-7.023V88.714c.344-.114.831-.25 1.462-.409a40.928 40.928 0 012.042-.452 27.982 27.982 0 012.236-.345c.76-.086 1.441-.13 2.043-.13h3.568c1.405 0 2.695.18 3.87.54 1.175.358 2.193.875 3.053 1.55a7.032 7.032 0 011.999 2.456c.473.963.71 2.047.71 3.253 0 1.638-.416 2.98-1.247 4.03-.831 1.048-1.978 1.787-3.44 2.218a6.231 6.231 0 012.064.991c.631.46 1.182.984 1.655 1.573a6.926 6.926 0 011.097 1.917c.258.689.387 1.35.387 1.982zm-6.407-12.194c0-.631-.136-1.17-.408-1.615a3.097 3.097 0 00-1.054-1.056 4.692 4.692 0 00-1.462-.56 7.89 7.89 0 00-1.634-.172h-2.192a8.12 8.12 0 00-1.247.107c-.459.072-.889.137-1.29.194v6.679h4.514c1.319 0 2.444-.28 3.376-.84.931-.56 1.397-1.473 1.397-2.736zm.473 12.366c0-1.608-.408-2.714-1.225-3.317-.817-.604-2.086-.905-3.806-.905h-4.686v6.075c0 .517.243.955.731 1.314.487.359 1.103.539 1.849.539h2.407c1.606 0 2.795-.338 3.569-1.013.774-.675 1.161-1.572 1.161-2.693zm29.187-.172c0 1.494-.273 2.815-.817 3.964a8.575 8.575 0 01-2.215 2.908 9.551 9.551 0 01-3.225 1.788 12.172 12.172 0 01-3.848.604h-3.182c-5.475 0-8.212-2.341-8.212-7.023V88.714c.344-.114.831-.25 1.462-.409a40.68 40.68 0 012.042-.452 27.912 27.912 0 012.236-.345c.759-.086 1.44-.13 2.042-.13h3.569c1.405 0 2.695.18 3.87.54 1.175.358 2.193.875 3.053 1.55a7.032 7.032 0 011.999 2.456c.473.963.71 2.047.71 3.253 0 1.638-.416 2.98-1.247 4.03-.832 1.048-1.978 1.787-3.44 2.218a6.231 6.231 0 012.064.991c.63.46 1.182.984 1.655 1.573a6.926 6.926 0 011.097 1.917c.258.689.387 1.35.387 1.982zm-6.407-12.194c0-.631-.136-1.17-.409-1.615a3.086 3.086 0 00-1.053-1.056 4.692 4.692 0 00-1.462-.56 7.897 7.897 0 00-1.634-.172h-2.193c-.372 0-.788.036-1.247.107-.458.072-.888.137-1.29.194v6.679h4.515c1.319 0 2.444-.28 3.375-.84.932-.56 1.398-1.473 1.398-2.736zm.473 12.366c0-1.608-.409-2.714-1.226-3.317-.817-.604-2.085-.905-3.805-.905h-4.687v6.075c0 .517.244.955.731 1.314.488.359 1.104.539 1.849.539h2.408c1.605 0 2.795-.338 3.569-1.013.774-.675 1.161-1.572 1.161-2.693z" fill="#009BDF"/></g><defs><clipPath id="clip0"><path fill="#fff" d="M57 86h116v38.347H57z"/></clipPath><filter id="filter0_d" x="9.467" y="10" width="210.734" height="177.69" filterUnits="userSpaceOnUse" color-interpolation-filters="sRGB"><feFlood flood-opacity="0" result="BackgroundImageFix"/><feColorMatrix in="SourceAlpha" values="0 0 0 0 0 0 0 0 0 0 0 0 0 0 0 0 0 0 127 0"/><feOffset dy="3.823"/><feGaussianBlur stdDeviation="1.434"/><feColorMatrix values="0 0 0 0 0 0 0 0 0 0 0 0 0 0 0 0 0 0 0.18 0"/><feBlend in2="BackgroundImageFix" result="effect1_dropShadow"/><feBlend in="SourceGraphic" in2="effect1_dropShadow" result="shape"/></filter></defs></svg>