<svg width="230" height="191" fill="none" xmlns="http://www.w3.org/2000/svg"><g filter="url(#filter0_d)"><mask id="a" fill="#fff"><path fill-rule="evenodd" clip-rule="evenodd" d="M27.018 10c-8.285 0-15 6.716-15 15v141c0 8.284 6.715 15 15 15h175c8.284 0 15-6.716 15-15V44.028c0-8.285-6.716-15-15-15h-97.875L97.013 10H27.018z"/></mask><path fill-rule="evenodd" clip-rule="evenodd" d="M27.018 10c-8.285 0-15 6.716-15 15v141c0 8.284 6.715 15 15 15h175c8.284 0 15-6.716 15-15V44.028c0-8.285-6.716-15-15-15h-97.875L97.013 10H27.018z" fill="#fff"/><path d="M104.143 29.028L91.97 33.589l3.162 8.439h9.011v-13zM97.013 10l12.173-4.562L106.024-3h-9.011v13zM25.018 25a2 2 0 012-2V-3c-15.464 0-28 12.536-28 28h26zm0 19.028V25h-26v19.028h26zm0 37.972V44.028h-26V82h26zm0 84V82h-26v84h26zm2 2a2 2 0 01-2-2h-26c0 15.464 12.536 28 28 28v-26zm175 0h-175v26h175v-26zm2-2a2 2 0 01-2 2v26c15.464 0 28-12.536 28-28h-26zm0-121.972V166h26V44.028h-26zm-2-2a2 2 0 012 2h26c0-15.464-12.536-28-28-28v26zm-97.875 0h97.875v-26h-97.875v26zM84.84 14.562l7.13 19.027 24.347-9.123-7.131-19.028-24.346 9.124zM27.018 23h69.995V-3H27.018v26z" fill="#FFC700" mask="url(#a)"/></g><path d="M73.385 107.698l2.628-17.425h5.542L76.623 118h-5.618l-3.237-16.339-3.2 16.339h-5.636L53.98 90.273h5.58l2.609 17.406 3.256-17.406h4.704l3.256 17.425zM99.703 97.643c0 1.346-.286 2.539-.857 3.58a6.653 6.653 0 01-2.362 2.495 7.126 7.126 0 012.705 2.685c.66 1.13.99 2.463.99 3.999 0 2.463-.711 4.411-2.133 5.846-1.422 1.422-3.358 2.133-5.808 2.133-2.45 0-4.4-.711-5.846-2.133-1.448-1.435-2.171-3.383-2.171-5.846 0-1.536.33-2.876.99-4.018a6.958 6.958 0 012.723-2.666 6.605 6.605 0 01-2.38-2.495c-.572-1.041-.857-2.234-.857-3.58 0-2.425.679-4.323 2.037-5.694 1.359-1.37 3.18-2.056 5.466-2.056 2.31 0 4.138.692 5.484 2.075 1.346 1.384 2.019 3.276 2.019 5.675zm-7.465 16.263c.812 0 1.434-.343 1.866-1.029.444-.698.666-1.663.666-2.894 0-1.232-.228-2.196-.685-2.895-.457-.698-1.085-1.047-1.885-1.047s-1.435.349-1.905 1.047c-.457.699-.685 1.663-.685 2.895 0 1.231.228 2.196.685 2.894.47.686 1.118 1.029 1.943 1.029zm2.094-15.977c0-1.08-.177-1.943-.533-2.59-.343-.648-.876-.971-1.6-.971-.685 0-1.205.317-1.56.952-.356.622-.534 1.492-.534 2.609 0 1.091.178 1.974.533 2.647.356.66.889.99 1.6.99.71 0 1.238-.33 1.58-.99.343-.673.514-1.555.514-2.647zM104.654 103.413c0-1.269.406-2.317 1.219-3.142.812-.838 1.91-1.257 3.294-1.257 1.371 0 2.469.4 3.294 1.2.826.787 1.251 1.822 1.276 3.104v.819c0 1.295-.412 2.348-1.237 3.161-.813.8-1.911 1.2-3.295 1.2-1.346 0-2.437-.394-3.275-1.181-.826-.8-1.251-1.828-1.276-3.085v-.819zM132.666 106.688h-8.703V118h-5.598V90.273h15.348v4.666h-9.75v7.103h8.703v4.646zM151.233 106.003h-8.722v7.351h10.322V118h-15.92V90.273h15.881v4.666h-10.283v6.551h8.722v4.513zM156.07 118V90.273h7.331c3.238 0 5.815 1.029 7.732 3.085 1.929 2.057 2.913 4.875 2.951 8.455v4.495c0 3.643-.964 6.506-2.894 8.588-1.917 2.069-4.564 3.104-7.941 3.104h-7.179zm5.598-23.061v18.415h1.676c1.866 0 3.18-.489 3.942-1.467.762-.99 1.162-2.691 1.2-5.103v-4.818c0-2.59-.362-4.393-1.086-5.408-.723-1.029-1.955-1.568-3.694-1.619h-2.038z" fill="#3F3F39"/><defs><filter id="filter0_d" x="9.15" y="10" width="210.734" height="177.69" filterUnits="userSpaceOnUse" color-interpolation-filters="sRGB"><feFlood flood-opacity="0" result="BackgroundImageFix"/><feColorMatrix in="SourceAlpha" values="0 0 0 0 0 0 0 0 0 0 0 0 0 0 0 0 0 0 127 0"/><feOffset dy="3.823"/><feGaussianBlur stdDeviation="1.434"/><feColorMatrix values="0 0 0 0 0 0 0 0 0 0 0 0 0 0 0 0 0 0 0.18 0"/><feBlend in2="BackgroundImageFix" result="effect1_dropShadow"/><feBlend in="SourceGraphic" in2="effect1_dropShadow" result="shape"/></filter></defs></svg>