<svg width="235" height="230" fill="none" xmlns="http://www.w3.org/2000/svg"><g filter="url(#filter0_d)" clip-rule="evenodd"><path fill-rule="evenodd" d="M135.414 42.14l34.317.122c11.098 0 21.002 9.722 21.002 20.795v38.753c16.178-.048 23.767 13.166 23.767 29.446 0 16.268-7.589 29.433-23.353 29.433-.146 0-.414 30.857-.414 30.857 0 11.048-9.904 20.454-21.002 20.454l-33.026-.426c-.195-16.085-12.864-29.08-28.518-29.08-15.642 0-28.3 12.982-28.506 29.08H40.6c-11.098 0-20.101-8.955-20.101-20.016V63.057c0-11.06 9.003-21.233 20.1-21.233l37.96.134C80.253 27.819 92.265 18 106.98 18c14.801 0 26.825 9.892 28.433 24.14z" fill="#fff"/><path d="M135.414 42.14l34.317.122c11.098 0 21.002 9.722 21.002 20.795v38.753c16.178-.048 23.767 13.166 23.767 29.446 0 16.268-7.589 29.433-23.353 29.433-.146 0-.414 30.857-.414 30.857 0 11.048-9.904 20.454-21.002 20.454l-33.026-.426c-.195-16.085-12.864-29.08-28.518-29.08-15.642 0-28.3 12.982-28.506 29.08H40.6c-11.098 0-20.101-8.955-20.101-20.016V63.057c0-11.06 9.003-21.233 20.1-21.233l37.96.134C80.253 27.819 92.265 18 106.98 18c14.801 0 26.825 9.892 28.433 24.14z" stroke="#F40075" stroke-width="13"/></g><g clip-path="url(#clip0)"><path d="M145.739 120.248c0-3.155-.253-5.457-.8-7.845h-35.585v14.241h20.887c-.421 3.54-2.695 8.87-7.748 12.451l-.071.477 11.251 8.825.78.079c7.159-6.694 11.286-16.544 11.286-28.228" fill="#4285F4"/><path d="M109.353 157.772c10.233 0 18.824-3.412 25.099-9.296l-11.96-9.381c-3.201 2.26-7.496 3.838-13.139 3.838-10.023 0-18.53-6.695-21.562-15.947l-.444.038-11.7 9.167-.153.431c6.233 12.536 19.035 21.15 33.859 21.15z" fill="#34A853"/><path d="M87.79 126.986a23.895 23.895 0 01-1.262-7.59c0-2.644.463-5.203 1.22-7.59l-.02-.509-11.846-9.315-.388.187c-2.569 5.202-4.043 11.044-4.043 17.227 0 6.182 1.474 12.024 4.043 17.226l12.297-9.636" fill="#FBBC05"/><path d="M109.353 95.858c7.117 0 11.918 3.113 14.655 5.714l10.697-10.575c-6.57-6.182-15.119-9.977-25.352-9.977-14.824 0-27.626 8.613-33.859 21.149l12.255 9.637c3.074-9.253 11.581-15.948 21.604-15.948" fill="#EB4335"/></g><defs><clipPath id="clip0"><path fill="#fff" d="M71.447 81.02h74.33v77.017h-74.33z"/></clipPath><filter id="filter0_d" x="11.133" y="11.5" width="212.735" height="213.69" filterUnits="userSpaceOnUse" color-interpolation-filters="sRGB"><feFlood flood-opacity="0" result="BackgroundImageFix"/><feColorMatrix in="SourceAlpha" values="0 0 0 0 0 0 0 0 0 0 0 0 0 0 0 0 0 0 127 0"/><feOffset dy="3.823"/><feGaussianBlur stdDeviation="1.434"/><feColorMatrix values="0 0 0 0 0 0 0 0 0 0 0 0 0 0 0 0 0 0 0.18 0"/><feBlend in2="BackgroundImageFix" result="effect1_dropShadow"/><feBlend in="SourceGraphic" in2="effect1_dropShadow" result="shape"/></filter></defs></svg>