<svg width="235" height="230" fill="none" xmlns="http://www.w3.org/2000/svg"><g filter="url(#filter0_d)" clip-rule="evenodd"><path fill-rule="evenodd" d="M135.281 42.14l34.317.122c11.098 0 21.002 9.722 21.002 20.795v38.753c16.178-.048 23.767 13.166 23.767 29.446 0 16.268-7.589 29.433-23.353 29.433-.146 0-.414 30.857-.414 30.857 0 11.048-9.904 20.454-21.002 20.454l-33.026-.426c-.195-16.085-12.864-29.08-28.518-29.08-15.642 0-28.3 12.982-28.506 29.08h-39.08c-11.098 0-20.1-8.955-20.1-20.016V63.057c0-11.06 9.002-21.233 20.1-21.233l37.96.134C80.12 27.819 92.131 18 106.847 18c14.801 0 26.825 9.892 28.433 24.14z" fill="#fff"/><path d="M135.281 42.14l34.317.122c11.098 0 21.002 9.722 21.002 20.795v38.753c16.178-.048 23.767 13.166 23.767 29.446 0 16.268-7.589 29.433-23.353 29.433-.146 0-.414 30.857-.414 30.857 0 11.048-9.904 20.454-21.002 20.454l-33.026-.426c-.195-16.085-12.864-29.08-28.518-29.08-15.642 0-28.3 12.982-28.506 29.08h-39.08c-11.098 0-20.1-8.955-20.1-20.016V63.057c0-11.06 9.002-21.233 20.1-21.233l37.96.134C80.12 27.819 92.131 18 106.847 18c14.801 0 26.825 9.892 28.433 24.14z" stroke="#F40075" stroke-width="13"/></g><path d="M74.462 126.631c0 3.72-.882 6.608-2.647 8.665-1.752 2.057-4.19 3.085-7.313 3.085-3.11 0-5.554-1.016-7.331-3.047-1.777-2.044-2.679-4.9-2.704-8.569v-4.742c0-3.809.882-6.779 2.647-8.912 1.764-2.146 4.215-3.218 7.35-3.218 3.085 0 5.517 1.053 7.294 3.161 1.777 2.094 2.678 5.04 2.704 8.836v4.741zm-5.618-4.646c0-2.501-.355-4.361-1.066-5.58-.711-1.218-1.816-1.828-3.314-1.828-1.485 0-2.583.59-3.294 1.771-.711 1.168-1.08 2.952-1.105 5.351v4.932c0 2.425.362 4.215 1.086 5.37.723 1.143 1.84 1.714 3.351 1.714 1.46 0 2.546-.558 3.257-1.675.71-1.13 1.073-2.876 1.085-5.237v-4.818zM94.267 128.345c0 3.238-.559 5.719-1.676 7.446-1.105 1.727-2.755 2.59-4.951 2.59-1.676 0-3.022-.679-4.037-2.038v9.579h-5.39v-28.526h4.99l.19 1.885c1.028-1.511 2.431-2.266 4.209-2.266 2.196 0 3.846.799 4.95 2.399 1.118 1.6 1.69 4.05 1.715 7.351v1.58zm-5.37-1.352c0-1.993-.223-3.402-.667-4.227-.432-.826-1.168-1.238-2.209-1.238-1.105 0-1.91.463-2.418 1.39v9.655c.482.888 1.3 1.333 2.456 1.333 1.067 0 1.803-.451 2.21-1.352.418-.902.627-2.304.627-4.209v-1.352zM105.845 138.381c-2.768 0-4.926-.825-6.475-2.476-1.549-1.65-2.323-4.011-2.323-7.084v-1.637c0-3.25.71-5.758 2.133-7.522 1.422-1.765 3.459-2.647 6.112-2.647 2.59 0 4.539.831 5.847 2.494 1.307 1.651 1.974 4.101 1.999 7.351v2.647h-10.721c.076 1.523.413 2.64 1.009 3.351.597.699 1.517 1.048 2.762 1.048 1.802 0 3.307-.616 4.513-1.847l2.113 3.256c-.66.914-1.618 1.657-2.875 2.228-1.257.559-2.622.838-4.094.838zm-3.39-12.645h5.389v-.495c-.025-1.231-.228-2.164-.609-2.799-.381-.635-1.041-.952-1.981-.952-.939 0-1.625.336-2.056 1.009-.419.673-.667 1.752-.743 3.237zM121.117 117.396l.153 2.037c1.218-1.612 2.812-2.418 4.779-2.418 3.542 0 5.364 2.482 5.466 7.445V138h-5.409v-13.14c0-1.168-.177-2.012-.533-2.532-.343-.534-.952-.8-1.828-.8-.977 0-1.739.501-2.285 1.504V138h-5.408v-20.604h5.065zM141.493 138h-5.598v-27.727h5.598V138zM146.197 138v-27.727h7.331c3.238 0 5.815 1.029 7.732 3.085 1.929 2.057 2.913 4.875 2.951 8.455v4.495c0 3.643-.964 6.506-2.894 8.588-1.917 2.069-4.564 3.104-7.941 3.104h-7.179zm5.598-23.061v18.415h1.676c1.866 0 3.18-.489 3.942-1.467.762-.99 1.162-2.691 1.2-5.103v-4.818c0-2.59-.362-4.393-1.086-5.408-.723-1.029-1.955-1.568-3.694-1.619h-2.038z" fill="#3F3F39"/><defs><filter id="filter0_d" x="11" y="11.5" width="212.735" height="213.69" filterUnits="userSpaceOnUse" color-interpolation-filters="sRGB"><feFlood flood-opacity="0" result="BackgroundImageFix"/><feColorMatrix in="SourceAlpha" values="0 0 0 0 0 0 0 0 0 0 0 0 0 0 0 0 0 0 127 0"/><feOffset dy="3.823"/><feGaussianBlur stdDeviation="1.434"/><feColorMatrix values="0 0 0 0 0 0 0 0 0 0 0 0 0 0 0 0 0 0 0.18 0"/><feBlend in2="BackgroundImageFix" result="effect1_dropShadow"/><feBlend in="SourceGraphic" in2="effect1_dropShadow" result="shape"/></filter></defs></svg>