<svg width="235" height="230" fill="none" xmlns="http://www.w3.org/2000/svg"><g filter="url(#filter0_d)" clip-rule="evenodd"><path fill-rule="evenodd" d="M135.332 42.14l34.317.122c11.098 0 21.002 9.722 21.002 20.795v38.753c16.178-.048 23.767 13.166 23.767 29.446 0 16.268-7.589 29.433-23.353 29.433-.146 0-.414 30.857-.414 30.857 0 11.048-9.904 20.454-21.002 20.454l-33.026-.426c-.195-16.085-12.864-29.08-28.518-29.08-15.642 0-28.3 12.982-28.506 29.08h-39.08c-11.098 0-20.101-8.955-20.101-20.016V63.057c0-11.06 9.003-21.233 20.1-21.233l37.96.134C80.17 27.819 92.183 18 106.899 18c14.801 0 26.825 9.892 28.433 24.14z" fill="#fff"/><path d="M135.332 42.14l34.317.122c11.098 0 21.002 9.722 21.002 20.795v38.753c16.178-.048 23.767 13.166 23.767 29.446 0 16.268-7.589 29.433-23.353 29.433-.146 0-.414 30.857-.414 30.857 0 11.048-9.904 20.454-21.002 20.454l-33.026-.426c-.195-16.085-12.864-29.08-28.518-29.08-15.642 0-28.3 12.982-28.506 29.08h-39.08c-11.098 0-20.101-8.955-20.101-20.016V63.057c0-11.06 9.003-21.233 20.1-21.233l37.96.134C80.17 27.819 92.183 18 106.899 18c14.801 0 26.825 9.892 28.433 24.14z" stroke="#F40075" stroke-width="13"/></g><g clip-path="url(#clip0)"><path d="M112.16 106.925c-1.701.731-4.618.731-6.32 0L74.483 94.497c-1.701-.731-1.701-1.828 0-2.56L105.84 79.51c1.702-.731 4.619-.731 6.32 0l31.357 12.428c1.702.73 1.702 1.828 0 2.558l-31.357 12.429z" fill="#E10213"/><path d="M107.177 157.977c0 1.828-1.459 2.802-3.16 2.193L72.66 147.742c-1.701-.731-3.16-2.802-3.16-4.63v-43.62c0-1.828 1.459-2.802 3.16-2.193l31.357 12.428c1.701.731 3.16 2.802 3.16 4.63v43.62z" fill="#383231"/><path d="M110.701 157.977c0 1.828 1.459 2.802 3.16 2.193l31.357-12.428c1.702-.731 3.16-2.802 3.16-4.63v-43.62c0-1.828-1.458-2.802-3.16-2.193l-31.357 12.428c-1.701.731-3.16 2.802-3.16 4.63v43.62z" fill="#B4B4B5"/></g><defs><clipPath id="clip0"><path fill="#fff" d="M69.5 78.535h79v82.854h-79z"/></clipPath><filter id="filter0_d" x="11.051" y="11.5" width="212.735" height="213.69" filterUnits="userSpaceOnUse" color-interpolation-filters="sRGB"><feFlood flood-opacity="0" result="BackgroundImageFix"/><feColorMatrix in="SourceAlpha" values="0 0 0 0 0 0 0 0 0 0 0 0 0 0 0 0 0 0 127 0"/><feOffset dy="3.823"/><feGaussianBlur stdDeviation="1.434"/><feColorMatrix values="0 0 0 0 0 0 0 0 0 0 0 0 0 0 0 0 0 0 0.18 0"/><feBlend in2="BackgroundImageFix" result="effect1_dropShadow"/><feBlend in="SourceGraphic" in2="effect1_dropShadow" result="shape"/></filter></defs></svg>