<svg width="234" height="230" fill="none" xmlns="http://www.w3.org/2000/svg"><g filter="url(#filter0_d)" clip-rule="evenodd"><path fill-rule="evenodd" d="M134.914 42.14l34.317.122c11.098 0 21.002 9.722 21.002 20.795v38.753c16.178-.048 23.767 13.166 23.767 29.446 0 16.268-7.589 29.433-23.353 29.433-.146 0-.414 30.857-.414 30.857 0 11.048-9.904 20.454-21.002 20.454l-33.026-.426c-.195-16.085-12.864-29.08-28.518-29.08-15.642 0-28.3 12.982-28.506 29.08H40.1c-11.098 0-20.101-8.955-20.101-20.016V63.057c0-11.06 9.003-21.233 20.1-21.233l37.96.134C79.753 27.819 91.765 18 106.48 18c14.801 0 26.825 9.892 28.433 24.14z" fill="#F162A7"/><path d="M134.914 42.14l34.317.122c11.098 0 21.002 9.722 21.002 20.795v38.753c16.178-.048 23.767 13.166 23.767 29.446 0 16.268-7.589 29.433-23.353 29.433-.146 0-.414 30.857-.414 30.857 0 11.048-9.904 20.454-21.002 20.454l-33.026-.426c-.195-16.085-12.864-29.08-28.518-29.08-15.642 0-28.3 12.982-28.506 29.08H40.1c-11.098 0-20.101-8.955-20.101-20.016V63.057c0-11.06 9.003-21.233 20.1-21.233l37.96.134C79.753 27.819 91.765 18 106.48 18c14.801 0 26.825 9.892 28.433 24.14z" stroke="#F40075" stroke-width="13"/></g><path d="M77.128 132.726c0-1.13-.292-1.981-.876-2.552-.571-.584-1.619-1.187-3.142-1.809-2.78-1.054-4.78-2.285-5.999-3.695-1.218-1.421-1.828-3.097-1.828-5.027 0-2.336.825-4.208 2.476-5.618 1.663-1.421 3.77-2.132 6.322-2.132 1.701 0 3.218.361 4.551 1.085a7.343 7.343 0 013.066 3.028c.724 1.307 1.086 2.793 1.086 4.456h-5.58c0-1.295-.28-2.279-.838-2.952-.546-.685-1.34-1.028-2.38-1.028-.978 0-1.74.292-2.285.876-.546.571-.82 1.346-.82 2.323 0 .762.305 1.454.915 2.076.61.609 1.688 1.244 3.237 1.904 2.704.978 4.666 2.177 5.885 3.599 1.23 1.422 1.847 3.231 1.847 5.428 0 2.412-.768 4.297-2.305 5.655-1.536 1.359-3.624 2.038-6.265 2.038-1.79 0-3.421-.368-4.894-1.105-1.472-.736-2.628-1.79-3.466-3.161-.825-1.371-1.237-2.99-1.237-4.856h5.617c0 1.6.311 2.762.933 3.485.623.724 1.638 1.086 3.047 1.086 1.955 0 2.933-1.035 2.933-3.104zM99.713 134.325h-7.636L90.59 140H84.67l8.665-27.727h5.122L107.178 140h-5.98l-1.485-5.675zm-6.418-4.665h5.18l-2.59-9.884-2.59 9.884zM117.099 112.273l5.237 20.053 5.218-20.053h7.312V140h-5.617v-7.503l.514-11.559L124.221 140h-3.808l-5.542-19.062.514 11.559V140h-5.598v-27.727h7.312zM144.978 135.354h9.826V140h-15.425v-27.727h5.599v23.081zM81 96.49v3.258c6.168-2.353 16.26-7.06 22.427-8.145 0 0 6.729-1.086 10.654 0 3.364 0 20.184 7.06 22.427 8.145 2.243 1.086 3.364-1.629 1.682-2.715-1.682-1.086-12.896-9.232-18.503-11.404-5.606-2.172-14.577-2.172-21.866 0C91.99 87.367 84.177 93.775 81 96.49z" fill="#fff"/><defs><filter id="filter0_d" x="10.633" y="11.5" width="212.735" height="213.69" filterUnits="userSpaceOnUse" color-interpolation-filters="sRGB"><feFlood flood-opacity="0" result="BackgroundImageFix"/><feColorMatrix in="SourceAlpha" values="0 0 0 0 0 0 0 0 0 0 0 0 0 0 0 0 0 0 127 0"/><feOffset dy="3.823"/><feGaussianBlur stdDeviation="1.434"/><feColorMatrix values="0 0 0 0 0 0 0 0 0 0 0 0 0 0 0 0 0 0 0.18 0"/><feBlend in2="BackgroundImageFix" result="effect1_dropShadow"/><feBlend in="SourceGraphic" in2="effect1_dropShadow" result="shape"/></filter></defs></svg>