<svg width="212" height="228" fill="none" xmlns="http://www.w3.org/2000/svg"><g filter="url(#filter0_d)"><path d="M182.941 132.247c3.629 2.054 5.975 5.115 7.04 9.183 1.065 4.068.572 7.919-1.479 11.553l-7.573 13.034c-2.051 3.634-5.108 5.984-9.17 7.05-4.063 1.066-7.908.573-11.537-1.481h-22.809l-8.667 18.247c0 4.108-1.498 7.663-4.496 10.664-2.998 3.002-6.548 4.503-10.65 4.503H98.454c-4.102 0-7.652-1.501-10.65-4.503-2.997-3.001-4.496-6.556-4.496-10.664l-6.252-20.044-25.223 1.797c-3.629 2.054-7.474 2.547-11.537 1.481-4.063-1.066-7.12-3.416-9.17-7.05l-7.574-13.034c-2.05-3.634-2.544-7.485-1.479-11.553 1.065-4.068 3.412-7.129 7.04-9.183L40.297 114 29.114 95.753c-3.629-2.054-5.976-5.115-7.04-9.183-1.066-4.069-.573-7.92 1.478-11.553l7.573-13.034c2.051-3.634 5.108-5.984 9.17-7.05 4.063-1.066 7.91-.573 11.538 1.481l23.291 5.57 8.184-23.817c0-4.108 1.5-7.663 4.497-10.664C90.802 24.5 94.352 23 98.455 23H113.6c4.102 0 7.652 1.5 10.65 4.503 2.998 3.001 4.496 6.556 4.496 10.664l8.667 23.816 22.809-5.569c3.629-2.054 7.474-2.547 11.537-1.481 4.062 1.066 7.119 3.416 9.17 7.05l7.573 13.034c2.051 3.634 2.544 7.484 1.479 11.553-1.065 4.068-3.411 7.129-7.04 9.183L169.282 114l13.659 18.247z" fill="#fff"/><path d="M194.122 156.249l.021-.036.02-.035c2.888-5.117 3.595-10.706 2.107-16.394-1.381-5.272-4.395-9.507-8.873-12.43L177.401 114l9.996-13.354c4.478-2.923 7.492-7.158 8.873-12.43 1.488-5.688.781-11.277-2.107-16.394l-.02-.035-.021-.036-7.554-13c-2.922-5.155-7.423-8.6-13.159-10.105-5.372-1.41-10.655-.855-15.534 1.65l-16.345 3.991-6.317-17.357c-.291-5.383-2.488-10.14-6.364-14.02-4.17-4.177-9.356-6.41-15.249-6.41H98.454c-5.892 0-11.078 2.233-15.249 6.41-3.89 3.896-6.09 8.675-6.367 14.084L70.895 54.29l-16.73-4c-4.875-2.5-10.153-3.052-15.52-1.643-5.735 1.505-10.237 4.95-13.159 10.104L17.932 71.75l-.02.035-.02.036c-2.889 5.117-3.596 10.706-2.107 16.394 1.351 5.16 4.267 9.326 8.589 12.242L32.673 114l-8.3 13.542c-4.32 2.916-7.237 7.082-8.588 12.242-1.489 5.688-.782 11.277 2.107 16.394l.02.035.02.036 7.555 13.001c2.922 5.155 7.423 8.599 13.159 10.104 5.173 1.358 10.264.894 14.99-1.38l18.747-1.336 4.45 14.265c.254 5.451 2.457 10.266 6.372 14.187 4.17 4.177 9.357 6.41 15.25 6.41H113.6c5.893 0 11.079-2.233 15.249-6.41 3.794-3.798 5.979-8.435 6.343-13.677l6.33-13.327h17.132c4.661 2.177 9.668 2.603 14.755 1.268 5.736-1.505 10.237-4.95 13.159-10.104l7.554-13.001z" stroke="#484848" stroke-width="13"/></g><path d="M64.523 117.45l78.611-46.211-23.873 46.211 23.873 44.847-78.61-44.847z" fill="#E87E21"/><path opacity=".5" d="M105.449 93.236l37.686-22.168-24.555 45.871-13.131-23.703z" fill="#E87E21"/><path d="M105.791 93.236l-41.268 24.385 41.268 24.214 13.3-24.214-13.3-24.385z" fill="#C02428"/><path d="M144.327 162.979l-25.066-45.529-13.497 24.358 38.563 21.171z" fill="#D92F62"/><path d="M64.184 117.28l66.503-21.827-11.596 21.827 11.596 22.167-66.503-22.167z" fill="#C22655"/><defs><filter id="filter0_d" x="5.66" y="10" width="200.734" height="214.69" filterUnits="userSpaceOnUse" color-interpolation-filters="sRGB"><feFlood flood-opacity="0" result="BackgroundImageFix"/><feColorMatrix in="SourceAlpha" values="0 0 0 0 0 0 0 0 0 0 0 0 0 0 0 0 0 0 127 0"/><feOffset dy="3.823"/><feGaussianBlur stdDeviation="1.434"/><feColorMatrix values="0 0 0 0 0 0 0 0 0 0 0 0 0 0 0 0 0 0 0.18 0"/><feBlend in2="BackgroundImageFix" result="effect1_dropShadow"/><feBlend in="SourceGraphic" in2="effect1_dropShadow" result="shape"/></filter></defs></svg>