<svg width="212" height="228" fill="none" xmlns="http://www.w3.org/2000/svg"><g filter="url(#filter0_d)"><path d="M182.677 132.247c3.629 2.054 5.976 5.115 7.041 9.183 1.065 4.068.572 7.919-1.479 11.553l-7.573 13.034c-2.051 3.634-5.108 5.984-9.171 7.05-4.062 1.066-7.908.573-11.537-1.481h-22.809l-8.666 18.247c0 4.108-1.499 7.663-4.497 10.664-2.997 3.002-6.547 4.503-10.649 4.503H98.191c-4.102 0-7.652-1.501-10.65-4.503-2.998-3.001-4.496-6.556-4.496-10.664l-6.253-20.044-25.223 1.797c-3.629 2.054-7.474 2.547-11.537 1.481-4.062-1.066-7.12-3.416-9.17-7.05l-7.573-13.034c-2.051-3.634-2.544-7.485-1.48-11.553 1.066-4.068 3.412-7.129 7.041-9.183L40.032 114 28.85 95.753c-3.629-2.054-5.975-5.115-7.04-9.183-1.065-4.069-.572-7.92 1.479-11.553l7.573-13.034c2.05-3.634 5.108-5.984 9.17-7.05 4.063-1.066 7.909-.573 11.537 1.481l23.292 5.57 8.184-23.817c0-4.108 1.498-7.663 4.496-10.664C90.54 24.5 94.09 23 98.191 23h15.146c4.102 0 7.652 1.5 10.649 4.503 2.998 3.001 4.497 6.556 4.497 10.664l8.666 23.816 22.809-5.569c3.629-2.054 7.475-2.547 11.537-1.481 4.063 1.066 7.12 3.416 9.171 7.05l7.573 13.034c2.051 3.634 2.544 7.484 1.479 11.553-1.065 4.068-3.412 7.129-7.041 9.183L169.018 114l13.659 18.247z" fill="#fff"/><path d="M193.859 156.249l.02-.036.02-.035c2.889-5.117 3.596-10.706 2.107-16.394-1.38-5.272-4.395-9.507-8.873-12.43L177.137 114l9.996-13.354c4.478-2.923 7.493-7.158 8.873-12.43 1.489-5.688.782-11.277-2.107-16.394l-.02-.035-.02-.036-7.554-13c-2.922-5.155-7.424-8.6-13.16-10.105-5.371-1.41-10.655-.855-15.534 1.65l-16.345 3.991-6.316-17.357c-.291-5.383-2.489-10.14-6.364-14.02-4.171-4.177-9.357-6.41-15.249-6.41H98.191c-5.893 0-11.079 2.233-15.25 6.41-3.89 3.896-6.09 8.675-6.367 14.084L70.632 54.29l-16.73-4c-4.876-2.5-10.154-3.052-15.52-1.643-5.736 1.505-10.237 4.95-13.16 10.104L17.67 71.75l-.02.035-.02.036c-2.89 5.117-3.596 10.706-2.108 16.394 1.351 5.16 4.268 9.326 8.59 12.242L32.408 114l-8.299 13.542c-4.321 2.916-7.238 7.082-8.588 12.242-1.49 5.688-.782 11.277 2.106 16.394l.02.035.02.036 7.555 13.001c2.922 5.155 7.424 8.599 13.159 10.104 5.173 1.358 10.264.894 14.991-1.38l18.747-1.336 4.45 14.265c.253 5.451 2.456 10.266 6.372 14.187 4.17 4.177 9.356 6.41 15.249 6.41h15.146c5.892 0 11.078-2.233 15.249-6.41 3.793-3.798 5.978-8.435 6.342-13.677l6.33-13.327h17.133c4.66 2.177 9.668 2.603 14.754 1.268 5.736-1.505 10.238-4.95 13.16-10.104l7.554-13.001z" stroke="#484848" stroke-width="13"/></g><path fill-rule="evenodd" clip-rule="evenodd" d="M81.09 140.413C87.608 146.953 96.626 151 106.589 151c19.882 0 36-16.118 36-36s-16.118-36-36-36c-9.61 0-18.34 3.765-24.796 9.9l8.49 8.49A23.915 23.915 0 01106.588 91c13.254 0 24 10.745 24 24s-10.746 24-24 24a23.927 23.927 0 01-17.014-7.072l-8.485 8.485z" fill="#E57F2C"/><path fill-rule="evenodd" clip-rule="evenodd" d="M66.59 146.412l33.608-31.107L66.59 80.863v15.884l18.109 18.558-18.11 16.761v14.346z" fill="#084878"/><defs><filter id="filter0_d" x="5.396" y="10" width="200.734" height="214.69" filterUnits="userSpaceOnUse" color-interpolation-filters="sRGB"><feFlood flood-opacity="0" result="BackgroundImageFix"/><feColorMatrix in="SourceAlpha" values="0 0 0 0 0 0 0 0 0 0 0 0 0 0 0 0 0 0 127 0"/><feOffset dy="3.823"/><feGaussianBlur stdDeviation="1.434"/><feColorMatrix values="0 0 0 0 0 0 0 0 0 0 0 0 0 0 0 0 0 0 0.18 0"/><feBlend in2="BackgroundImageFix" result="effect1_dropShadow"/><feBlend in="SourceGraphic" in2="effect1_dropShadow" result="shape"/></filter></defs></svg>