<svg width="212" height="228" fill="none" xmlns="http://www.w3.org/2000/svg"><g filter="url(#filter0_d)"><path d="M183.205 132.247c3.628 2.054 5.975 5.115 7.04 9.183 1.065 4.068.572 7.919-1.479 11.553l-7.573 13.034c-2.051 3.634-5.108 5.984-9.171 7.05-4.062 1.066-7.908.573-11.537-1.481h-22.808l-8.667 18.247c0 4.108-1.499 7.663-4.496 10.664-2.998 3.002-6.548 4.503-10.65 4.503H98.718c-4.102 0-7.652-1.501-10.65-4.503-2.997-3.001-4.496-6.556-4.496-10.664l-6.252-20.044-25.223 1.797c-3.63 2.054-7.475 2.547-11.537 1.481-4.063-1.066-7.12-3.416-9.17-7.05l-7.574-13.034c-2.05-3.634-2.544-7.485-1.479-11.553 1.065-4.068 3.412-7.129 7.04-9.183L40.56 114 29.377 95.753c-3.628-2.054-5.975-5.115-7.04-9.183-1.065-4.069-.572-7.92 1.48-11.553l7.572-13.034c2.051-3.634 5.108-5.984 9.17-7.05 4.063-1.066 7.909-.573 11.538 1.481l23.291 5.57 8.184-23.817c0-4.108 1.499-7.663 4.496-10.664C91.066 24.5 94.616 23 98.718 23h15.146c4.102 0 7.652 1.5 10.65 4.503 2.997 3.001 4.496 6.556 4.496 10.664l8.667 23.816 22.808-5.569c3.629-2.054 7.475-2.547 11.537-1.481 4.063 1.066 7.12 3.416 9.171 7.05l7.573 13.034c2.051 3.634 2.544 7.484 1.479 11.553-1.065 4.068-3.412 7.129-7.04 9.183L169.545 114l13.66 18.247z" fill="#fff"/><path d="M194.386 156.249l.021-.036.019-.035c2.889-5.117 3.596-10.706 2.107-16.394-1.38-5.272-4.395-9.507-8.872-12.43L177.665 114l9.996-13.354c4.477-2.923 7.492-7.158 8.872-12.43 1.489-5.688.782-11.277-2.107-16.394l-.019-.035-.021-.036-7.554-13c-2.922-5.155-7.424-8.6-13.159-10.105-5.372-1.41-10.655-.855-15.535 1.65l-16.345 3.991-6.316-17.357c-.291-5.383-2.488-10.14-6.364-14.02-4.17-4.177-9.357-6.41-15.249-6.41H98.718c-5.892 0-11.079 2.233-15.249 6.41-3.891 3.896-6.09 8.675-6.367 14.084L71.159 54.29l-16.73-4c-4.876-2.5-10.154-3.052-15.52-1.643-5.735 1.505-10.237 4.95-13.159 10.104L18.196 71.75l-.02.035-.02.036c-2.889 5.117-3.596 10.706-2.107 16.394 1.35 5.16 4.267 9.326 8.589 12.242L32.936 114l-8.298 13.542c-4.322 2.916-7.238 7.082-8.59 12.242-1.488 5.688-.781 11.277 2.108 16.394l.02.035.02.036 7.554 13.001c2.922 5.155 7.424 8.599 13.16 10.104 5.172 1.358 10.263.894 14.99-1.38l18.747-1.336 4.45 14.265c.254 5.451 2.456 10.266 6.372 14.187 4.17 4.177 9.357 6.41 15.249 6.41h15.146c5.892 0 11.079-2.233 15.249-6.41 3.793-3.798 5.979-8.435 6.343-13.677l6.329-13.327h17.133c4.66 2.177 9.668 2.603 14.755 1.268 5.735-1.505 10.237-4.95 13.159-10.104l7.554-13.001z" stroke="#484848" stroke-width="13"/></g><circle cx="106.304" cy="114.258" r="40.56" fill="#2DA5F2"/><path d="M88.428 137.976V91.579h23.729c2.386 0 4.573.376 6.561 1.127 2.033.707 3.756 1.723 5.17 3.049a13.116 13.116 0 013.381 4.639c.839 1.812 1.259 3.801 1.259 5.966 0 2.916-.795 5.523-2.386 7.821-1.591 2.298-3.69 4.043-6.297 5.236l10.141 18.559H117.26l-8.749-16.902h-8.683v16.902h-11.4zm22.668-36.654H99.828v10.473h11.268c1.768 0 3.182-.486 4.242-1.458 1.105-.972 1.657-2.232 1.657-3.778 0-1.547-.552-2.806-1.657-3.778-1.06-.973-2.474-1.459-4.242-1.459z" fill="#F6F9FA"/><defs><filter id="filter0_d" x="5.924" y="10" width="200.734" height="214.69" filterUnits="userSpaceOnUse" color-interpolation-filters="sRGB"><feFlood flood-opacity="0" result="BackgroundImageFix"/><feColorMatrix in="SourceAlpha" values="0 0 0 0 0 0 0 0 0 0 0 0 0 0 0 0 0 0 127 0"/><feOffset dy="3.823"/><feGaussianBlur stdDeviation="1.434"/><feColorMatrix values="0 0 0 0 0 0 0 0 0 0 0 0 0 0 0 0 0 0 0.18 0"/><feBlend in2="BackgroundImageFix" result="effect1_dropShadow"/><feBlend in="SourceGraphic" in2="effect1_dropShadow" result="shape"/></filter></defs></svg>