<svg width="175" height="175" fill="none" xmlns="http://www.w3.org/2000/svg"><mask id="a" fill="#fff"><path fill-rule="evenodd" clip-rule="evenodd" d="M173.919 23.598l-47.884 139.277c-3.647 10.608-15.681 14.85-24.918 10.13l-29.946-29.566-11.745 11.745c-7.42 7.42-19.45 7.42-26.87 0l-12.723-12.723c-7.42-7.42-7.42-19.45 0-26.87l11.493-11.492L5.21 78.316C-4.09 69.014-.41 53.167 12.045 48.885L151.322 1.001c14.015-4.819 27.416 8.582 22.597 22.597z"/></mask><path fill-rule="evenodd" clip-rule="evenodd" d="M173.919 23.598l-47.884 139.277c-3.647 10.608-15.681 14.85-24.918 10.13l-29.946-29.566-11.745 11.745c-7.42 7.42-19.45 7.42-26.87 0l-12.723-12.723c-7.42-7.42-7.42-19.45 0-26.87l11.493-11.492L5.21 78.316C-4.09 69.014-.41 53.167 12.045 48.885L151.322 1.001c14.015-4.819 27.416 8.582 22.597 22.597z" fill="#fff"/><path d="M104.075 167.217a11.39 11.39 0 01-2.874-2.104l-9.193 9.192a24.39 24.39 0 006.152 4.488l5.915-11.576zm21.96-4.342l-12.294-4.227 12.294 4.227zm47.884-139.277l12.294 4.227-12.294-4.227zm-72.802 149.407l-9.133 9.251 1.43 1.411 1.788.914 5.915-11.576zm-29.946-29.566l9.133-9.251-9.192-9.076-9.133 9.134 9.192 9.193zm-11.745 11.745l9.192 9.192-9.192-9.192zm-26.87 0l-9.192 9.192 9.192-9.192zm-12.723-12.723l9.193-9.192-9.193 9.192zm0-26.87l9.193 9.193-9.193-9.193zm11.493-11.492l9.192 9.192 9.251-9.251-9.31-9.192-9.133 9.251zM5.21 78.316l-9.192 9.192.03.03.029.029 9.133-9.251zm6.834-29.431l4.227 12.294-4.227-12.294zM151.322 1.001l-4.226-12.294 4.226 12.294zm-12.993 166.1l47.884-139.276-24.588-8.454-47.884 139.277 24.588 8.453zm-43.127 17.48c15.978 8.166 36.801.921 43.127-17.48l-24.588-8.453c-.968 2.815-4.214 4.056-6.708 2.781l-11.831 23.152zM62.037 152.69l29.947 29.566 18.267-18.502-29.947-29.566-18.267 18.502zm-.058-18.444l-11.745 11.745 18.384 18.385 11.745-11.745-18.384-18.385zm-11.745 11.745a5.998 5.998 0 01-8.486 0l-18.384 18.385c12.496 12.497 32.758 12.497 45.254 0l-18.384-18.385zm-8.486 0l-12.722-12.722-18.385 18.385 12.722 12.722 18.385-18.385zm-12.722-12.722a6 6 0 010-8.485L10.64 106.399c-12.497 12.497-12.497 32.758 0 45.255l18.385-18.385zm0-8.485l11.492-11.493-18.385-18.385L10.641 106.4l18.385 18.385zM-3.922 87.567l26.114 25.783L40.46 94.848 14.345 69.065-3.922 87.567zM7.818 36.59c-21.512 7.396-27.92 34.796-11.8 50.917l18.386-18.385c-2.482-2.482-1.532-6.776 1.868-7.944L7.819 36.59zm139.278-47.884L7.819 36.591l8.453 24.588 139.277-47.884-8.453-24.588zm39.117 39.117c8.338-24.252-14.865-47.455-39.117-39.117l8.453 24.588c3.778-1.3 7.375 2.298 6.076 6.076l24.588 8.454z" fill="#EB6300" mask="url(#a)"/></svg>