<svg width="109" height="109" fill="none" xmlns="http://www.w3.org/2000/svg"><circle cx="54.5" cy="54.5" r="54" fill="#fff" stroke="#9F9F9F"/><circle cx="54.5" cy="54.5" r="41" stroke="url(#paint0_linear)" stroke-width="7"/><path d="M46.788 60.726c0-1.13-.292-1.98-.876-2.552-.571-.584-1.618-1.187-3.142-1.81-2.78-1.053-4.78-2.284-5.998-3.694-1.22-1.422-1.829-3.097-1.829-5.027 0-2.336.826-4.208 2.476-5.618 1.663-1.422 3.77-2.132 6.322-2.132 1.701 0 3.218.361 4.551 1.085a7.344 7.344 0 013.066 3.028c.724 1.307 1.086 2.793 1.086 4.456h-5.58c0-1.295-.279-2.279-.838-2.952-.546-.685-1.339-1.028-2.38-1.028-.977 0-1.74.292-2.285.876-.546.571-.819 1.346-.819 2.323 0 .762.305 1.454.914 2.076.61.61 1.688 1.244 3.237 1.904 2.705.978 4.666 2.177 5.885 3.6 1.231 1.421 1.847 3.23 1.847 5.426 0 2.413-.768 4.298-2.304 5.656-1.537 1.359-3.625 2.038-6.266 2.038-1.79 0-3.42-.368-4.894-1.105-1.472-.736-2.627-1.79-3.465-3.16-.826-1.372-1.238-2.99-1.238-4.857h5.617c0 1.6.312 2.761.934 3.485.622.724 1.637 1.086 3.047 1.086 1.954 0 2.932-1.035 2.932-3.104zM74.934 58.764c-.14 3.161-1.029 5.554-2.666 7.18-1.638 1.624-3.949 2.437-6.932 2.437-3.136 0-5.542-1.028-7.217-3.085-1.663-2.07-2.495-5.015-2.495-8.836v-4.666c0-3.808.863-6.74 2.59-8.797 1.726-2.07 4.126-3.104 7.198-3.104 3.022 0 5.313.844 6.875 2.532 1.574 1.689 2.469 4.114 2.685 7.275h-5.618c-.05-1.955-.355-3.301-.914-4.037-.546-.75-1.555-1.124-3.028-1.124-1.498 0-2.558.527-3.18 1.58-.622 1.042-.952 2.762-.99 5.161v5.237c0 2.755.304 4.647.914 5.675.622 1.028 1.682 1.542 3.18 1.542 1.473 0 2.488-.355 3.047-1.066.558-.724.876-2.025.952-3.904h5.599z" fill="#393535"/><defs><linearGradient id="paint0_linear" x1="54.5" y1="10" x2="54.5" y2="99" gradientUnits="userSpaceOnUse"><stop stop-color="#F40075"/><stop offset="1" stop-color="#FFC700"/></linearGradient></defs></svg>