<svg width="213" height="191" fill="none" xmlns="http://www.w3.org/2000/svg"><g filter="url(#filter0_d)"><rect x="12.865" y="11" width="188" height="148" rx="21" fill="#fff"/><rect x="19.365" y="17.5" width="175" height="135" rx="14.5" stroke="#0065EB" stroke-width="13"/></g><g filter="url(#filter1_d)"><rect x="47.865" y="168" width="118" height="12" rx="6" fill="#0065EB"/><rect x="50.865" y="171" width="112" height="6" rx="3" stroke="#0065EB" stroke-width="6"/></g><path d="M107.393 80.166c2.099-1.115 3.527-3.184 3.527-5.73 0-5.935-5.063-7.212-9.678-7.128H81.815v18.95c0 2.751-.903 3.704-2.512 3.704-1.728 0-2.7-1.032-2.7-2.907v-2.624h-6.566v1.229c0 6.337 2.288 10.672 9.376 10.672 5.782 0 8.839-2.72 9.306-8.088v7.492h12.86c5.737 0 10.425-2.069 10.425-8.838 0-3.224-1.758-5.852-4.611-6.732zm-11.697-7.128h5.396c1.465 0 2.852.682 2.852 2.75 0 2.03-1.649 2.707-2.852 2.707h-5.396v-5.457zm5.585 16.767h-5.585v-6.534h5.585c2.101 0 3.752.84 3.752 3.342 0 2.353-1.538 3.192-3.752 3.192zM97.8 115.975c0-4.803-3.67-8.705-8.195-8.705-4.534 0-8.203 3.902-8.203 8.705 0 4.811 3.669 8.705 8.203 8.705 4.525 0 8.195-3.894 8.195-8.705zM76.021 113.229c0-4.256-3.252-7.708-7.263-7.708-4.01 0-7.26 3.452-7.26 7.708 0 4.259 3.25 7.712 7.26 7.712s7.263-3.453 7.263-7.712zM59.613 99.299c0-3.843-2.93-6.96-6.554-6.96-3.625 0-6.559 3.117-6.559 6.96 0 3.853 2.934 6.97 6.56 6.97 3.623 0 6.553-3.117 6.553-6.97zM56.57 79.91c0-3.436-2.618-6.214-5.85-6.214-3.233 0-5.857 2.777-5.857 6.214 0 3.433 2.624 6.219 5.856 6.219 3.233 0 5.851-2.787 5.851-6.219zM64.775 62.5c0-2.883-2.207-5.222-4.92-5.222-2.715 0-4.92 2.339-4.92 5.221 0 2.886 2.205 5.223 4.92 5.223 2.713 0 4.92-2.337 4.92-5.223zM78.823 54.788c0-2.609-1.99-4.725-4.447-4.725s-4.45 2.116-4.45 4.725c0 2.614 1.993 4.73 4.45 4.73 2.458 0 4.447-2.117 4.447-4.73zM93.582 52.3c0-2.198-1.674-3.98-3.746-3.98-2.067 0-3.748 1.782-3.748 3.98 0 2.2 1.681 3.982 3.748 3.982 2.072 0 3.746-1.781 3.746-3.982z" fill="#C00"/><path d="M162.256 83.395c-2.924-.676-7.394-1.033-7.394-2.988 0-1.435 1.692-1.552 2.739-1.552.787 0 1.495.16 2.026.516.519.36.82.917.82 1.789h5.889c-.226-5.372-4.691-6.687-8.957-6.687-3.555 0-8.173 1.174-8.812 5.33-.873-4.232-4.904-5.33-8.783-5.33-3.826 0-9.087 1.355-9.087 6.332 0 .088.012.163.014.249-1.484-3.93-4.99-6.581-9.5-6.581-4.878 0-8.525 3.025-9.758 7.487.943 1.347 1.439 3.104 1.439 4.938 0 1.506-.226 2.84-.653 4.006 1.677 3.291 4.904 5.428 8.972 5.428 4.323 0 7.713-2.417 9.296-6.066.831 4.686 5.15 6.066 9.378 6.066 3.637 0 7.653-1.265 8.922-4.851 1.314 3.713 5.225 4.85 9.064 4.85 4.386 0 9.337-1.829 9.337-7.365-.001-1.711-1.017-4.732-4.952-5.571zm-41.045 7.762c-2.965 0-3.866-3.102-3.866-5.734 0-2.624.901-5.776 3.866-5.776 2.962 0 3.899 3.152 3.899 5.776-.001 2.633-.937 5.734-3.899 5.734zm18.637.792c-.898 0-1.763-.232-2.364-.713-.634-.517-1.051-1.274-1.051-2.306h-5.442c.318-1.093.494-2.268.494-3.507 0-.578-.049-1.138-.12-1.689 1.491 2.73 5.234 2.997 8.372 3.84 1.12.276 3.11.6 3.11 2.188 0 1.635-1.767 2.187-2.999 2.187zm17.985 0c-.898 0-1.762-.232-2.364-.713-.633-.517-1.051-1.274-1.051-2.306h-5.197c-.013-1.717-1.042-4.702-4.95-5.535-2.924-.676-7.199-1.033-7.199-2.988 0-1.435 1.888-1.552 2.934-1.552.788 0 1.496.16 2.027.516.52.36.82.917.82 1.789h5.654c.227 5.214 5.29 5.36 9.215 6.415 1.12.275 3.109.6 3.109 2.188.001 1.634-1.766 2.186-2.998 2.186z" fill="#61615C"/><defs><filter id="filter0_d" x="9.998" y="11" width="193.734" height="154.69" filterUnits="userSpaceOnUse" color-interpolation-filters="sRGB"><feFlood flood-opacity="0" result="BackgroundImageFix"/><feColorMatrix in="SourceAlpha" values="0 0 0 0 0 0 0 0 0 0 0 0 0 0 0 0 0 0 127 0"/><feOffset dy="3.823"/><feGaussianBlur stdDeviation="1.434"/><feColorMatrix values="0 0 0 0 0 0 0 0 0 0 0 0 0 0 0 0 0 0 0.18 0"/><feBlend in2="BackgroundImageFix" result="effect1_dropShadow"/><feBlend in="SourceGraphic" in2="effect1_dropShadow" result="shape"/></filter><filter id="filter1_d" x="44.998" y="168" width="123.734" height="18.69" filterUnits="userSpaceOnUse" color-interpolation-filters="sRGB"><feFlood flood-opacity="0" result="BackgroundImageFix"/><feColorMatrix in="SourceAlpha" values="0 0 0 0 0 0 0 0 0 0 0 0 0 0 0 0 0 0 127 0"/><feOffset dy="3.823"/><feGaussianBlur stdDeviation="1.434"/><feColorMatrix values="0 0 0 0 0 0 0 0 0 0 0 0 0 0 0 0 0 0 0.18 0"/><feBlend in2="BackgroundImageFix" result="effect1_dropShadow"/><feBlend in="SourceGraphic" in2="effect1_dropShadow" result="shape"/></filter></defs></svg>