<svg width="213" height="191" fill="none" xmlns="http://www.w3.org/2000/svg"><g filter="url(#filter0_d)"><rect x="12.238" y="11" width="188" height="148" rx="21" fill="#fff"/><rect x="18.738" y="17.5" width="175" height="135" rx="14.5" stroke="#0065EB" stroke-width="13"/></g><g filter="url(#filter1_d)"><rect x="47.238" y="168" width="118" height="12" rx="6" fill="#0065EB"/><rect x="50.238" y="171" width="112" height="6" rx="3" stroke="#0065EB" stroke-width="6"/></g><g clip-path="url(#clip0)"><path d="M95.254 111.747s-3.505 2.059 2.495 2.755c7.269.838 10.983.718 18.994-.814 0 0 2.106 1.334 5.046 2.489-17.956 7.773-40.639-.45-26.535-4.43zm-2.194-10.143s-3.931 2.939 2.073 3.566c7.764.809 13.896.875 24.507-1.188 0 0 1.467 1.502 3.775 2.324-21.711 6.412-45.892.506-30.355-4.702" fill="#5382A1"/><path d="M111.558 84.398c4.425 5.144-1.162 9.774-1.162 9.774s11.234-5.857 6.075-13.193c-4.819-6.84-8.515-10.239 11.491-21.957 0 0-31.402 7.921-16.404 25.375" fill="#E76F00"/><path d="M135.307 119.249s2.594 2.159-2.857 3.829c-10.364 3.171-43.139 4.129-52.244.126-3.273-1.438 2.865-3.433 4.796-3.852 2.013-.441 3.164-.359 3.164-.359-3.64-2.59-23.526 5.085-10.101 7.283 36.611 5.996 66.739-2.7 57.242-7.027zM96.94 91.094s-16.671 4-5.903 5.452c4.546.614 13.609.475 22.051-.24 6.899-.587 13.827-1.837 13.827-1.837s-2.433 1.053-4.193 2.267c-16.929 4.497-49.634 2.405-40.218-2.196 7.962-3.887 14.436-3.446 14.436-3.446zm29.906 16.884c17.21-9.032 9.253-17.712 3.699-16.543-1.361.286-1.968.534-1.968.534s.505-.8 1.47-1.145c10.987-3.902 19.438 11.506-3.547 17.609 0 0 .267-.24.346-.455" fill="#5382A1"/><path d="M116.471 40.1s9.531 9.63-9.039 24.436c-14.892 11.879-3.396 18.651-.007 26.389-8.692-7.921-15.071-14.894-10.791-21.384 6.281-9.527 23.683-14.146 19.837-29.442" fill="#E76F00"/><path d="M98.632 132.453c16.519 1.068 41.886-.593 42.487-8.487 0 0-1.155 2.993-13.652 5.369-14.1 2.68-31.489 2.367-41.803.65 0 0 2.111 1.765 12.968 2.468" fill="#5382A1"/></g><defs><filter id="filter0_d" x="9.371" y="11" width="193.734" height="154.69" filterUnits="userSpaceOnUse" color-interpolation-filters="sRGB"><feFlood flood-opacity="0" result="BackgroundImageFix"/><feColorMatrix in="SourceAlpha" values="0 0 0 0 0 0 0 0 0 0 0 0 0 0 0 0 0 0 127 0"/><feOffset dy="3.823"/><feGaussianBlur stdDeviation="1.434"/><feColorMatrix values="0 0 0 0 0 0 0 0 0 0 0 0 0 0 0 0 0 0 0.18 0"/><feBlend in2="BackgroundImageFix" result="effect1_dropShadow"/><feBlend in="SourceGraphic" in2="effect1_dropShadow" result="shape"/></filter><filter id="filter1_d" x="44.371" y="168" width="123.734" height="18.69" filterUnits="userSpaceOnUse" color-interpolation-filters="sRGB"><feFlood flood-opacity="0" result="BackgroundImageFix"/><feColorMatrix in="SourceAlpha" values="0 0 0 0 0 0 0 0 0 0 0 0 0 0 0 0 0 0 127 0"/><feOffset dy="3.823"/><feGaussianBlur stdDeviation="1.434"/><feColorMatrix values="0 0 0 0 0 0 0 0 0 0 0 0 0 0 0 0 0 0 0.18 0"/><feBlend in2="BackgroundImageFix" result="effect1_dropShadow"/><feBlend in="SourceGraphic" in2="effect1_dropShadow" result="shape"/></filter><clipPath id="clip0"><path fill="#fff" d="M73.33 40h68v92.811h-68z"/></clipPath></defs></svg>