<svg width="213" height="191" fill="none" xmlns="http://www.w3.org/2000/svg"><g filter="url(#filter0_d)"><rect x="12.373" y="11" width="188" height="148" rx="21" fill="#fff"/><rect x="18.873" y="17.5" width="175" height="135" rx="14.5" stroke="#0065EB" stroke-width="13"/></g><g filter="url(#filter1_d)"><rect x="47.373" y="168" width="118" height="12" rx="6" fill="#0065EB"/><rect x="50.373" y="171" width="112" height="6" rx="3" stroke="#0065EB" stroke-width="6"/></g><path d="M82.131 92.698l2.628-17.425h5.542L85.369 103H79.75l-3.237-16.339-3.2 16.339h-5.636l-4.951-27.727h5.58l2.608 17.406 3.256-17.406h4.704l3.256 17.425zM111.343 92.698l2.628-17.425h5.542L114.581 103h-5.618l-3.237-16.339-3.2 16.339H96.89l-4.951-27.727h5.58l2.608 17.406 3.256-17.406h4.704l3.256 17.425zM140.555 92.698l2.628-17.425h5.542L143.792 103h-5.617l-3.237-16.339-3.2 16.339h-5.636l-4.952-27.727h5.58l2.609 17.406 3.256-17.406h4.704l3.256 17.425z" fill="#393535"/><defs><filter id="filter0_d" x="9.506" y="11" width="193.734" height="154.69" filterUnits="userSpaceOnUse" color-interpolation-filters="sRGB"><feFlood flood-opacity="0" result="BackgroundImageFix"/><feColorMatrix in="SourceAlpha" values="0 0 0 0 0 0 0 0 0 0 0 0 0 0 0 0 0 0 127 0"/><feOffset dy="3.823"/><feGaussianBlur stdDeviation="1.434"/><feColorMatrix values="0 0 0 0 0 0 0 0 0 0 0 0 0 0 0 0 0 0 0.18 0"/><feBlend in2="BackgroundImageFix" result="effect1_dropShadow"/><feBlend in="SourceGraphic" in2="effect1_dropShadow" result="shape"/></filter><filter id="filter1_d" x="44.506" y="168" width="123.734" height="18.69" filterUnits="userSpaceOnUse" color-interpolation-filters="sRGB"><feFlood flood-opacity="0" result="BackgroundImageFix"/><feColorMatrix in="SourceAlpha" values="0 0 0 0 0 0 0 0 0 0 0 0 0 0 0 0 0 0 127 0"/><feOffset dy="3.823"/><feGaussianBlur stdDeviation="1.434"/><feColorMatrix values="0 0 0 0 0 0 0 0 0 0 0 0 0 0 0 0 0 0 0.18 0"/><feBlend in2="BackgroundImageFix" result="effect1_dropShadow"/><feBlend in="SourceGraphic" in2="effect1_dropShadow" result="shape"/></filter></defs></svg>