<svg width="243" height="176" fill="none" xmlns="http://www.w3.org/2000/svg"><g filter="url(#filter0_d)"><mask id="a" maskUnits="userSpaceOnUse" x="12" y="9" width="219" height="158" fill="#000"><path fill="#fff" d="M12 9h219v158H12z"/><path fill-rule="evenodd" clip-rule="evenodd" d="M182.059 22H34a9 9 0 00-9 9v114a9 9 0 009 9h175a9 9 0 009-9V59.953L182.059 22z"/></mask><path fill-rule="evenodd" clip-rule="evenodd" d="M182.059 22H34a9 9 0 00-9 9v114a9 9 0 009 9h175a9 9 0 009-9V59.953L182.059 22z" fill="#fff"/><path d="M182.059 22l9.439-8.939L187.652 9h-5.593v13zM218 59.953h13v-5.178l-3.561-3.76L218 59.953zM34 35h148.059V9H34v26zm4-4a4 4 0 01-4 4V9c-12.15 0-22 9.85-22 22h26zm0 114V31H12v114h26zm-4-4a4 4 0 014 4H12c0 12.15 9.85 22 22 22v-26zm175 0H34v26h175v-26zm-4 4a4 4 0 014-4v26c12.15 0 22-9.85 22-22h-26zm0-85.047V145h26V59.953h-26zm22.439-8.938L191.498 13.06 172.62 30.94l35.941 37.953 18.878-17.877z" fill="#14B611" mask="url(#a)"/></g><g clip-path="url(#clip0)"><path d="M156.739 91.249c0-3.156-.253-5.458-.8-7.846h-35.585v14.241h20.887c-.421 3.54-2.695 8.87-7.748 12.451l-.071.477 11.251 8.825.78.079c7.159-6.694 11.286-16.544 11.286-28.227" fill="#4285F4"/><path d="M120.353 128.772c10.233 0 18.824-3.412 25.099-9.296l-11.96-9.381c-3.201 2.26-7.496 3.838-13.139 3.838-10.023 0-18.53-6.695-21.562-15.947l-.444.038-11.7 9.167-.153.431c6.233 12.536 19.035 21.15 33.859 21.15z" fill="#34A853"/><path d="M98.79 97.986a23.891 23.891 0 01-1.262-7.59c0-2.644.463-5.203 1.22-7.59l-.02-.509-11.846-9.315-.388.187c-2.569 5.202-4.043 11.044-4.043 17.227 0 6.182 1.474 12.024 4.043 17.226l12.297-9.636" fill="#FBBC05"/><path d="M120.353 66.858c7.117 0 11.918 3.113 14.655 5.714l10.697-10.575c-6.57-6.182-15.119-9.977-25.352-9.977-14.824 0-27.626 8.613-33.859 21.149l12.255 9.637c3.074-9.253 11.581-15.948 21.604-15.948" fill="#EB4335"/></g><defs><clipPath id="clip0"><path fill="#fff" d="M82.447 52.02h74.33v77.017h-74.33z"/></clipPath><filter id="filter0_d" x="9.133" y="9" width="224.734" height="164.69" filterUnits="userSpaceOnUse" color-interpolation-filters="sRGB"><feFlood flood-opacity="0" result="BackgroundImageFix"/><feColorMatrix in="SourceAlpha" values="0 0 0 0 0 0 0 0 0 0 0 0 0 0 0 0 0 0 127 0"/><feOffset dy="3.823"/><feGaussianBlur stdDeviation="1.434"/><feColorMatrix values="0 0 0 0 0 0 0 0 0 0 0 0 0 0 0 0 0 0 0.18 0"/><feBlend in2="BackgroundImageFix" result="effect1_dropShadow"/><feBlend in="SourceGraphic" in2="effect1_dropShadow" result="shape"/></filter></defs></svg>