<svg width="244" height="176" fill="none" xmlns="http://www.w3.org/2000/svg"><g filter="url(#filter0_d)"><mask id="a" maskUnits="userSpaceOnUse" x="12.5" y="9" width="219" height="158" fill="#000"><path fill="#fff" d="M12.5 9h219v158h-219z"/><path fill-rule="evenodd" clip-rule="evenodd" d="M182.559 22H34.5a9 9 0 00-9 9v114a9 9 0 009 9h175a9 9 0 009-9V59.953L182.559 22z"/></mask><path fill-rule="evenodd" clip-rule="evenodd" d="M182.559 22H34.5a9 9 0 00-9 9v114a9 9 0 009 9h175a9 9 0 009-9V59.953L182.559 22z" fill="#fff"/><path d="M182.559 22l9.439-8.939L188.152 9h-5.593v13zM218.5 59.953h13v-5.178l-3.561-3.76-9.439 8.938zM34.5 35h148.059V9H34.5v26zm4-4a4 4 0 01-4 4V9c-12.15 0-22 9.85-22 22h26zm0 114V31h-26v114h26zm-4-4a4 4 0 014 4h-26c0 12.15 9.85 22 22 22v-26zm175 0h-175v26h175v-26zm-4 4a4 4 0 014-4v26c12.15 0 22-9.85 22-22h-26zm0-85.047V145h26V59.953h-26zm22.439-8.938L191.998 13.06 173.12 30.94l35.941 37.953 18.878-17.877z" fill="#14B611" mask="url(#a)"/></g><g clip-path="url(#clip0)"><path d="M121.673 49.02c-21.315 0-38.595 17.28-38.595 38.595 0 21.316 17.28 38.595 38.595 38.595 21.316 0 38.595-17.279 38.595-38.595s-17.28-38.595-38.595-38.595zm-10.297 57.254h-8.474V78.897h8.474v27.377zm-4.277-30.962c-2.768 0-5.012-2.262-5.012-5.052 0-2.79 2.244-5.051 5.012-5.051 2.767 0 5.01 2.261 5.01 5.051s-2.243 5.052-5.01 5.052zm36.033 30.962h-8.433v-14.37c0-3.942-1.497-6.142-4.614-6.142-3.392 0-5.164 2.291-5.164 6.141v14.371h-8.127V78.897h8.127v3.687s2.445-4.522 8.25-4.522 9.961 3.545 9.961 10.877v17.335z" fill="#0C9BE7"/></g><defs><clipPath id="clip0"><path fill="#fff" d="M83.078 49.02h77.19v77.19h-77.19z"/></clipPath><filter id="filter0_d" x="9.633" y="9" width="224.734" height="164.69" filterUnits="userSpaceOnUse" color-interpolation-filters="sRGB"><feFlood flood-opacity="0" result="BackgroundImageFix"/><feColorMatrix in="SourceAlpha" values="0 0 0 0 0 0 0 0 0 0 0 0 0 0 0 0 0 0 127 0"/><feOffset dy="3.823"/><feGaussianBlur stdDeviation="1.434"/><feColorMatrix values="0 0 0 0 0 0 0 0 0 0 0 0 0 0 0 0 0 0 0.18 0"/><feBlend in2="BackgroundImageFix" result="effect1_dropShadow"/><feBlend in="SourceGraphic" in2="effect1_dropShadow" result="shape"/></filter></defs></svg>