<svg width="243" height="176" fill="none" xmlns="http://www.w3.org/2000/svg"><g filter="url(#filter0_d)"><mask id="a" maskUnits="userSpaceOnUse" x="12" y="9" width="219" height="158" fill="#000"><path fill="#fff" d="M12 9h219v158H12z"/><path fill-rule="evenodd" clip-rule="evenodd" d="M182.059 22H34a9 9 0 00-9 9v114a9 9 0 009 9h175a9 9 0 009-9V59.953L182.059 22z"/></mask><path fill-rule="evenodd" clip-rule="evenodd" d="M182.059 22H34a9 9 0 00-9 9v114a9 9 0 009 9h175a9 9 0 009-9V59.953L182.059 22z" fill="#fff"/><path d="M182.059 22l9.439-8.939L187.652 9h-5.593v13zM218 59.953h13v-5.178l-3.561-3.76L218 59.953zM34 35h148.059V9H34v26zm4-4a4 4 0 01-4 4V9c-12.15 0-22 9.85-22 22h26zm0 114V31H12v114h26zm-4-4a4 4 0 014 4H12c0 12.15 9.85 22 22 22v-26zm175 0H34v26h175v-26zm-4 4a4 4 0 014-4v26c12.15 0 22-9.85 22-22h-26zm0-85.047V145h26V59.953h-26zm22.439-8.938L191.498 13.06 172.62 30.94l35.941 37.953 18.878-17.877z" fill="#14B611" mask="url(#a)"/></g><g clip-path="url(#clip0)"><path d="M119.801 128.02c20.71 0 37.5-16.79 37.5-37.5 0-20.711-16.79-37.5-37.5-37.5s-37.5 16.789-37.5 37.5c0 20.71 16.79 37.5 37.5 37.5z" fill="#2DAAE1"/><path d="M143.845 75.603a19.702 19.702 0 01-5.666 1.554 9.894 9.894 0 004.337-5.458 19.707 19.707 0 01-6.266 2.394 9.848 9.848 0 00-7.201-3.114c-5.446 0-9.863 4.415-9.863 9.865 0 .772.087 1.526.254 2.249-8.199-.412-15.468-4.34-20.333-10.307a9.817 9.817 0 00-1.336 4.96 9.86 9.86 0 004.388 8.21 9.822 9.822 0 01-4.469-1.233v.124c0 4.78 3.4 8.766 7.914 9.673-.83.227-1.7.346-2.6.346-.636 0-1.254-.06-1.857-.174a9.877 9.877 0 009.215 6.85 19.792 19.792 0 01-12.252 4.225c-.795 0-1.582-.048-2.354-.141a27.916 27.916 0 0015.122 4.434c18.145 0 28.068-15.032 28.068-28.068 0-.428-.009-.852-.03-1.276a20.119 20.119 0 004.929-5.113z" fill="#fff"/></g><defs><clipPath id="clip0"><path fill="#fff" d="M82.301 53.02h75v75h-75z"/></clipPath><filter id="filter0_d" x="9.133" y="9" width="224.734" height="164.69" filterUnits="userSpaceOnUse" color-interpolation-filters="sRGB"><feFlood flood-opacity="0" result="BackgroundImageFix"/><feColorMatrix in="SourceAlpha" values="0 0 0 0 0 0 0 0 0 0 0 0 0 0 0 0 0 0 127 0"/><feOffset dy="3.823"/><feGaussianBlur stdDeviation="1.434"/><feColorMatrix values="0 0 0 0 0 0 0 0 0 0 0 0 0 0 0 0 0 0 0.18 0"/><feBlend in2="BackgroundImageFix" result="effect1_dropShadow"/><feBlend in="SourceGraphic" in2="effect1_dropShadow" result="shape"/></filter></defs></svg>