<svg width="210" height="213" fill="none" xmlns="http://www.w3.org/2000/svg"><g filter="url(#filter0_d)"><rect x="8.508" y="10" width="193" height="193" rx="96.5" fill="#fff"/><rect x="15.008" y="16.5" width="180" height="180" rx="90" stroke="#830EF8" stroke-width="13"/></g><g clip-path="url(#clip0)"><path d="M138.008 74.504v7.28c0 6.415-16.125 11.647-36 11.647s-36-5.232-36-11.647v-7.28c0-6.415 16.125-11.647 36-11.647s36 5.232 36 11.647zm0 16.379v16.379c0 6.415-16.125 11.647-36 11.647s-36-5.232-36-11.647v-16.38c7.734 5.278 21.89 7.735 36 7.735 14.109 0 28.265-2.457 36-7.734zm0 25.478v16.379c0 6.415-16.125 11.647-36 11.647s-36-5.232-36-11.647v-16.379c7.734 5.277 21.89 7.734 36 7.734 14.109 0 28.265-2.457 36-7.734z" fill="#393535"/><circle cx="135.866" cy="136" r="22.143" fill="#fff"/><path d="M136.141 118.286c-9.752 0-17.991 8.238-17.991 17.991s8.239 17.991 17.991 17.991c9.753 0 17.992-8.238 17.992-17.991s-8.239-17.991-17.992-17.991zm0 8.995c3.108 0 5.398 2.289 5.398 5.398 0 3.108-2.29 5.397-5.398 5.397-3.105 0-5.397-2.289-5.397-5.397 0-3.109 2.292-5.398 5.397-5.398zm-9.186 17.581c1.614-2.375 4.305-3.958 7.387-3.958h3.599c3.083 0 5.773 1.583 7.387 3.958-2.3 2.461-5.561 4.009-9.187 4.009-3.625 0-6.887-1.548-9.186-4.009z" fill="#393535"/></g><defs><clipPath id="clip0"><path fill="#fff" d="M66.008 62.857h92.001v95.286H66.008z"/></clipPath><filter id="filter0_d" x="5.641" y="10" width="198.734" height="199.69" filterUnits="userSpaceOnUse" color-interpolation-filters="sRGB"><feFlood flood-opacity="0" result="BackgroundImageFix"/><feColorMatrix in="SourceAlpha" values="0 0 0 0 0 0 0 0 0 0 0 0 0 0 0 0 0 0 127 0"/><feOffset dy="3.823"/><feGaussianBlur stdDeviation="1.434"/><feColorMatrix values="0 0 0 0 0 0 0 0 0 0 0 0 0 0 0 0 0 0 0.18 0"/><feBlend in2="BackgroundImageFix" result="effect1_dropShadow"/><feBlend in="SourceGraphic" in2="effect1_dropShadow" result="shape"/></filter></defs></svg>