<svg width="210" height="213" fill="none" xmlns="http://www.w3.org/2000/svg"><g filter="url(#filter0_d)"><rect x="8.254" y="10" width="193" height="193" rx="96.5" fill="#fff"/><rect x="14.754" y="16.5" width="180" height="180" rx="90" stroke="#830EF8" stroke-width="13"/></g><g clip-path="url(#clip0)"><g clip-path="url(#clip1)"><path d="M128.445 141.435H75.361a11.372 11.372 0 01-11.375-11.375V76.977a11.375 11.375 0 0111.375-11.375h53.084a3.792 3.792 0 013.791 3.791v68.25a3.793 3.793 0 01-3.791 3.792zM136.834 69.474c1.604 0 2.904 1.3 2.904 2.904v61.958c0 1.604-1.3 2.904-2.904 2.904V69.474z" fill="#393535"/><ellipse cx="99.055" cy="94.162" rx="13.192" ry="12.532" fill="#fff"/><path d="M99.143 76.24c-9.711 0-17.915 8.204-17.915 17.915 0 9.712 8.204 17.915 17.915 17.915 9.712 0 17.915-8.203 17.915-17.915 0-9.711-8.203-17.915-17.915-17.915zm0 8.958c3.094 0 5.375 2.279 5.375 5.374 0 3.096-2.281 5.375-5.375 5.375-3.092 0-5.374-2.28-5.374-5.375s2.282-5.374 5.374-5.374zm-9.147 17.506c1.607-2.365 4.287-3.941 7.356-3.941h3.583c3.07 0 5.749 1.576 7.355 3.941-2.289 2.451-5.537 3.991-9.147 3.991-3.61 0-6.858-1.54-9.147-3.991z" fill="#393535"/><path fill="#C4C4C4" d="M130.059 128.527h15.489v4.84h-15.489z"/></g><circle cx="134.754" cy="133" r="22.143" fill="#fff"/><path d="M134.602 115.286c-9.753 0-17.991 8.238-17.991 17.991s8.238 17.991 17.991 17.991 17.991-8.238 17.991-17.991-8.238-17.991-17.991-17.991z" fill="#393535"/><path fill="#fff" d="M126.611 123.857h16v4h-16zM126.611 130.857h16v4h-16zM126.611 137.857h16v4h-16z"/></g><defs><clipPath id="clip0"><path fill="#fff" d="M52.611 57.857h104.286v97.286H52.611z"/></clipPath><clipPath id="clip1"><path fill="#fff" d="M52.611 57.857h91v91h-91z"/></clipPath><filter id="filter0_d" x="5.387" y="10" width="198.734" height="199.69" filterUnits="userSpaceOnUse" color-interpolation-filters="sRGB"><feFlood flood-opacity="0" result="BackgroundImageFix"/><feColorMatrix in="SourceAlpha" values="0 0 0 0 0 0 0 0 0 0 0 0 0 0 0 0 0 0 127 0"/><feOffset dy="3.823"/><feGaussianBlur stdDeviation="1.434"/><feColorMatrix values="0 0 0 0 0 0 0 0 0 0 0 0 0 0 0 0 0 0 0.18 0"/><feBlend in2="BackgroundImageFix" result="effect1_dropShadow"/><feBlend in="SourceGraphic" in2="effect1_dropShadow" result="shape"/></filter></defs></svg>