<svg width="209" height="213" fill="none" xmlns="http://www.w3.org/2000/svg"><g filter="url(#filter0_d)"><rect x="8" y="10" width="193" height="193" rx="96.5" fill="#fff"/><rect x="14.5" y="16.5" width="180" height="180" rx="90" stroke="#830EF8" stroke-width="13"/></g><path d="M131.833 147.578H78.75a11.372 11.372 0 01-11.375-11.375V83.12A11.375 11.375 0 0178.75 71.745h53.083a3.79 3.79 0 013.792 3.791v68.25a3.791 3.791 0 01-3.792 3.792zM140.223 75.617c1.604 0 2.904 1.3 2.904 2.904v61.958c0 1.604-1.3 2.904-2.904 2.904V75.617z" fill="#393535"/><ellipse cx="102.444" cy="100.305" rx="13.192" ry="12.532" fill="#fff"/><path d="M102.532 82.383c-9.712 0-17.915 8.203-17.915 17.915s8.203 17.915 17.915 17.915c9.711 0 17.915-8.203 17.915-17.915s-8.204-17.915-17.915-17.915zm0 8.958c3.094 0 5.374 2.278 5.374 5.374 0 3.096-2.28 5.374-5.374 5.374-3.092 0-5.374-2.278-5.374-5.374 0-3.096 2.282-5.374 5.374-5.374zm-9.147 17.506c1.607-2.365 4.287-3.941 7.355-3.941h3.583c3.071 0 5.749 1.576 7.356 3.941-2.289 2.451-5.537 3.991-9.147 3.991-3.61 0-6.858-1.54-9.147-3.991z" fill="#393535"/><defs><filter id="filter0_d" x="5.133" y="10" width="198.734" height="199.69" filterUnits="userSpaceOnUse" color-interpolation-filters="sRGB"><feFlood flood-opacity="0" result="BackgroundImageFix"/><feColorMatrix in="SourceAlpha" values="0 0 0 0 0 0 0 0 0 0 0 0 0 0 0 0 0 0 127 0"/><feOffset dy="3.823"/><feGaussianBlur stdDeviation="1.434"/><feColorMatrix values="0 0 0 0 0 0 0 0 0 0 0 0 0 0 0 0 0 0 0.18 0"/><feBlend in2="BackgroundImageFix" result="effect1_dropShadow"/><feBlend in="SourceGraphic" in2="effect1_dropShadow" result="shape"/></filter></defs></svg>