<svg width="229" height="191" fill="none" xmlns="http://www.w3.org/2000/svg"><g filter="url(#filter0_d)"><mask id="a" fill="#fff"><path fill-rule="evenodd" clip-rule="evenodd" d="M27 10c-8.284 0-15 6.716-15 15v141c0 8.284 6.716 15 15 15h175c8.284 0 15-6.716 15-15V44.028c0-8.285-6.716-15-15-15h-97.874L96.996 10H27z"/></mask><path fill-rule="evenodd" clip-rule="evenodd" d="M27 10c-8.284 0-15 6.716-15 15v141c0 8.284 6.716 15 15 15h175c8.284 0 15-6.716 15-15V44.028c0-8.285-6.716-15-15-15h-97.874L96.996 10H27z" fill="#fff"/><path d="M104.126 29.028l-12.174 4.561 3.162 8.439h9.012v-13zM96.996 10l12.173-4.562L106.007-3h-9.012v13zM25 25a2 2 0 012-2V-3C11.536-3-1 9.536-1 25h26zm0 19.028V25H-1v19.028h26zM25 82V44.028H-1V82h26zm0 84V82H-1v84h26zm2 2a2 2 0 01-2-2H-1c0 15.464 12.536 28 28 28v-26zm175 0H27v26h175v-26zm2-2a2 2 0 01-2 2v26c15.464 0 28-12.536 28-28h-26zm0-121.972V166h26V44.028h-26zm-2-2a2 2 0 012 2h26c0-15.464-12.536-28-28-28v26zm-97.874 0H202v-26h-97.874v26zM84.822 14.562l7.13 19.027 24.347-9.123-7.13-19.028-24.347 9.124zM27 23h69.995V-3H27v26z" fill="#FFC700" mask="url(#a)"/></g><path fill-rule="evenodd" clip-rule="evenodd" d="M91 130.413c6.518 6.54 15.536 10.587 25.499 10.587 19.882 0 36-16.118 36-36s-16.118-36-36-36c-9.61 0-18.34 3.765-24.796 9.9l8.49 8.49A23.912 23.912 0 01116.499 81c13.255 0 24 10.745 24 24s-10.745 24-24 24a23.927 23.927 0 01-17.014-7.072L91 130.413z" fill="#E57F2C"/><path fill-rule="evenodd" clip-rule="evenodd" d="M76.5 136.412l33.609-31.107L76.5 70.863v15.884l18.109 18.558L76.5 122.066v14.346z" fill="#084878"/><defs><filter id="filter0_d" x="9.133" y="10" width="210.734" height="177.69" filterUnits="userSpaceOnUse" color-interpolation-filters="sRGB"><feFlood flood-opacity="0" result="BackgroundImageFix"/><feColorMatrix in="SourceAlpha" values="0 0 0 0 0 0 0 0 0 0 0 0 0 0 0 0 0 0 127 0"/><feOffset dy="3.823"/><feGaussianBlur stdDeviation="1.434"/><feColorMatrix values="0 0 0 0 0 0 0 0 0 0 0 0 0 0 0 0 0 0 0.18 0"/><feBlend in2="BackgroundImageFix" result="effect1_dropShadow"/><feBlend in="SourceGraphic" in2="effect1_dropShadow" result="shape"/></filter></defs></svg>