<svg width="229" height="191" fill="none" xmlns="http://www.w3.org/2000/svg"><g filter="url(#filter0_d)"><mask id="a" fill="#fff"><path fill-rule="evenodd" clip-rule="evenodd" d="M27 10c-8.284 0-15 6.716-15 15v141c0 8.284 6.716 15 15 15h175c8.284 0 15-6.716 15-15V44.028c0-8.285-6.716-15-15-15h-97.874L96.996 10H27z"/></mask><path fill-rule="evenodd" clip-rule="evenodd" d="M27 10c-8.284 0-15 6.716-15 15v141c0 8.284 6.716 15 15 15h175c8.284 0 15-6.716 15-15V44.028c0-8.285-6.716-15-15-15h-97.874L96.996 10H27z" fill="#fff"/><path d="M104.126 29.028l-12.174 4.561 3.162 8.439h9.012v-13zM96.996 10l12.173-4.562L106.007-3h-9.012v13zM25 25a2 2 0 012-2V-3C11.536-3-1 9.536-1 25h26zm0 19.028V25H-1v19.028h26zM25 82V44.028H-1V82h26zm0 84V82H-1v84h26zm2 2a2 2 0 01-2-2H-1c0 15.464 12.536 28 28 28v-26zm175 0H27v26h175v-26zm2-2a2 2 0 01-2 2v26c15.464 0 28-12.536 28-28h-26zm0-121.972V166h26V44.028h-26zm-2-2a2 2 0 012 2h26c0-15.464-12.536-28-28-28v26zm-97.874 0H202v-26h-97.874v26zM84.822 14.562l7.13 19.027 24.347-9.123-7.13-19.028-24.347 9.124zM27 23h69.995V-3H27v26z" fill="#FFC700" mask="url(#a)"/></g><path d="M71.692 90.273h5.599v19.196c0 2.691-.749 4.849-2.247 6.474-1.498 1.625-3.428 2.438-5.79 2.438-2.538 0-4.512-.756-5.922-2.266-1.409-1.511-2.113-3.612-2.113-6.303h5.617c0 2.615.807 3.922 2.419 3.922 1.625 0 2.437-1.51 2.437-4.532V90.273zM101.209 106.631c0 3.72-.882 6.608-2.647 8.665-1.752 2.057-4.19 3.085-7.313 3.085-3.11 0-5.554-1.016-7.331-3.047-1.777-2.044-2.679-4.9-2.704-8.569v-4.742c0-3.809.882-6.78 2.647-8.912 1.764-2.146 4.215-3.218 7.35-3.218 3.085 0 5.517 1.053 7.294 3.16 1.777 2.095 2.679 5.04 2.704 8.837v4.741zm-5.618-4.646c0-2.501-.355-4.361-1.066-5.58-.711-1.219-1.816-1.828-3.314-1.828-1.485 0-2.583.59-3.294 1.771-.71 1.168-1.08 2.952-1.105 5.351v4.932c0 2.425.362 4.215 1.086 5.37.724 1.143 1.84 1.714 3.352 1.714 1.46 0 2.545-.558 3.256-1.675.71-1.13 1.073-2.876 1.085-5.237v-4.818zM116.938 110.726c0-1.13-.292-1.981-.876-2.552-.571-.584-1.618-1.187-3.142-1.809-2.78-1.054-4.779-2.285-5.998-3.695-1.219-1.421-1.828-3.097-1.828-5.027 0-2.336.825-4.208 2.475-5.618 1.663-1.422 3.771-2.132 6.323-2.132 1.701 0 3.218.361 4.551 1.085a7.345 7.345 0 013.066 3.028c.723 1.308 1.085 2.793 1.085 4.456h-5.579c0-1.295-.28-2.279-.838-2.952-.546-.685-1.34-1.028-2.381-1.028-.977 0-1.739.292-2.285.876-.546.571-.819 1.346-.819 2.323 0 .762.305 1.454.914 2.076.61.609 1.689 1.244 3.238 1.904 2.704.978 4.665 2.177 5.884 3.599 1.231 1.422 1.847 3.231 1.847 5.428 0 2.412-.768 4.297-2.304 5.655-1.536 1.359-3.625 2.038-6.265 2.038-1.79 0-3.422-.368-4.894-1.105-1.473-.736-2.628-1.79-3.466-3.161-.825-1.371-1.238-2.99-1.238-4.856h5.618c0 1.6.311 2.762.933 3.485.622.724 1.638 1.086 3.047 1.086 1.955 0 2.932-1.035 2.932-3.104zM138 110.726c0-1.13-.292-1.981-.876-2.552-.571-.584-1.619-1.187-3.142-1.809-2.78-1.054-4.78-2.285-5.999-3.695-1.218-1.421-1.828-3.097-1.828-5.027 0-2.336.825-4.208 2.476-5.618 1.663-1.422 3.77-2.132 6.322-2.132 1.701 0 3.218.361 4.551 1.085a7.345 7.345 0 013.066 3.028c.724 1.308 1.086 2.793 1.086 4.456h-5.58c0-1.295-.279-2.279-.838-2.952-.546-.685-1.339-1.028-2.38-1.028-.978 0-1.739.292-2.285.876-.546.571-.819 1.346-.819 2.323 0 .762.305 1.454.914 2.076.609.609 1.688 1.244 3.237 1.904 2.704.978 4.666 2.177 5.885 3.599 1.231 1.422 1.847 3.231 1.847 5.428 0 2.412-.768 4.297-2.304 5.655-1.537 1.359-3.625 2.038-6.266 2.038-1.79 0-3.421-.368-4.894-1.105-1.472-.736-2.628-1.79-3.465-3.161-.826-1.371-1.238-2.99-1.238-4.856h5.617c0 1.6.311 2.762.934 3.485.622.724 1.637 1.086 3.046 1.086 1.955 0 2.933-1.035 2.933-3.104zM166.869 106.631c0 3.72-.882 6.608-2.647 8.665-1.752 2.057-4.189 3.085-7.312 3.085-3.111 0-5.555-1.016-7.332-3.047-1.777-2.044-2.679-4.9-2.704-8.569v-4.742c0-3.809.882-6.78 2.647-8.912 1.765-2.146 4.215-3.218 7.351-3.218 3.085 0 5.516 1.053 7.293 3.16 1.777 2.095 2.679 5.04 2.704 8.837v4.741zm-5.618-4.646c0-2.501-.355-4.361-1.066-5.58-.711-1.219-1.815-1.828-3.313-1.828-1.486 0-2.584.59-3.295 1.771-.711 1.168-1.079 2.952-1.104 5.351v4.932c0 2.425.361 4.215 1.085 5.37.724 1.143 1.841 1.714 3.352 1.714 1.46 0 2.545-.558 3.256-1.675.711-1.13 1.073-2.876 1.085-5.237v-4.818z" fill="#3F3F39"/><defs><filter id="filter0_d" x="9.133" y="10" width="210.734" height="177.69" filterUnits="userSpaceOnUse" color-interpolation-filters="sRGB"><feFlood flood-opacity="0" result="BackgroundImageFix"/><feColorMatrix in="SourceAlpha" values="0 0 0 0 0 0 0 0 0 0 0 0 0 0 0 0 0 0 127 0"/><feOffset dy="3.823"/><feGaussianBlur stdDeviation="1.434"/><feColorMatrix values="0 0 0 0 0 0 0 0 0 0 0 0 0 0 0 0 0 0 0.18 0"/><feBlend in2="BackgroundImageFix" result="effect1_dropShadow"/><feBlend in="SourceGraphic" in2="effect1_dropShadow" result="shape"/></filter></defs></svg>