<svg width="235" height="230" fill="none" xmlns="http://www.w3.org/2000/svg"><g filter="url(#filter0_d)" clip-rule="evenodd"><path fill-rule="evenodd" d="M135.597 42.14l34.317.122c11.098 0 21.002 9.722 21.002 20.795v38.753c16.178-.048 23.768 13.166 23.768 29.446 0 16.268-7.59 29.433-23.353 29.433-.147 0-.415 30.857-.415 30.857 0 11.048-9.904 20.454-21.002 20.454l-33.025-.426c-.195-16.085-12.865-29.08-28.519-29.08-15.642 0-28.299 12.982-28.506 29.08h-39.08c-11.098 0-20.1-8.955-20.1-20.016V63.057c0-11.06 9.002-21.233 20.1-21.233l37.96.134C80.436 27.819 92.447 18 107.163 18c14.802 0 26.825 9.892 28.433 24.14z" fill="#fff"/><path d="M135.597 42.14l34.317.122c11.098 0 21.002 9.722 21.002 20.795v38.753c16.178-.048 23.768 13.166 23.768 29.446 0 16.268-7.59 29.433-23.353 29.433-.147 0-.415 30.857-.415 30.857 0 11.048-9.904 20.454-21.002 20.454l-33.025-.426c-.195-16.085-12.865-29.08-28.519-29.08-15.642 0-28.299 12.982-28.506 29.08h-39.08c-11.098 0-20.1-8.955-20.1-20.016V63.057c0-11.06 9.002-21.233 20.1-21.233l37.96.134C80.436 27.819 92.447 18 107.163 18c14.802 0 26.825 9.892 28.433 24.14z" stroke="#F40075" stroke-width="13"/></g><path d="M77.811 130.726c0-1.13-.292-1.981-.876-2.552-.57-.584-1.618-1.187-3.142-1.809-2.78-1.054-4.78-2.285-5.998-3.695-1.219-1.421-1.828-3.097-1.828-5.027 0-2.336.825-4.208 2.475-5.618 1.664-1.421 3.77-2.132 6.323-2.132 1.7 0 3.218.361 4.55 1.085a7.343 7.343 0 013.067 3.028c.724 1.307 1.085 2.793 1.085 4.456h-5.58c0-1.295-.279-2.279-.837-2.952-.546-.685-1.34-1.028-2.38-1.028-.978 0-1.74.292-2.286.876-.546.571-.819 1.346-.819 2.323 0 .762.305 1.454.915 2.076.609.609 1.688 1.244 3.237 1.904 2.704.978 4.665 2.177 5.884 3.599 1.231 1.422 1.847 3.231 1.847 5.428 0 2.412-.768 4.297-2.304 5.655-1.536 1.359-3.625 2.038-6.265 2.038-1.79 0-3.422-.368-4.894-1.105-1.473-.736-2.628-1.79-3.466-3.161-.825-1.371-1.238-2.99-1.238-4.856H70.9c0 1.6.311 2.762.933 3.485.622.724 1.638 1.086 3.047 1.086 1.955 0 2.932-1.035 2.932-3.104zM100.396 132.325H92.76L91.275 138h-5.922l8.664-27.727h5.123L107.86 138h-5.979l-1.486-5.675zm-6.417-4.665h5.18l-2.59-9.884-2.59 9.884zM117.783 110.273l5.237 20.053 5.217-20.053h7.313V138h-5.618v-7.503l.514-11.559L124.905 138h-3.809l-5.541-19.062.514 11.559V138h-5.599v-27.727h7.313zM145.662 133.354h9.826V138h-15.425v-27.727h5.599v23.081z" fill="#3F3F39"/><defs><filter id="filter0_d" x="11.316" y="11.5" width="212.735" height="213.69" filterUnits="userSpaceOnUse" color-interpolation-filters="sRGB"><feFlood flood-opacity="0" result="BackgroundImageFix"/><feColorMatrix in="SourceAlpha" values="0 0 0 0 0 0 0 0 0 0 0 0 0 0 0 0 0 0 127 0"/><feOffset dy="3.823"/><feGaussianBlur stdDeviation="1.434"/><feColorMatrix values="0 0 0 0 0 0 0 0 0 0 0 0 0 0 0 0 0 0 0.18 0"/><feBlend in2="BackgroundImageFix" result="effect1_dropShadow"/><feBlend in="SourceGraphic" in2="effect1_dropShadow" result="shape"/></filter></defs></svg>