<svg width="288" height="133" viewBox="0 0 288 133" fill="none" xmlns="http://www.w3.org/2000/svg">
<path fill-rule="evenodd" clip-rule="evenodd" d="M210.921 91.7549C227.071 91.7549 240.163 78.6628 240.163 62.5129C240.163 46.3631 227.071 33.271 210.921 33.271C194.771 33.271 181.679 46.3631 181.679 62.5129C181.679 78.6628 194.771 91.7549 210.921 91.7549ZM210.92 80.2216C220.211 80.2216 227.743 72.2932 227.743 62.513C227.743 52.7329 220.211 44.8045 210.92 44.8045C201.629 44.8045 194.097 52.7329 194.097 62.513C194.097 72.2932 201.629 80.2216 210.92 80.2216Z" fill="#4E5A69"/>
<path fill-rule="evenodd" clip-rule="evenodd" d="M106.552 61.025C107.544 61.8232 108.611 62.4937 109.751 63.0368C112.112 64.0801 115.16 65.1509 118.894 66.2491C121.64 67.0179 123.781 67.7318 125.319 68.3907C126.911 68.9947 128.229 69.8459 129.272 70.9441C130.316 72.0424 130.837 73.4427 130.837 75.1449C130.837 77.2316 130.069 78.9339 128.531 80.2518C126.994 81.5148 124.879 82.1463 122.189 82.1463C119.553 82.1463 117.466 81.4599 115.929 80.0871C114.446 78.7142 113.622 76.8472 113.458 74.486H104.395C103.716 76.2722 102.889 77.9858 101.93 79.6118C102.409 81.0573 103.094 82.3963 103.985 83.6289C105.852 86.2098 108.378 88.1866 111.563 89.5594C114.803 90.9323 118.427 91.6187 122.436 91.6187C126.664 91.6187 130.316 90.8499 133.391 89.3123C136.466 87.7199 138.8 85.6058 140.392 82.97C141.985 80.3342 142.781 77.4787 142.781 74.4036C142.781 70.8343 141.93 67.9514 140.227 65.7549C138.525 63.5584 136.493 61.911 134.132 60.8128C131.771 59.7145 128.723 58.6163 124.989 57.5181C122.244 56.6944 120.102 55.9805 118.565 55.3765C117.082 54.7175 115.819 53.8938 114.776 52.9054C113.787 51.8621 113.293 50.5716 113.293 49.0341C113.293 46.8376 113.952 45.1628 115.27 44.0096C116.643 42.8564 118.455 42.2799 120.706 42.2799C123.287 42.2799 125.346 42.9388 126.884 44.2567C128.476 45.5197 129.327 47.1396 129.437 49.1165H142.122C141.738 43.9547 139.678 39.9461 135.944 37.0906C132.265 34.1803 127.46 32.7251 121.53 32.7251C117.576 32.7251 114.062 33.4115 110.987 34.7843C107.912 36.1022 105.523 38.0241 103.821 40.5501C102.877 41.9496 102.196 43.484 101.775 45.1532C104.588 49.8255 106.3 55.2358 106.552 61.025ZM153.337 89.5594C156.576 90.9323 160.201 91.6187 164.209 91.6187C168.438 91.6187 172.089 90.8499 175.164 89.3123C178.239 87.7199 180.573 85.6058 182.166 82.97C183.758 80.3342 184.554 77.4787 184.554 74.4036C184.554 70.8343 183.703 67.9514 182.001 65.7549C180.299 63.5584 178.267 61.911 175.906 60.8128C173.544 59.7145 170.497 58.6163 166.763 57.5181C164.017 56.6944 161.876 55.9805 160.338 55.3765C158.855 54.7175 157.592 53.8938 156.549 52.9054C155.561 51.8621 155.066 50.5716 155.066 49.0341C155.066 46.8376 155.725 45.1628 157.043 44.0096C158.416 42.8564 160.228 42.2799 162.48 42.2799C165.06 42.2799 167.12 42.9388 168.657 44.2567C170.25 45.5197 171.101 47.1396 171.211 49.1165H183.895C183.511 43.9547 181.452 39.9461 177.718 37.0906C174.039 34.1803 169.234 32.7251 163.303 32.7251C159.35 32.7251 155.835 33.4115 152.76 34.7843C149.685 36.1022 147.296 38.0241 145.594 40.5501C143.892 43.0761 143.041 46.0414 143.041 49.4459C143.041 53.0701 143.864 55.9805 145.512 58.177C147.214 60.3186 149.218 61.9385 151.525 63.0368C153.886 64.0801 156.933 65.1509 160.667 66.2491C163.413 67.0179 165.555 67.7318 167.092 68.3907C168.685 68.9947 170.003 69.8459 171.046 70.9441C172.089 72.0424 172.611 73.4427 172.611 75.1449C172.611 77.2316 171.842 78.9339 170.305 80.2518C168.767 81.5148 166.653 82.1463 163.962 82.1463C161.326 82.1463 159.24 81.4599 157.702 80.0871C156.22 78.7142 155.396 76.8472 155.231 74.486H142.876C142.931 78.0004 143.892 81.048 145.759 83.6289C147.626 86.2098 150.152 88.1866 153.337 89.5594Z" fill="#4E5A69"/>
<path d="M44.1509 24.995V28.0642C50.3612 25.8475 60.5235 21.4143 66.7338 20.3912C66.7338 20.3912 73.5087 19.3681 77.4607 20.3912C80.8481 20.3912 97.7853 27.0411 100.044 28.0642C102.302 29.0872 103.431 26.5296 101.737 25.5065C100.044 24.4834 88.7522 16.8105 83.1064 14.7643C77.4607 12.7182 68.4275 12.7182 61.0881 14.7643C55.2165 16.4012 47.3501 22.4373 44.1509 24.995Z" fill="#FF6454"/>
<path fill-rule="evenodd" clip-rule="evenodd" d="M72.8806 91.7549C89.0305 91.7549 102.123 78.6628 102.123 62.5129C102.123 46.3631 89.0305 33.271 72.8806 33.271C56.7307 33.271 43.6387 46.3631 43.6387 62.5129C43.6387 78.6628 56.7307 91.7549 72.8806 91.7549ZM72.8802 80.2216C82.1713 80.2216 89.7033 72.2932 89.7033 62.513C89.7033 52.7329 82.1713 44.8045 72.8802 44.8045C63.589 44.8045 56.0571 52.7329 56.0571 62.513C56.0571 72.2932 63.589 80.2216 72.8802 80.2216Z" fill="#FF6454"/>
<path d="M40.0283 33.5489V73.9096C40.0283 79.5106 38.4083 83.8762 35.1685 87.0062C31.9287 90.0813 27.5906 91.6188 22.1543 91.6188C16.663 91.6188 12.2151 90.0264 8.81056 86.8414C5.4609 83.6565 3.78607 79.2086 3.78607 73.4977H15.3177C15.3726 75.9688 15.9492 77.8907 17.0474 79.2635C18.2006 80.6363 19.848 81.3227 21.9895 81.3227C24.0762 81.3227 25.6687 80.6638 26.7669 79.3459C27.8652 78.028 28.4143 76.2159 28.4143 73.9096V33.5489H40.0283Z" fill="#4E5A69"/>
<path d="M247.179 56.5891C249.135 54.8975 250.674 53.5116 251.795 52.4314C252.936 51.3309 253.884 50.1896 254.638 49.0075C255.392 47.8254 255.769 46.6433 255.769 45.4612C255.769 44.2384 255.474 43.2805 254.883 42.5875C254.312 41.8946 253.405 41.5481 252.162 41.5481C250.96 41.5481 250.022 41.9354 249.349 42.7098C248.697 43.4639 248.351 44.4829 248.31 45.7669H244.947C245.008 43.4435 245.701 41.6704 247.026 40.4476C248.371 39.2043 250.073 38.5827 252.131 38.5827C254.353 38.5827 256.085 39.1941 257.328 40.417C258.592 41.6398 259.224 43.2703 259.224 45.3084C259.224 46.7758 258.847 48.1922 258.093 49.5578C257.359 50.9029 256.473 52.1155 255.433 53.1957C254.414 54.2555 253.11 55.4886 251.52 56.8948L250.144 58.1177H259.835V61.0219H244.978V58.4845L247.179 56.5891Z" fill="#4E5A69"/>
<path d="M113.832 113.231C114.774 113.399 115.573 113.896 116.229 114.72C116.885 115.544 117.213 116.478 117.213 117.521C117.213 118.412 116.978 119.22 116.507 119.943C116.053 120.649 115.388 121.213 114.513 121.633C113.639 122.037 112.621 122.239 111.46 122.239H104.446V104.703H111.132C112.327 104.703 113.353 104.904 114.211 105.308C115.068 105.712 115.716 106.259 116.153 106.948C116.591 107.621 116.81 108.378 116.81 109.219C116.81 110.228 116.54 111.069 116.002 111.742C115.464 112.415 114.74 112.911 113.832 113.231ZM107.322 112.07H110.88C111.822 112.07 112.554 111.86 113.075 111.44C113.613 111.002 113.883 110.38 113.883 109.572C113.883 108.782 113.613 108.168 113.075 107.73C112.554 107.276 111.822 107.049 110.88 107.049H107.322V112.07ZM111.208 119.892C112.184 119.892 112.949 119.657 113.504 119.186C114.059 118.715 114.337 118.059 114.337 117.218C114.337 116.36 114.042 115.679 113.454 115.174C112.865 114.669 112.083 114.417 111.107 114.417H107.322V119.892H111.208ZM132.854 108.336L124.326 128.774H121.348L124.174 122.012L118.699 108.336H121.903L125.815 118.934L129.877 108.336H132.854Z" fill="#757575"/>
<path d="M145.757 117.201L144.155 121.803H139.738L147.109 102.478H152.548L159.919 121.803H155.474L153.818 117.201H145.757ZM149.843 105.942H149.732L146.833 114.116H152.741L149.843 105.942Z" fill="#757575"/>
<path d="M166.258 118.852V121.803C165.742 121.839 164.896 121.857 163.718 121.857C162.669 121.857 161.841 121.766 161.233 121.586C160.626 121.388 160.175 121.045 159.88 120.558C159.586 120.052 159.439 119.331 159.439 118.392V110.029H157.12V107.485H159.439V103.479H163.304V107.485H166.368V110.029H163.304V117.445C163.304 118.04 163.423 118.428 163.663 118.609C163.92 118.771 164.371 118.852 165.015 118.852H166.258Z" fill="#757575"/>
<path d="M169.777 109.677H169.887C170.292 108.901 170.863 108.288 171.599 107.837C172.353 107.368 173.246 107.133 174.277 107.133C174.645 107.133 174.985 107.178 175.298 107.268V110.787C175.188 110.787 174.967 110.769 174.636 110.733C174.323 110.697 174.038 110.679 173.78 110.679C171.222 110.679 169.942 111.978 169.942 114.576V121.803H166.077V107.485H169.777V109.677Z" fill="#757575"/>
<path d="M178.72 107.485V121.803H174.855V107.485H178.72ZM178.72 102.207V105.455H174.855V102.207H178.72Z" fill="#757575"/>
<path d="M185.951 119.313C187.607 119.313 188.675 118.383 189.153 116.525L193.046 116.958C192.678 118.383 191.923 119.601 190.782 120.612C189.641 121.622 188.031 122.127 185.951 122.127C184.46 122.127 183.163 121.83 182.058 121.234C180.954 120.621 180.107 119.755 179.518 118.636C178.93 117.499 178.635 116.173 178.635 114.657C178.635 113.142 178.93 111.815 179.518 110.679C180.107 109.542 180.954 108.667 182.058 108.053C183.163 107.44 184.46 107.133 185.951 107.133C187.976 107.133 189.54 107.602 190.644 108.54C191.749 109.479 192.476 110.516 192.825 111.653L189.071 112.492C188.537 110.814 187.497 109.975 185.951 109.975C184.902 109.975 184.074 110.381 183.466 111.193C182.859 111.987 182.555 113.142 182.555 114.657C182.555 116.155 182.859 117.31 183.466 118.122C184.074 118.916 184.902 119.313 185.951 119.313Z" fill="#757575"/>
<path d="M199.774 107.133C201.283 107.133 202.599 107.44 203.721 108.053C204.844 108.667 205.709 109.542 206.317 110.679C206.924 111.815 207.228 113.142 207.228 114.657C207.228 116.173 206.924 117.499 206.317 118.636C205.709 119.755 204.844 120.621 203.721 121.234C202.599 121.83 201.283 122.127 199.774 122.127C198.246 122.127 196.912 121.83 195.771 121.234C194.648 120.621 193.783 119.755 193.175 118.636C192.587 117.499 192.292 116.173 192.292 114.657C192.292 113.123 192.587 111.797 193.175 110.679C193.783 109.542 194.648 108.667 195.771 108.053C196.912 107.44 198.246 107.133 199.774 107.133ZM199.774 119.285C200.86 119.285 201.715 118.888 202.341 118.095C202.967 117.301 203.28 116.155 203.28 114.657C203.28 113.142 202.967 111.987 202.341 111.193C201.715 110.381 200.86 109.975 199.774 109.975C198.669 109.975 197.795 110.381 197.151 111.193C196.525 111.987 196.212 113.142 196.212 114.657C196.212 116.155 196.525 117.301 197.151 118.095C197.795 118.888 198.669 119.285 199.774 119.285Z" fill="#757575"/>
<path d="M210.844 109.677H210.954C211.359 108.901 211.93 108.288 212.666 107.837C213.42 107.368 214.313 107.133 215.344 107.133C215.712 107.133 216.052 107.178 216.365 107.268V110.787C216.255 110.787 216.034 110.769 215.703 110.733C215.39 110.697 215.104 110.679 214.847 110.679C212.289 110.679 211.009 111.978 211.009 114.576V121.803H207.144V107.485H210.844V109.677Z" fill="#757575"/>
<path d="M229.92 117.553C229.571 118.798 228.816 119.872 227.657 120.774C226.497 121.676 224.868 122.127 222.77 122.127C221.279 122.127 219.982 121.83 218.877 121.234C217.773 120.621 216.927 119.755 216.338 118.636C215.749 117.499 215.454 116.173 215.454 114.657C215.454 113.123 215.739 111.797 216.31 110.679C216.899 109.542 217.736 108.667 218.822 108.053C219.927 107.44 221.233 107.133 222.742 107.133C224.196 107.133 225.476 107.422 226.58 107.999C227.684 108.576 228.54 109.434 229.147 110.57C229.755 111.689 230.058 113.033 230.058 114.603C230.058 114.964 230.049 115.244 230.031 115.442H219.374C219.411 116.651 219.733 117.625 220.341 118.365C220.948 119.087 221.758 119.448 222.77 119.448C223.727 119.448 224.454 119.231 224.951 118.798C225.448 118.347 225.789 117.824 225.973 117.228L229.92 117.553ZM222.742 109.785C221.767 109.785 220.985 110.092 220.396 110.706C219.825 111.319 219.503 112.086 219.43 113.006H226.083C226.009 112.068 225.678 111.301 225.089 110.706C224.519 110.092 223.736 109.785 222.742 109.785Z" fill="#757575"/>
<path d="M230.361 105.609V109.145H229.44V105.609H228.023V104.851H231.778V105.609H230.361Z" fill="#757575"/>
<path d="M236.684 109.145H235.813V105.97H235.788L234.721 109.145H234.04L232.972 105.97H232.948V109.145H232.101V104.851H233.451L234.383 107.81H234.408L235.34 104.851H236.684V109.145Z" fill="#757575"/>
</svg>
