<svg width="287" height="133" viewBox="0 0 287 133" fill="none" xmlns="http://www.w3.org/2000/svg">
<path fill-rule="evenodd" clip-rule="evenodd" d="M210.333 91.9424C226.483 91.9424 239.575 78.8503 239.575 62.7004C239.575 46.5506 226.483 33.4585 210.333 33.4585C194.183 33.4585 181.091 46.5506 181.091 62.7004C181.091 78.8503 194.183 91.9424 210.333 91.9424ZM210.333 80.4091C219.624 80.4091 227.156 72.4807 227.156 62.7005C227.156 52.9204 219.624 44.992 210.333 44.992C201.042 44.992 193.51 52.9204 193.51 62.7005C193.51 72.4807 201.042 80.4091 210.333 80.4091Z" fill="white"/>
<path fill-rule="evenodd" clip-rule="evenodd" d="M105.964 61.2126C106.957 62.0107 108.023 62.6812 109.164 63.2243C111.525 64.2676 114.573 65.3384 118.307 66.4366C121.052 67.2054 123.194 67.9193 124.731 68.5782C126.324 69.1823 127.642 70.0334 128.685 71.1316C129.728 72.2299 130.25 73.6302 130.25 75.3324C130.25 77.4191 129.481 79.1214 127.944 80.4393C126.406 81.7023 124.292 82.3338 121.601 82.3338C118.966 82.3338 116.879 81.6474 115.341 80.2746C113.859 78.9017 113.035 77.0347 112.87 74.6735H103.808C103.129 76.4598 102.302 78.1733 101.343 79.7993C101.821 81.2448 102.506 82.5838 103.398 83.8164C105.265 86.3973 107.791 88.3741 110.976 89.7469C114.216 91.1198 117.84 91.8062 121.848 91.8062C126.077 91.8062 129.728 91.0374 132.803 89.4998C135.879 87.9074 138.212 85.7933 139.805 83.1575C141.397 80.5217 142.193 77.6662 142.193 74.5911C142.193 71.0218 141.342 68.1389 139.64 65.9424C137.938 63.7459 135.906 62.0985 133.545 61.0003C131.184 59.9021 128.136 58.8038 124.402 57.7056C121.656 56.8819 119.515 56.168 117.977 55.564C116.494 54.905 115.231 54.0813 114.188 53.0929C113.2 52.0496 112.706 50.7591 112.706 49.2216C112.706 47.0251 113.364 45.3503 114.682 44.1971C116.055 43.0439 117.867 42.4674 120.119 42.4674C122.7 42.4674 124.759 43.1263 126.296 44.4442C127.889 45.7072 128.74 47.3271 128.85 49.304H141.535C141.15 44.1422 139.091 40.1336 135.357 37.2781C131.678 34.3678 126.873 32.9126 120.942 32.9126C116.989 32.9126 113.474 33.599 110.399 34.9718C107.324 36.2897 104.935 38.2116 103.233 40.7376C102.29 42.1371 101.608 43.6715 101.188 45.3407C104.001 50.013 105.713 55.4233 105.964 61.2126ZM152.749 89.7469C155.989 91.1198 159.613 91.8062 163.622 91.8062C167.85 91.8062 171.502 91.0374 174.577 89.4998C177.652 87.9074 179.986 85.7933 181.578 83.1575C183.171 80.5217 183.967 77.6662 183.967 74.5911C183.967 71.0218 183.116 68.1389 181.414 65.9424C179.711 63.7459 177.679 62.0985 175.318 61.0003C172.957 59.9021 169.909 58.8038 166.175 57.7056C163.43 56.8819 161.288 56.168 159.751 55.564C158.268 54.905 157.005 54.0813 155.962 53.0929C154.973 52.0496 154.479 50.7591 154.479 49.2216C154.479 47.0251 155.138 45.3503 156.456 44.1971C157.829 43.0439 159.641 42.4674 161.892 42.4674C164.473 42.4674 166.532 43.1263 168.07 44.4442C169.662 45.7072 170.513 47.3271 170.623 49.304H183.308C182.924 44.1422 180.864 40.1336 177.13 37.2781C173.451 34.3678 168.646 32.9126 162.716 32.9126C158.762 32.9126 155.248 33.599 152.173 34.9718C149.098 36.2897 146.709 38.2116 145.007 40.7376C143.304 43.2636 142.453 46.2289 142.453 49.6334C142.453 53.2576 143.277 56.168 144.924 58.3645C146.627 60.5061 148.631 62.126 150.937 63.2243C153.298 64.2676 156.346 65.3384 160.08 66.4366C162.826 67.2054 164.967 67.9193 166.505 68.5782C168.097 69.1823 169.415 70.0334 170.459 71.1316C171.502 72.2299 172.024 73.6302 172.024 75.3324C172.024 77.4191 171.255 79.1214 169.717 80.4393C168.18 81.7023 166.066 82.3338 163.375 82.3338C160.739 82.3338 158.652 81.6474 157.115 80.2746C155.632 78.9017 154.808 77.0347 154.644 74.6735H142.288C142.343 78.1879 143.304 81.2355 145.171 83.8164C147.038 86.3973 149.564 88.3741 152.749 89.7469Z" fill="white"/>
<path d="M43.564 25.1825V28.2517C49.7743 26.035 59.9366 21.6018 66.1469 20.5787C66.1469 20.5787 72.9218 19.5556 76.8738 20.5787C80.2612 20.5787 97.1984 27.2286 99.4567 28.2517C101.715 29.2747 102.844 26.7171 101.15 25.694C99.4567 24.6709 88.1653 16.998 82.5195 14.9518C76.8738 12.9057 67.8406 12.9057 60.5012 14.9518C54.6296 16.5887 46.7632 22.6248 43.564 25.1825Z" fill="#FF6454"/>
<path fill-rule="evenodd" clip-rule="evenodd" d="M72.2937 91.9424C88.4436 91.9424 101.536 78.8503 101.536 62.7004C101.536 46.5506 88.4436 33.4585 72.2937 33.4585C56.1438 33.4585 43.0518 46.5506 43.0518 62.7004C43.0518 78.8503 56.1438 91.9424 72.2937 91.9424ZM72.2933 80.4091C81.5844 80.4091 89.1163 72.4807 89.1163 62.7005C89.1163 52.9204 81.5844 44.992 72.2933 44.992C63.0021 44.992 55.4702 52.9204 55.4702 62.7005C55.4702 72.4807 63.0021 80.4091 72.2933 80.4091Z" fill="#FF6454"/>
<path d="M39.4409 33.7364V74.0971C39.4409 79.6981 37.8209 84.0637 34.5811 87.1937C31.3413 90.2688 27.0032 91.8063 21.5669 91.8063C16.0756 91.8063 11.6277 90.2139 8.22315 87.0289C4.8735 83.844 3.19867 79.3961 3.19867 73.6852H14.7303C14.7852 76.1563 15.3618 78.0782 16.46 79.451C17.6132 80.8238 19.2606 81.5102 21.4021 81.5102C23.4888 81.5102 25.0813 80.8513 26.1795 79.5334C27.2778 78.2155 27.8269 76.4034 27.8269 74.0971V33.7364H39.4409Z" fill="white"/>
<path d="M246.591 56.7766C248.548 55.085 250.087 53.6991 251.208 52.6189C252.349 51.5184 253.297 50.3771 254.051 49.195C254.805 48.0129 255.182 46.8308 255.182 45.6487C255.182 44.4259 254.886 43.468 254.295 42.775C253.725 42.0821 252.818 41.7356 251.575 41.7356C250.372 41.7356 249.435 42.1229 248.762 42.8973C248.11 43.6514 247.763 44.6704 247.723 45.9544H244.36C244.421 43.631 245.114 41.8579 246.439 40.6351C247.784 39.3918 249.486 38.7702 251.544 38.7702C253.766 38.7702 255.498 39.3816 256.741 40.6045C258.005 41.8273 258.637 43.4578 258.637 45.4959C258.637 46.9633 258.259 48.3797 257.505 49.7453C256.772 51.0904 255.885 52.303 254.846 53.3832C253.827 54.443 252.522 55.6761 250.933 57.0823L249.557 58.3052H259.248V61.2094H244.39V58.672L246.591 56.7766Z" fill="white"/>
<path d="M113.245 113.419C114.187 113.587 114.986 114.083 115.642 114.907C116.298 115.732 116.626 116.665 116.626 117.708C116.626 118.6 116.39 119.407 115.919 120.13C115.465 120.837 114.801 121.4 113.926 121.821C113.051 122.225 112.034 122.427 110.873 122.427H103.858V104.89H110.545C111.739 104.89 112.765 105.092 113.623 105.496C114.481 105.899 115.129 106.446 115.566 107.136C116.003 107.809 116.222 108.566 116.222 109.407C116.222 110.416 115.953 111.257 115.415 111.93C114.876 112.603 114.153 113.099 113.245 113.419ZM106.735 112.258H110.293C111.235 112.258 111.966 112.048 112.488 111.627C113.026 111.19 113.295 110.567 113.295 109.76C113.295 108.969 113.026 108.355 112.488 107.918C111.966 107.464 111.235 107.237 110.293 107.237H106.735V112.258ZM110.621 120.08C111.596 120.08 112.362 119.844 112.917 119.373C113.472 118.902 113.749 118.246 113.749 117.405C113.749 116.547 113.455 115.866 112.866 115.361C112.277 114.857 111.495 114.604 110.52 114.604H106.735V120.08H110.621ZM132.267 108.523L123.738 128.962H120.761L123.587 122.199L118.112 108.523H121.316L125.227 119.121L129.29 108.523H132.267Z" fill="white" fill-opacity="0.37"/>
<path d="M145.169 117.389L143.568 121.99H139.151L146.522 102.665H151.961L159.332 121.99H154.887L153.231 117.389H145.169ZM149.255 106.13H149.145L146.246 114.303H152.154L149.255 106.13Z" fill="white" fill-opacity="0.37"/>
<path d="M165.67 119.04V121.99C165.155 122.026 164.308 122.044 163.13 122.044C162.081 122.044 161.253 121.954 160.646 121.774C160.038 121.575 159.587 121.232 159.293 120.745C158.999 120.24 158.851 119.518 158.851 118.58V110.216H156.532V107.672H158.851V103.667H162.716V107.672H165.781V110.216H162.716V117.632C162.716 118.228 162.836 118.616 163.075 118.796C163.333 118.959 163.784 119.04 164.428 119.04H165.67Z" fill="white" fill-opacity="0.37"/>
<path d="M169.189 109.865H169.3C169.705 109.089 170.275 108.475 171.011 108.024C171.766 107.555 172.659 107.32 173.689 107.32C174.057 107.32 174.398 107.366 174.711 107.456V110.974C174.6 110.974 174.38 110.956 174.048 110.92C173.735 110.884 173.45 110.866 173.192 110.866C170.634 110.866 169.355 112.165 169.355 114.764V121.99H165.49V107.672H169.189V109.865Z" fill="white" fill-opacity="0.37"/>
<path d="M178.133 107.672V121.99H174.268V107.672H178.133ZM178.133 102.395V105.642H174.268V102.395H178.133Z" fill="white" fill-opacity="0.37"/>
<path d="M185.364 119.5C187.02 119.5 188.088 118.571 188.566 116.712L192.459 117.145C192.091 118.571 191.336 119.789 190.195 120.799C189.054 121.81 187.443 122.315 185.364 122.315C183.873 122.315 182.575 122.017 181.471 121.422C180.367 120.808 179.52 119.942 178.931 118.823C178.342 117.687 178.048 116.36 178.048 114.845C178.048 113.329 178.342 112.003 178.931 110.866C179.52 109.729 180.367 108.854 181.471 108.241C182.575 107.627 183.873 107.32 185.364 107.32C187.388 107.32 188.953 107.79 190.057 108.728C191.161 109.666 191.888 110.704 192.238 111.84L188.483 112.679C187.949 111.001 186.91 110.162 185.364 110.162C184.315 110.162 183.486 110.568 182.879 111.38C182.272 112.174 181.968 113.329 181.968 114.845C181.968 116.342 182.272 117.497 182.879 118.309C183.486 119.103 184.315 119.5 185.364 119.5Z" fill="white" fill-opacity="0.37"/>
<path d="M199.186 107.32C200.695 107.32 202.011 107.627 203.134 108.241C204.257 108.854 205.122 109.729 205.729 110.866C206.337 112.003 206.64 113.329 206.64 114.845C206.64 116.36 206.337 117.687 205.729 118.823C205.122 119.942 204.257 120.808 203.134 121.422C202.011 122.017 200.695 122.315 199.186 122.315C197.659 122.315 196.324 122.017 195.183 121.422C194.06 120.808 193.195 119.942 192.588 118.823C191.999 117.687 191.705 116.36 191.705 114.845C191.705 113.311 191.999 111.985 192.588 110.866C193.195 109.729 194.06 108.854 195.183 108.241C196.324 107.627 197.659 107.32 199.186 107.32ZM199.186 119.473C200.272 119.473 201.128 119.076 201.754 118.282C202.379 117.488 202.692 116.342 202.692 114.845C202.692 113.329 202.379 112.174 201.754 111.38C201.128 110.568 200.272 110.162 199.186 110.162C198.082 110.162 197.208 110.568 196.564 111.38C195.938 112.174 195.625 113.329 195.625 114.845C195.625 116.342 195.938 117.488 196.564 118.282C197.208 119.076 198.082 119.473 199.186 119.473Z" fill="white" fill-opacity="0.37"/>
<path d="M210.256 109.865H210.367C210.772 109.089 211.342 108.475 212.078 108.024C212.833 107.555 213.726 107.32 214.756 107.32C215.124 107.32 215.465 107.366 215.778 107.456V110.974C215.667 110.974 215.447 110.956 215.115 110.92C214.802 110.884 214.517 110.866 214.259 110.866C211.701 110.866 210.422 112.165 210.422 114.764V121.99H206.557V107.672H210.256V109.865Z" fill="white" fill-opacity="0.37"/>
<path d="M229.333 117.741C228.983 118.986 228.229 120.059 227.069 120.962C225.91 121.864 224.281 122.315 222.183 122.315C220.692 122.315 219.394 122.017 218.29 121.422C217.186 120.808 216.339 119.942 215.75 118.823C215.161 117.687 214.867 116.36 214.867 114.845C214.867 113.311 215.152 111.985 215.723 110.866C216.312 109.729 217.149 108.854 218.235 108.241C219.339 107.627 220.646 107.32 222.155 107.32C223.609 107.32 224.888 107.609 225.993 108.187C227.097 108.764 227.953 109.621 228.56 110.758C229.167 111.877 229.471 113.221 229.471 114.791C229.471 115.151 229.462 115.431 229.443 115.63H218.787C218.824 116.839 219.146 117.813 219.753 118.553C220.361 119.274 221.17 119.635 222.183 119.635C223.14 119.635 223.867 119.419 224.364 118.986C224.861 118.535 225.201 118.011 225.385 117.416L229.333 117.741ZM222.155 109.973C221.18 109.973 220.397 110.28 219.808 110.893C219.238 111.507 218.916 112.273 218.842 113.194H225.496C225.422 112.255 225.091 111.489 224.502 110.893C223.931 110.28 223.149 109.973 222.155 109.973Z" fill="white" fill-opacity="0.37"/>
<path d="M229.773 105.796V109.333H228.853V105.796H227.436V105.038H231.19V105.796H229.773Z" fill="white" fill-opacity="0.37"/>
<path d="M236.096 109.333H235.225V106.157H235.201L234.133 109.333H233.452L232.385 106.157H232.36V109.333H231.513V105.038H232.863L233.796 107.998H233.82L234.753 105.038H236.096V109.333Z" fill="white" fill-opacity="0.37"/>
</svg>
