<svg width="333" height="87" viewBox="0 0 333 87" fill="none" xmlns="http://www.w3.org/2000/svg">
<path d="M117.813 55.8476L114.028 66.9401H103.588L121.01 20.3516H133.864L151.286 66.9401H140.781L136.866 55.8476H117.813ZM127.47 28.7036H127.209L120.358 48.4091H134.321L127.47 28.7036Z" fill="#4E5A69"/>
<path d="M166.267 59.8278V66.9401C165.049 67.0271 163.048 67.0706 160.264 67.0706C157.785 67.0706 155.827 66.8531 154.392 66.4181C152.956 65.9396 151.89 65.1131 151.194 63.9386C150.498 62.7206 150.15 60.9806 150.15 58.7186V38.5563H144.669V32.4228H150.15V22.7658H159.285V32.4228H166.528V38.5563H159.285V56.4348C159.285 57.8703 159.568 58.8056 160.134 59.2406C160.743 59.6321 161.808 59.8278 163.331 59.8278H166.267Z" fill="#4E5A69"/>
<path d="M174.584 37.7081H174.845C175.802 35.8376 177.151 34.3586 178.891 33.2711C180.674 32.1401 182.784 31.5746 185.22 31.5746C186.09 31.5746 186.895 31.6833 187.634 31.9008V40.3833C187.373 40.3833 186.851 40.3398 186.068 40.2528C185.329 40.1658 184.655 40.1223 184.046 40.1223C177.999 40.1223 174.976 43.2543 174.976 49.5183V66.9401H165.841V32.4228H174.584V37.7081Z" fill="#4E5A69"/>
<path d="M195.722 32.4228V66.9401H186.587V32.4228H195.722ZM195.722 19.6991V27.5291H186.587V19.6991H195.722Z" fill="#4E5A69"/>
<path d="M212.812 60.9371C216.727 60.9371 219.25 58.6968 220.381 54.2164L229.582 55.2603C228.712 58.6968 226.928 61.6331 224.231 64.0691C221.534 66.5051 217.728 67.7231 212.812 67.7231C209.289 67.7231 206.222 67.0053 203.612 65.5698C201.002 64.0908 199.001 62.0028 197.609 59.3058C196.217 56.5653 195.521 53.3681 195.521 49.7141C195.521 46.0601 196.217 42.8628 197.609 40.1223C199.001 37.3818 201.002 35.2721 203.612 33.7931C206.222 32.3141 209.289 31.5746 212.812 31.5746C217.597 31.5746 221.295 32.7056 223.905 34.9676C226.515 37.2296 228.233 39.7308 229.06 42.4713L220.186 44.4941C218.924 40.4486 216.466 38.4258 212.812 38.4258C210.333 38.4258 208.375 39.4046 206.94 41.3621C205.504 43.2761 204.787 46.0601 204.787 49.7141C204.787 53.3246 205.504 56.1086 206.94 58.0661C208.375 59.9801 210.333 60.9371 212.812 60.9371Z" fill="#4E5A69"/>
<path d="M245.482 31.5746C249.049 31.5746 252.159 32.3141 254.813 33.7931C257.466 35.2721 259.511 37.3818 260.946 40.1223C262.382 42.8628 263.1 46.0601 263.1 49.7141C263.1 53.3681 262.382 56.5653 260.946 59.3058C259.511 62.0028 257.466 64.0908 254.813 65.5698C252.159 67.0053 249.049 67.7231 245.482 67.7231C241.872 67.7231 238.718 67.0053 236.021 65.5698C233.367 64.0908 231.323 62.0028 229.887 59.3058C228.495 56.5653 227.799 53.3681 227.799 49.7141C227.799 46.0166 228.495 42.8193 229.887 40.1223C231.323 37.3818 233.367 35.2721 236.021 33.7931C238.718 32.3141 241.872 31.5746 245.482 31.5746ZM245.482 60.8718C248.049 60.8718 250.071 59.9148 251.55 58.0008C253.029 56.0868 253.769 53.3246 253.769 49.7141C253.769 46.0601 253.029 43.2761 251.55 41.3621C250.071 39.4046 248.049 38.4258 245.482 38.4258C242.872 38.4258 240.806 39.4046 239.283 41.3621C237.804 43.2761 237.065 46.0601 237.065 49.7141C237.065 53.3246 237.804 56.0868 239.283 58.0008C240.806 59.9148 242.872 60.8718 245.482 60.8718Z" fill="#4E5A69"/>
<path d="M271.646 37.7081H271.907C272.864 35.8376 274.213 34.3586 275.953 33.2711C277.736 32.1401 279.846 31.5746 282.282 31.5746C283.152 31.5746 283.957 31.6833 284.696 31.9008V40.3833C284.435 40.3833 283.913 40.3398 283.13 40.2528C282.391 40.1658 281.717 40.1223 281.108 40.1223C275.061 40.1223 272.038 43.2543 272.038 49.5183V66.9401H262.903V32.4228H271.646V37.7081Z" fill="#4E5A69"/>
<path d="M316.734 56.6958C315.908 59.6973 314.124 62.2856 311.384 64.4606C308.643 66.6356 304.793 67.7231 299.834 67.7231C296.311 67.7231 293.244 67.0053 290.634 65.5698C288.024 64.0908 286.023 62.0028 284.631 59.3058C283.239 56.5653 282.543 53.3681 282.543 49.7141C282.543 46.0166 283.217 42.8193 284.566 40.1223C285.958 37.3818 287.937 35.2721 290.504 33.7931C293.114 32.3141 296.202 31.5746 299.769 31.5746C303.206 31.5746 306.229 32.2706 308.839 33.6626C311.449 35.0546 313.472 37.1208 314.907 39.8613C316.343 42.5583 317.06 45.7991 317.06 49.5836C317.06 50.4536 317.039 51.1278 316.995 51.6063H291.809C291.896 54.5208 292.657 56.8698 294.092 58.6533C295.528 60.3933 297.442 61.2633 299.834 61.2633C302.096 61.2633 303.815 60.7413 304.989 59.6973C306.164 58.6098 306.968 57.3483 307.403 55.9128L316.734 56.6958ZM299.769 37.9691C297.464 37.9691 295.615 38.7086 294.223 40.1876C292.874 41.6666 292.113 43.5153 291.939 45.7338H307.664C307.49 43.4718 306.707 41.6231 305.315 40.1876C303.967 38.7086 302.118 37.9691 299.769 37.9691Z" fill="#4E5A69"/>
<path d="M317.775 27.8998V36.4258H315.6V27.8998H312.25V26.0728H321.124V27.8998H317.775Z" fill="#4E5A69"/>
<path d="M332.719 36.4258H330.66V28.7698H330.602L328.079 36.4258H326.47L323.947 28.7698H323.889V36.4258H321.888V26.0728H325.078L327.282 33.2068H327.34L329.544 26.0728H332.719V36.4258Z" fill="#4E5A69"/>
<path d="M44.2673 0C26.7509 0 8.71777 12.4848 0.650752 19.7801C-0.124797 20.4815 -0.212036 21.6525 0.415355 22.4891C1.03366 23.3134 2.16116 23.558 3.07655 23.0847C11.8523 18.5475 30.1058 10.875 44.2673 10.875C58.3731 10.875 76.5388 18.4873 85.3541 23.031C86.2829 23.5098 87.4302 23.1492 87.8975 22.2146C88.2527 21.5042 88.1212 20.6498 87.545 20.1031C79.9116 12.8601 62.0451 0 44.2673 0Z" fill="#FF6454"/>
<path d="M54.4173 24.6245C54.4173 30.2302 49.873 34.7745 44.2673 34.7745C38.6616 34.7745 34.1173 30.2302 34.1173 24.6245C34.1173 19.0188 38.6616 14.4745 44.2673 14.4745C49.873 14.4745 54.4173 19.0188 54.4173 24.6245Z" fill="#FF6454"/>
<path d="M38.4673 38.4249C35.1456 36.7639 19.134 28.2749 10.9173 23.9249C9.46732 23.1999 8.74232 24.4312 8.74232 26.8249C8.74232 29.1449 9.33136 30.7114 11.6423 31.8999C20.1007 36.2499 37.5973 45.24 39.9173 46.4C41.3673 47.125 41.3673 45.675 41.3672 44.95L41.3673 42.775C41.3673 42.05 41.3673 39.875 38.4673 38.4249Z" fill="#FF6454"/>
<path d="M50.7923 38.4249C54.1141 36.7639 70.1256 28.2749 78.3423 23.9249C79.7923 23.1999 80.5173 24.4312 80.5173 26.8249C80.5173 29.1449 79.9283 30.7114 77.6173 31.8999C69.159 36.2499 51.6623 45.24 49.3423 46.4C47.8923 47.125 47.8923 45.675 47.8924 44.95L47.8923 42.775C47.8923 42.05 47.8923 39.875 50.7923 38.4249Z" fill="#FF6454"/>
<path fill-rule="evenodd" clip-rule="evenodd" d="M21.2301 39.7193C28.144 43.3275 35.0294 46.9207 37.0173 48.0569C39.1923 49.3 40.6423 51.475 39.9173 54.375C39.1923 57.275 35.5673 60.8999 35.5673 60.8999C35.2148 61.3406 34.7872 61.8777 34.2964 62.4944C30.7497 66.95 23.8991 75.5564 18.1673 81.925C16.7173 82.65 14.5423 80.1663 14.5423 77.7726C14.5423 75.8536 15.3548 74.9743 16.6048 73.6216C16.866 73.3389 17.1463 73.0355 17.4423 72.6976C17.9035 72.1712 18.3799 71.6203 18.8683 71.05L13.0923 43.023L10.1923 41.5319C7.88136 40.3434 7.29232 38.7769 7.29232 36.4569C7.29232 34.0632 8.01732 32.8319 9.46732 33.5569C12.6182 35.225 16.9297 37.475 21.2301 39.7193ZM18.1673 45.675L22.1623 67.1388C23.4317 65.6129 24.73 64.0366 26.0111 62.4813C28.4834 59.4796 30.8917 56.5558 32.9051 54.221L32.8557 53.1709L18.1673 45.675Z" fill="#FF6454"/>
<path fill-rule="evenodd" clip-rule="evenodd" d="M68.0295 39.7193C61.1156 43.3275 54.2302 46.9207 52.2423 48.0569C50.0673 49.3 48.6173 51.475 49.3423 54.375C50.0673 57.275 53.6923 60.8999 53.6923 60.8999C54.0449 61.3406 54.4724 61.8777 54.9633 62.4944C58.5099 66.95 65.3606 75.5564 71.0923 81.925C72.5423 82.65 74.7173 80.1663 74.7173 77.7726C74.7173 75.8536 73.9048 74.9743 72.6549 73.6216C72.3936 73.3389 72.1133 73.0355 71.8173 72.6976C71.3561 72.1712 70.8797 71.6203 70.3914 71.05L76.1673 43.023L79.0673 41.5319C81.3783 40.3434 81.9673 38.7769 81.9673 36.4569C81.9673 34.0632 81.2423 32.8319 79.7923 33.5569C76.6414 35.225 72.3299 37.475 68.0295 39.7193ZM71.0923 45.675L67.0973 67.1388C65.8279 65.6129 64.5296 64.0366 63.2485 62.4813C60.7762 59.4796 58.368 56.5558 56.3545 54.221L56.4039 53.1709L71.0923 45.675Z" fill="#FF6454"/>
<path fill-rule="evenodd" clip-rule="evenodd" d="M21.0673 83.375C19.9673 84.825 18.8923 87 21.0673 87H25.4173C26.1423 87 26.8673 87 28.3173 85.55C29.4773 84.39 30.734 82.65 31.2173 81.925H45.1149H58.8899C59.3732 82.65 60.6299 84.39 61.7899 85.55C63.2399 87 63.9649 87 64.6899 87H69.0399C71.2149 87 70.1399 84.825 69.0399 83.375C63.7233 76.3667 52.6549 61.915 50.9149 60.175C48.7399 58 48.7399 58 46.5649 58H44.9923H43.5423C41.3673 58 41.3673 58 39.1923 60.175C37.4523 61.915 26.384 76.3667 21.0673 83.375ZM36.2923 71.05H45.1149H53.8149L44.9923 60.175L36.2923 71.05Z" fill="#FF6454"/>
</svg>
