<svg width="371" height="83" viewBox="0 0 371 83" fill="none" xmlns="http://www.w3.org/2000/svg">
<path d="M251.214 63.0418C252.156 63.2101 252.955 63.7063 253.611 64.5306C254.267 65.3548 254.595 66.2884 254.595 67.3314C254.595 68.2229 254.36 69.0303 253.889 69.7537C253.434 70.4602 252.77 71.0237 251.895 71.4442C251.02 71.8479 250.003 72.0498 248.842 72.0498H241.827V54.5133H248.514C249.708 54.5133 250.735 54.7152 251.592 55.1189C252.45 55.5226 253.098 56.0693 253.535 56.759C253.973 57.4319 254.191 58.1888 254.191 59.0299C254.191 60.0392 253.922 60.8803 253.384 61.5531C252.846 62.226 252.122 62.7222 251.214 63.0418ZM244.704 61.8812H248.262C249.204 61.8812 249.935 61.6709 250.457 61.2503C250.995 60.813 251.264 60.1906 251.264 59.3832C251.264 58.5925 250.995 57.9786 250.457 57.5412C249.935 57.087 249.204 56.8599 248.262 56.8599H244.704V61.8812ZM248.59 69.7032C249.565 69.7032 250.331 69.4677 250.886 68.9967C251.441 68.5257 251.719 67.8696 251.719 67.0286C251.719 66.1707 251.424 65.4894 250.835 64.9847C250.247 64.4801 249.464 64.2278 248.489 64.2278H244.704V69.7032H248.59ZM270.236 58.1468L261.708 78.585H258.73L261.556 71.8227L256.081 58.1468H259.285L263.196 68.7444L267.259 58.1468H270.236Z" fill="#757575"/>
<path d="M279.139 67.0122L277.537 71.6133H273.12L280.491 52.2885H285.93L293.301 71.6133H288.856L287.2 67.0122H279.139ZM283.224 55.7529H283.114L280.215 63.9267H286.123L283.224 55.7529Z" fill="#757575"/>
<path d="M299.64 68.6632V71.6133C299.124 71.6494 298.278 71.6675 297.1 71.6675C296.051 71.6675 295.222 71.5772 294.615 71.3968C294.008 71.1983 293.557 70.8555 293.262 70.3683C292.968 69.8631 292.821 69.1413 292.821 68.2031V59.8398H290.502V57.2956H292.821V53.2899H296.686V57.2956H299.75V59.8398H296.686V67.2558C296.686 67.8512 296.805 68.2391 297.044 68.4196C297.302 68.582 297.753 68.6632 298.397 68.6632H299.64Z" fill="#757575"/>
<path d="M303.159 59.4879H303.269C303.674 58.7121 304.244 58.0986 304.981 57.6475C305.735 57.1783 306.628 56.9438 307.659 56.9438C308.027 56.9438 308.367 56.9889 308.68 57.0791V60.5976C308.57 60.5976 308.349 60.5796 308.017 60.5435C307.705 60.5074 307.419 60.4894 307.162 60.4894C304.603 60.4894 303.324 61.7885 303.324 64.3868V71.6133H299.459V57.2956H303.159V59.4879Z" fill="#757575"/>
<path d="M312.102 57.2956V71.6133H308.237V57.2956H312.102ZM312.102 52.0178V55.2657H308.237V52.0178H312.102Z" fill="#757575"/>
<path d="M319.333 69.1233C320.989 69.1233 322.057 68.194 322.535 66.3355L326.428 66.7686C326.06 68.194 325.305 69.412 324.164 70.4224C323.023 71.4329 321.413 71.9381 319.333 71.9381C317.842 71.9381 316.544 71.6404 315.44 71.045C314.336 70.4315 313.489 69.5654 312.9 68.4467C312.311 67.3099 312.017 65.9837 312.017 64.468C312.017 62.9523 312.311 61.6261 312.9 60.4894C313.489 59.3526 314.336 58.4775 315.44 57.864C316.544 57.2505 317.842 56.9438 319.333 56.9438C321.357 56.9438 322.922 57.4129 324.026 58.3512C325.13 59.2895 325.857 60.327 326.207 61.4637L322.452 62.3028C321.919 60.6247 320.879 59.7857 319.333 59.7857C318.284 59.7857 317.456 60.1916 316.848 61.0036C316.241 61.7975 315.937 62.9523 315.937 64.468C315.937 65.9656 316.241 67.1204 316.848 67.9324C317.456 68.7263 318.284 69.1233 319.333 69.1233Z" fill="#757575"/>
<path d="M333.155 56.9438C334.665 56.9438 335.981 57.2505 337.103 57.864C338.226 58.4775 339.091 59.3526 339.698 60.4894C340.306 61.6261 340.609 62.9523 340.609 64.468C340.609 65.9837 340.306 67.3099 339.698 68.4467C339.091 69.5654 338.226 70.4315 337.103 71.045C335.981 71.6404 334.665 71.9381 333.155 71.9381C331.628 71.9381 330.294 71.6404 329.152 71.045C328.03 70.4315 327.165 69.5654 326.557 68.4467C325.968 67.3099 325.674 65.9837 325.674 64.468C325.674 62.9343 325.968 61.6081 326.557 60.4894C327.165 59.3526 328.03 58.4775 329.152 57.864C330.294 57.2505 331.628 56.9438 333.155 56.9438ZM333.155 69.0962C334.241 69.0962 335.097 68.6993 335.723 67.9053C336.349 67.1114 336.662 65.9656 336.662 64.468C336.662 62.9523 336.349 61.7975 335.723 61.0036C335.097 60.1916 334.241 59.7857 333.155 59.7857C332.051 59.7857 331.177 60.1916 330.533 61.0036C329.907 61.7975 329.594 62.9523 329.594 64.468C329.594 65.9656 329.907 67.1114 330.533 67.9053C331.177 68.6993 332.051 69.0962 333.155 69.0962Z" fill="#757575"/>
<path d="M344.226 59.4879H344.336C344.741 58.7121 345.311 58.0986 346.048 57.6475C346.802 57.1783 347.695 56.9438 348.726 56.9438C349.094 56.9438 349.434 56.9889 349.747 57.0791V60.5976C349.637 60.5976 349.416 60.5796 349.084 60.5435C348.772 60.5074 348.486 60.4894 348.229 60.4894C345.67 60.4894 344.391 61.7885 344.391 64.3868V71.6133H340.526V57.2956H344.226V59.4879Z" fill="#757575"/>
<path d="M363.302 67.364C362.953 68.609 362.198 69.6826 361.038 70.5848C359.879 71.487 358.25 71.9381 356.152 71.9381C354.661 71.9381 353.364 71.6404 352.259 71.045C351.155 70.4315 350.308 69.5654 349.719 68.4467C349.13 67.3099 348.836 65.9837 348.836 64.468C348.836 62.9343 349.121 61.6081 349.692 60.4894C350.281 59.3526 351.118 58.4775 352.204 57.864C353.308 57.2505 354.615 56.9438 356.124 56.9438C357.578 56.9438 358.857 57.2325 359.962 57.8099C361.066 58.3873 361.922 59.2443 362.529 60.3811C363.137 61.4998 363.44 62.8441 363.44 64.4139C363.44 64.7748 363.431 65.0544 363.413 65.2529H352.756C352.793 66.4618 353.115 67.4362 353.722 68.176C354.33 68.8977 355.14 69.2586 356.152 69.2586C357.109 69.2586 357.836 69.0421 358.333 68.609C358.83 68.158 359.17 67.6347 359.354 67.0392L363.302 67.364ZM356.124 59.5962C355.149 59.5962 354.367 59.9029 353.778 60.5164C353.207 61.1299 352.885 61.8968 352.811 62.817H359.465C359.391 61.8787 359.06 61.1119 358.471 60.5164C357.9 59.9029 357.118 59.5962 356.124 59.5962Z" fill="#757575"/>
<path d="M363.743 55.4195V58.956H362.822V55.4195H361.405V54.6616H365.16V55.4195H363.743Z" fill="#757575"/>
<path d="M370.066 58.956H369.194V55.7804H369.17L368.102 58.956H367.421L366.354 55.7804H366.329V58.956H365.483V54.6616H366.832L367.765 57.6208H367.789L368.722 54.6616H370.066V58.956Z" fill="#757575"/>
<path fill-rule="evenodd" clip-rule="evenodd" d="M207.921 78.5623C224.071 78.5623 237.163 65.4702 237.163 49.3203C237.163 33.1704 224.071 20.0784 207.921 20.0784C191.771 20.0784 178.679 33.1704 178.679 49.3203C178.679 65.4702 191.771 78.5623 207.921 78.5623ZM207.92 67.0289C217.211 67.0289 224.743 59.1006 224.743 49.3204C224.743 39.5403 217.211 31.6119 207.92 31.6119C198.629 31.6119 191.097 39.5403 191.097 49.3204C191.097 59.1006 198.629 67.0289 207.92 67.0289Z" fill="#4E5A69"/>
<path fill-rule="evenodd" clip-rule="evenodd" d="M103.552 47.8324C104.544 48.6305 105.611 49.3011 106.751 49.8441C109.112 50.8875 112.16 51.9583 115.894 53.0565C118.64 53.8253 120.781 54.5391 122.319 55.1981C123.911 55.8021 125.229 56.6533 126.272 57.7515C127.316 58.8498 127.837 60.25 127.837 61.9523C127.837 64.039 127.069 65.7413 125.531 67.0592C123.994 68.3222 121.879 68.9536 119.189 68.9536C116.553 68.9536 114.466 68.2672 112.929 66.8944C111.446 65.5216 110.622 63.6546 110.458 61.2934H101.395C100.716 63.0796 99.8895 64.7932 98.9303 66.4192C99.4086 67.8647 100.094 69.2037 100.985 70.4363C102.852 73.0172 105.378 74.994 108.563 76.3668C111.803 77.7396 115.427 78.426 119.436 78.426C123.664 78.426 127.316 77.6573 130.391 76.1197C133.466 74.5273 135.8 72.4131 137.392 69.7773C138.985 67.1415 139.781 64.2861 139.781 61.211C139.781 57.6417 138.93 54.7588 137.227 52.5623C135.525 50.3658 133.493 48.7184 131.132 47.6202C128.771 46.5219 125.723 45.4237 121.989 44.3254C119.244 43.5017 117.102 42.7879 115.565 42.1838C114.082 41.5249 112.819 40.7012 111.776 39.7128C110.787 38.6694 110.293 37.379 110.293 35.8415C110.293 33.645 110.952 31.9701 112.27 30.817C113.643 29.6638 115.455 29.0872 117.706 29.0872C120.287 29.0872 122.346 29.7462 123.884 31.0641C125.476 32.3271 126.327 33.947 126.437 35.9238H139.122C138.738 30.7621 136.678 26.7535 132.944 23.898C129.265 20.9877 124.46 19.5325 118.53 19.5325C114.576 19.5325 111.062 20.2189 107.987 21.5917C104.912 22.9096 102.523 24.8315 100.821 27.3575C99.8774 28.757 99.1955 30.2914 98.7749 31.9606C101.588 36.6328 103.3 42.0432 103.552 47.8324ZM150.337 76.3668C153.576 77.7396 157.201 78.426 161.209 78.426C165.438 78.426 169.089 77.6573 172.164 76.1197C175.239 74.5273 177.573 72.4131 179.166 69.7773C180.758 67.1415 181.554 64.2861 181.554 61.211C181.554 57.6417 180.703 54.7588 179.001 52.5623C177.299 50.3658 175.267 48.7184 172.906 47.6202C170.544 46.5219 167.497 45.4237 163.763 44.3254C161.017 43.5017 158.876 42.7879 157.338 42.1838C155.855 41.5249 154.592 40.7012 153.549 39.7128C152.561 38.6694 152.066 37.379 152.066 35.8415C152.066 33.645 152.725 31.9701 154.043 30.817C155.416 29.6638 157.228 29.0872 159.48 29.0872C162.06 29.0872 164.12 29.7462 165.657 31.0641C167.25 32.3271 168.101 33.947 168.211 35.9238H180.895C180.511 30.7621 178.452 26.7535 174.718 23.898C171.039 20.9877 166.234 19.5325 160.303 19.5325C156.35 19.5325 152.835 20.2189 149.76 21.5917C146.685 22.9096 144.296 24.8315 142.594 27.3575C140.892 29.8835 140.041 32.8487 140.041 36.2533C140.041 39.8775 140.864 42.7879 142.512 44.9844C144.214 47.126 146.218 48.7459 148.525 49.8441C150.886 50.8875 153.933 51.9583 157.667 53.0565C160.413 53.8253 162.555 54.5391 164.092 55.1981C165.685 55.8021 167.003 56.6533 168.046 57.7515C169.089 58.8498 169.611 60.25 169.611 61.9523C169.611 64.039 168.842 65.7413 167.305 67.0592C165.767 68.3222 163.653 68.9536 160.962 68.9536C158.326 68.9536 156.24 68.2672 154.702 66.8944C153.22 65.5216 152.396 63.6546 152.231 61.2934H139.876C139.931 64.8078 140.892 67.8554 142.759 70.4363C144.626 73.0172 147.152 74.994 150.337 76.3668Z" fill="#4E5A69"/>
<path d="M41.1509 11.8024V14.8715C47.3612 12.6549 57.5235 8.22162 63.7338 7.19856C63.7338 7.19856 70.5087 6.17549 74.4607 7.19856C77.8481 7.19856 94.7853 13.8485 97.0436 14.8715C99.3019 15.8946 100.431 13.3369 98.7374 12.3139C97.0436 11.2908 85.7522 3.61784 80.1064 1.57171C74.4607 -0.474423 65.4275 -0.474423 58.0881 1.57171C52.2165 3.20861 44.3501 9.24469 41.1509 11.8024Z" fill="#FF6454"/>
<path fill-rule="evenodd" clip-rule="evenodd" d="M69.8806 78.5623C86.0305 78.5623 99.1226 65.4702 99.1226 49.3203C99.1226 33.1704 86.0305 20.0784 69.8806 20.0784C53.7307 20.0784 40.6387 33.1704 40.6387 49.3203C40.6387 65.4702 53.7307 78.5623 69.8806 78.5623ZM69.8802 67.0289C79.1713 67.0289 86.7033 59.1006 86.7033 49.3204C86.7033 39.5403 79.1713 31.6119 69.8802 31.6119C60.589 31.6119 53.0571 39.5403 53.0571 49.3204C53.0571 59.1006 60.589 67.0289 69.8802 67.0289Z" fill="#FF6454"/>
<path d="M37.0283 20.3562V60.7168C37.0283 66.3179 35.4084 70.6834 32.1686 73.8134C28.9287 76.8885 24.5907 78.4261 19.1543 78.4261C13.6631 78.4261 9.21519 76.8336 5.81062 73.6487C2.46096 70.4638 0.786133 66.0159 0.786133 60.305H12.3177C12.3727 62.776 12.9492 64.698 14.0475 66.0708C15.2006 67.4436 16.848 68.13 18.9896 68.13C21.0763 68.13 22.6687 67.4711 23.767 66.1532C24.8652 64.8353 25.4144 63.0231 25.4144 60.7168V20.3562H37.0283Z" fill="#4E5A69"/>
<path d="M245.179 41.3965C247.136 39.7049 248.674 38.319 249.795 37.2389C250.937 36.1383 251.884 34.997 252.638 33.8149C253.392 32.6328 253.769 31.4507 253.769 30.2686C253.769 29.0458 253.474 28.0879 252.883 27.395C252.312 26.702 251.405 26.3555 250.162 26.3555C248.96 26.3555 248.022 26.7428 247.35 27.5172C246.697 28.2713 246.351 29.2904 246.31 30.5744H242.947C243.008 28.2509 243.701 26.4778 245.026 25.255C246.371 24.0117 248.073 23.3901 250.131 23.3901C252.353 23.3901 254.085 24.0016 255.329 25.2244C256.592 26.4473 257.224 28.0777 257.224 30.1158C257.224 31.5832 256.847 32.9997 256.093 34.3652C255.359 35.7103 254.473 36.923 253.433 38.0031C252.414 39.0629 251.11 40.296 249.52 41.7022L248.144 42.9251H257.835V45.8293H242.978V43.2919L245.179 41.3965Z" fill="#4E5A69"/>
</svg>
