<svg width="47" height="47" viewBox="0 0 47 47" fill="none" xmlns="http://www.w3.org/2000/svg">
<path d="M23.5 2.9375C19.4331 2.9375 15.4576 4.14347 12.0761 6.40291C8.69461 8.66234 6.05906 11.8738 4.50274 15.6311C2.94641 19.3884 2.5392 23.5228 3.33261 27.5115C4.12602 31.5003 6.08441 35.1642 8.96013 38.0399C11.8358 40.9156 15.4997 42.874 19.4885 43.6674C23.4772 44.4608 27.6116 44.0536 31.3689 42.4973C35.1262 40.9409 38.3377 38.3054 40.5971 34.9239C42.8565 31.5424 44.0625 27.5669 44.0625 23.5C44.0625 18.0465 41.8961 12.8163 38.0399 8.96012C34.1837 5.1039 28.9535 2.9375 23.5 2.9375V2.9375ZM23.5 10.2812C24.8072 10.2812 26.0851 10.6689 27.172 11.3951C28.2589 12.1214 29.106 13.1536 29.6063 14.3613C30.1065 15.569 30.2374 16.898 29.9824 18.1801C29.7274 19.4621 29.0979 20.6398 28.1735 21.5642C27.2492 22.4885 26.0715 23.118 24.7894 23.373C23.5073 23.628 22.1784 23.4971 20.9707 22.9969C19.763 22.4966 18.7308 21.6495 18.0045 20.5626C17.2783 19.4757 16.8906 18.1978 16.8906 16.8906C16.8887 16.0221 17.0583 15.1618 17.3898 14.359C17.7213 13.5563 18.208 12.8269 18.8222 12.2128C19.4363 11.5987 20.1657 11.1119 20.9684 10.7804C21.7712 10.4489 22.6315 10.2793 23.5 10.2812V10.2812ZM35.25 36.6013C32.0291 39.5128 27.8419 41.1248 23.5 41.1248C19.1582 41.1248 14.971 39.5128 11.75 36.6013V35.7494C11.6944 33.7384 12.4345 31.7866 13.8095 30.3181C15.1845 28.8496 17.0834 27.9829 19.0938 27.9062H27.9063C29.9075 27.9866 31.7974 28.8483 33.1704 30.3064C34.5435 31.7646 35.2901 33.7029 35.25 35.7053V36.6013V36.6013Z" fill="#FF6454"/>
</svg>
